<?xml version="1.0" standalone="no"?>
<!DOCTYPE svg PUBLIC "-//W3C//DTD SVG 1.1//EN" "http://www.w3.org/Graphics/SVG/1.1/DTD/svg11.dtd" >
<svg xmlns="http://www.w3.org/2000/svg" xmlns:xlink="http://www.w3.org/1999/xlink" version="1.1">
<metadata>
Created by FontForge 20170731 at Tue Oct 27 12:12:26 2020
 By Aleksey,,,
copyright missing
</metadata>
<defs>
<font id="PublicaSans-Thin" horiz-adv-x="1280" >
  <font-face 
    font-family="Publica Sans Thin"
    font-weight="250"
    font-stretch="normal"
    units-per-em="2048"
    panose-1="0 0 3 0 0 0 0 0 0 0"
    ascent="1575"
    descent="-473"
    x-height="995"
    cap-height="1405"
    bbox="-236 -442 3267 1909"
    underline-thickness="102"
    underline-position="-307"
    unicode-range="U+0020-FB02"
  />
<missing-glyph horiz-adv-x="1114" 
d="M227 946q137 137 330 137q195 0 332 -137t137 -332q0 -192 -137 -329q-140 -140 -332 -140t-330 138q-137 137 -137 331q0 195 137 332zM565 944q-113 0 -187.5 -60.5t-74.5 -152.5h178q5 27 27.5 45.5t52.5 18.5q32 0 53 -19.5t21 -46.5q0 -76 -135 -76h-33v-121h180v54
q79 17 125.5 63.5t46.5 108.5q0 82 -71.5 134t-182.5 52zM643 459q-32 31 -86 31t-86 -31t-32 -80t34 -80q34 -32 85 -32t85 32q33 31 33 80t-33 80z" />
    <glyph glyph-name="fi" unicode="fi" horiz-adv-x="794" 
d="M262 995h395v-995h-67v936h-328v-936h-65v936h-154v59h154v224q0 91 55.5 146.5t146.5 55.5q37 0 64 -8v-65q-35 12 -64 12q-61 0 -99 -39t-38 -102v-224zM580 1292q17 17 43 17t43 -17t17 -43t-17 -43t-43 -17t-43 17t-17 43t17 43z" />
    <glyph glyph-name="fl" unicode="fl" horiz-adv-x="806" 
d="M590 995v410h67v-1405h-67v936h-328v-936h-65v936h-154v59h154v224q0 91 55.5 146.5t146.5 55.5q37 0 64 -8v-65q-35 12 -64 12q-61 0 -99 -39t-38 -102v-224h328z" />
    <glyph glyph-name="f_f" unicode="ff" horiz-adv-x="890" 
d="M795 1360q-62 0 -100 -39t-38 -102v-224h201v-59h-201v-936h-67v936h-152h-176v-936h-65v936h-154v59h154v224q0 91 55.5 146.5t146.5 55.5q37 0 64 -8v-65q-35 12 -64 12q-61 0 -99 -39t-38 -102v-224h176h152v224q0 90 57 146t148 56q36 0 63 -8v-65q-35 12 -63 12z
" />
    <glyph glyph-name="f_f_i" unicode="ffi" horiz-adv-x="1189" 
d="M657 995h394v-995h-68v936h-326v-936h-67v936h-152h-176v-936h-65v936h-154v59h154v224q0 91 55.5 146.5t146.5 55.5q37 0 64 -8v-65q-35 12 -64 12q-61 0 -99 -39t-38 -102v-224h201h127v224q0 91 56 146.5t147 55.5q39 0 63 -8v-65q-35 12 -61 12q-62 0 -100 -39
t-38 -102v-224zM973 1292q28 28 65 11.5t37 -54.5q0 -59 -59 -59q-38 0 -54.5 37t11.5 65z" />
    <glyph glyph-name="f_f_l" unicode="ffl" horiz-adv-x="1200" 
d="M985 995v410h68v-1405h-68v936h-328v-936h-67v936h-152h-176v-936h-65v936h-154v59h154v224q0 91 55.5 146.5t146.5 55.5q37 0 64 -8v-65q-35 12 -64 12q-61 0 -99 -39t-38 -102v-224h201h127v224q0 91 56 146.5t147 55.5q39 0 63 -8v-65q-35 12 -61 12q-62 0 -100 -39
t-38 -102v-224h328z" />
    <glyph glyph-name=".notdef" horiz-adv-x="1114" 
d="M227 946q137 137 330 137q195 0 332 -137t137 -332q0 -192 -137 -329q-140 -140 -332 -140t-330 138q-137 137 -137 331q0 195 137 332zM565 944q-113 0 -187.5 -60.5t-74.5 -152.5h178q5 27 27.5 45.5t52.5 18.5q32 0 53 -19.5t21 -46.5q0 -76 -135 -76h-33v-121h180v54
q79 17 125.5 63.5t46.5 108.5q0 82 -71.5 134t-182.5 52zM643 459q-32 31 -86 31t-86 -31t-32 -80t34 -80q34 -32 85 -32t85 32q33 31 33 80t-33 80z" />
    <glyph glyph-name=".null" horiz-adv-x="0" 
 />
    <glyph glyph-name="nonmarkingreturn" horiz-adv-x="681" 
 />
    <glyph glyph-name="space" unicode=" " horiz-adv-x="505" 
 />
    <glyph glyph-name="exclam" unicode="!" horiz-adv-x="448" 
d="M195 221l-9 1184h78l-6 -1184h-63zM180 98q31 30 69 12.5t38 -59.5q0 -29 -17.5 -46t-44.5 -17q-29 0 -46 18t-17 45q0 29 18 47z" />
    <glyph glyph-name="quotedbl" unicode="&#x22;" horiz-adv-x="530" 
d="M340 997l-10 408h69l-10 -408h-49zM143 997l-10 408h68l-11 -408h-47z" />
    <glyph glyph-name="numbersign" unicode="#" horiz-adv-x="1323" 
d="M883 451h358v-45h-369l-96 -406h-51l96 406h-459l-96 -406h-51l96 406h-227v45h238l118 503h-356v45h367l96 406h53l-96 -406h457l96 406h53l-96 -406h227v-45h-237zM492 954l-119 -503h458l119 503h-458z" />
    <glyph glyph-name="dollar" unicode="$" horiz-adv-x="1153" 
d="M1071 375q0 -173 -129 -281q-131 -107 -344 -110v-142h-55v142q-214 7 -339.5 125t-131.5 307h69q5 -168 121.5 -269.5t317.5 -101.5q190 0 303.5 89t113.5 241q0 74 -30 127.5t-81 85t-116.5 53t-138.5 36t-146 30t-138.5 40.5t-116.5 61t-81 97t-30 144
q0 164 114.5 263t309.5 107v144h55v-142q199 -6 318 -110.5t126 -286.5h-71q-7 160 -111 248t-282 88q-174 0 -279.5 -83.5t-105.5 -225.5q-1 -48 14 -87.5t37.5 -68t62 -52.5t75 -38.5t90.5 -29.5t94 -22.5t100.5 -20t95.5 -19.5q139 -32 224 -116t85 -222z" />
    <glyph glyph-name="percent" unicode="%" horiz-adv-x="1591" 
d="M655 1325q93 -93 93 -231q0 -140 -93 -230q-92 -92 -231 -92q-140 0 -229 92q-93 90 -93 230q0 138 93 231q89 92 229 92q139 0 231 -92zM354 0l832 1405h51l-829 -1405h-54zM150 1094q2 -119 79 -197t195 -78t199 78q77 77 77 197q0 118 -77 198q-78 78 -199 78
q-119 0 -196 -77.5t-78 -198.5zM936 539q93 90 231 90q139 0 232 -90q92 -92 92 -232q0 -139 -92 -231t-232 -92q-139 0 -231 92t-92 231q0 140 92 232zM971 111q77 -80 196 -80t197 78t78 198q0 119 -78 197t-197 78q-118 0 -196 -78t-78 -197q0 -118 78 -196z" />
    <glyph glyph-name="ampersand" unicode="&#x26;" horiz-adv-x="1267" 
d="M1004 229l198 -229h-76l-163 188q-186 -204 -443 -204q-194 0 -313 110q-123 108 -123 277q0 153 77.5 263t235.5 216q-143 189 -143 328q0 106 71.5 174.5t186.5 68.5q114 0 188 -67.5t74 -167.5q0 -111 -96 -195q-69 -58 -88 -71q-17 -13 -115 -78q54 -68 72 -88
l420 -482q96 119 166 293h69q-94 -208 -198 -336zM651 1315q-57 54 -140.5 54t-137.5 -54q-56 -56 -56 -137q0 -122 129 -297q23 16 52.5 36t49.5 34t34 24q43 34 86 92q41 59 41 117q0 79 -58 131zM528 41q223 0 398 190l-432 496l-66 82q-141 -101 -209.5 -201t-68.5 -233
q0 -147 106 -240q104 -94 272 -94z" />
    <glyph glyph-name="quotesingle" unicode="'" horiz-adv-x="333" 
d="M143 997l-10 408h68l-11 -408h-47z" />
    <glyph glyph-name="parenleft" unicode="(" horiz-adv-x="483" 
d="M387 1563h51q-250 -398 -250 -985q0 -590 250 -988h-51q-266 380 -266 988q0 605 266 985z" />
    <glyph glyph-name="parenright" unicode=")" horiz-adv-x="481" 
d="M43 1563h51q266 -383 266 -985q0 -605 -266 -988h-51q250 398 250 988q0 587 -250 985z" />
    <glyph glyph-name="asterisk" unicode="*" horiz-adv-x="872" 
d="M733 1282l19 -55l-285 -82l182 -232l-49 -34l-164 241l-164 -241l-49 34l183 232l-285 82l18 55l279 -100l-12 295h61l-12 -295z" />
    <glyph glyph-name="plus" unicode="+" horiz-adv-x="911" 
d="M481 643h328v-49h-328v-313h-51v313h-328v49h328v313h51v-313z" />
    <glyph glyph-name="comma" unicode="," horiz-adv-x="428" 
d="M61 -315l119 407h72l-133 -407h-58z" />
    <glyph glyph-name="hyphen" unicode="-" horiz-adv-x="870" 
d="M102 580v55h668v-55h-668z" />
    <glyph glyph-name="period" unicode="." horiz-adv-x="475" 
d="M193 98q29 29 68.5 11.5t39.5 -58.5q0 -27 -17 -45t-46 -18q-40 0 -57 39.5t12 70.5z" />
    <glyph glyph-name="slash" unicode="/" horiz-adv-x="628" 
d="M20 0l533 1405h55l-532 -1405h-56z" />
    <glyph glyph-name="zero" unicode="0" horiz-adv-x="1333" 
d="M254 1227q153 194 414 194q260 0 413 -194q154 -195 154 -525q0 -329 -154 -524q-153 -194 -413 -194q-263 0 -416 194q-154 195 -154 524q0 332 156 525zM1032 1184q-135 176 -364 176q-230 0 -365 -176q-135 -178 -135 -482t135 -479q135 -178 365 -178q229 0 364 178
q133 177 133 479t-133 482z" />
    <glyph glyph-name="one" unicode="1" horiz-adv-x="745" 
d="M453 1405h59v-1405h-68v1247q-43 -73 -129.5 -115t-195.5 -42v61q146 0 240 72t94 182z" />
    <glyph glyph-name="two" unicode="2" horiz-adv-x="1114" 
d="M166 59h870v-59h-946v14q7 89 21.5 144t52.5 108q8 11 24.5 34t23.5 31.5t23 25t39 34.5q12 10 27 21.5t24 18.5t13 11q4 3 14 10t28 19t34 23q60 39 69 43q21 11 76 45q114 69 148 94q56 38 118 94q119 107 119 262q0 147 -104 238q-109 92 -271 92q-160 0 -265 -90.5
t-118 -247.5h-67q13 183 136 290t314 107q194 0 318 -106q125 -107 125 -281t-131 -293q-54 -52 -123 -102q-50 -37 -154 -98q-225 -132 -297 -201q-138 -126 -141 -281z" />
    <glyph glyph-name="three" unicode="3" horiz-adv-x="1144" 
d="M688 739q172 -31 273.5 -131t101.5 -239q0 -168 -139 -277q-138 -108 -357 -108q-220 0 -360 116q-143 119 -146 316h70q4 -171 124 -273t312 -102q186 0 305 94q121 95 121 240q0 149 -125 243q-127 95 -329 95h-68v51h66q183 0 294 83.5t111 217.5q0 133 -104 215
q-110 84 -271 84q-169 0 -275 -91.5t-110 -248.5h-65q3 183 129 291q124 106 321 106q193 0 318 -98t125 -248q0 -124 -87 -214.5t-235 -121.5z" />
    <glyph glyph-name="four" unicode="4" horiz-adv-x="1222" 
d="M911 414h275v-58h-275v-356h-67v356h-781v54l766 995h82v-991zM844 414v913l-707 -913h707z" />
    <glyph glyph-name="five" unicode="5" horiz-adv-x="1220" 
d="M610 954q220 0 361 -135q139 -139 139 -348q0 -213 -143 -350t-367 -137q-201 0 -344 116q-147 120 -162 314h70q15 -172 141 -271q121 -100 295 -100q189 0 315 123q125 119 125 307t-122 307q-127 121 -318 121q-112 0 -217 -57q-108 -58 -162 -150h-67l104 711h61h717
v-59h-725l-82 -564q62 78 165.5 125t215.5 47z" />
    <glyph glyph-name="six" unicode="6" horiz-adv-x="1210" 
d="M618 954q216 0 357 -135q141 -138 141 -348q0 -213 -143 -350t-367 -137q-223 0 -366 137q-146 140 -146 350q0 158 92 291l449 643h80l-375 -531q121 80 278 80zM291 164q127 -121 315 -121q190 0 316 123q125 119 125 305q0 188 -125 307q-127 121 -316 121
q-190 0 -317 -121q-125 -119 -125 -307q0 -186 127 -307z" />
    <glyph glyph-name="seven" unicode="7" horiz-adv-x="1140" 
d="M90 1343v62h969v-55l-686 -1350h-72l682 1343h-893z" />
    <glyph glyph-name="eight" unicode="8" horiz-adv-x="1236" 
d="M778 741q172 -36 274.5 -135.5t102.5 -234.5q0 -172 -149 -279q-150 -108 -388 -108q-235 0 -385 108q-151 109 -151 279q0 136 102 235.5t275 134.5q-147 36 -232.5 123.5t-85.5 208.5q0 151 135 250q131 98 342 98t345 -98q133 -100 133 -250q0 -121 -85.5 -208.5
t-232.5 -123.5zM324 1282q-117 -86 -117 -217q0 -133 117 -215q115 -86 294 -86t297 86q115 83 115 215q0 131 -115 217q-119 84 -297 84t-294 -84zM283 135q134 -96 335 -96q202 0 336 96q131 94 131 240q0 149 -131 243q-135 97 -336 97q-200 0 -335 -97
q-131 -94 -131 -243q0 -146 131 -240z" />
    <glyph glyph-name="nine" unicode="9" horiz-adv-x="1210" 
d="M604 1421q226 0 369 -137t143 -350q0 -158 -92 -291l-449 -643h-79l372 528q-115 -77 -276 -77q-216 0 -356 137q-142 139 -142 346q0 210 146 350q143 137 364 137zM604 506q191 0 318 121q125 119 125 307t-125 307q-127 121 -318 121q-188 0 -315 -121
q-125 -122 -125 -307q0 -188 125 -307q127 -121 315 -121z" />
    <glyph glyph-name="colon" unicode=":" horiz-adv-x="487" 
d="M199 729q29 29 68.5 11.5t39.5 -58.5q0 -27 -17 -44t-46 -17q-26 0 -44 17.5t-18 43.5q0 27 17 47zM199 98q29 29 68.5 11.5t39.5 -58.5t-39 -57.5t-67 12.5q-19 17 -19 45t17 47z" />
    <glyph glyph-name="semicolon" unicode=";" horiz-adv-x="454" 
d="M166 729q29 29 68.5 11.5t39.5 -58.5q0 -28 -20 -44.5t-43.5 -16.5t-43.5 16.5t-20 44.5t19 47zM47 -315l119 407h70l-132 -407h-57z" />
    <glyph glyph-name="less" unicode="&#x3c;" horiz-adv-x="897" 
d="M102 643l695 348v-55l-641 -318l641 -317v-55l-695 348v49z" />
    <glyph glyph-name="equal" unicode="=" horiz-adv-x="854" 
d="M102 709v47h652v-47h-652zM102 483v47h652v-47h-652z" />
    <glyph glyph-name="greater" unicode="&#x3e;" horiz-adv-x="897" 
d="M102 936v55l695 -348v-49l-695 -348v55l639 317z" />
    <glyph glyph-name="question" unicode="?" horiz-adv-x="1058" 
d="M532 1421q196 0 320 -118q125 -119 125 -304q0 -175 -117 -292q-116 -116 -299 -125v-361h-63l-2 410h10q177 0 291 102q110 101 110 262t-104 262q-109 103 -273 103q-161 0 -270 -103q-108 -102 -108 -260h-70q0 185 127 306q124 118 323 118zM485 98q29 29 69 11.5
t40 -58.5t-39.5 -57.5t-67.5 12.5q-19 17 -19 45t17 47z" />
    <glyph glyph-name="at" unicode="@" horiz-adv-x="2119" 
d="M1051 1450q420 0 692 -266q274 -268 274 -680q0 -232 -82 -375q-83 -145 -219 -145q-86 0 -138 59t-56 168v80q-56 -141 -181 -224t-286 -83q-220 0 -365 145t-145 369q0 223 145 368q146 146 371 146q223 0 369 -146q145 -145 145 -368v-265q0 -93 37 -142.5t104 -49.5
q110 0 174 129q66 132 66 334q0 385 -258 637t-647 252q-383 0 -635 -252t-252 -637t252 -637q253 -250 635 -250q247 0 442 98v-63q-192 -94 -442 -94q-407 0 -678 268q-273 267 -273 678q0 410 271 678t680 268zM741 172q126 -129 320 -129q195 0 321 129q127 127 127 326
q0 197 -127 327q-127 127 -321 127q-193 0 -320 -127q-127 -130 -127 -327q0 -199 127 -326z" />
    <glyph glyph-name="A" unicode="A" horiz-adv-x="1292" 
d="M1274 0h-76l-168 403h-768l-166 -403h-76l584 1405h84zM647 1329l-358 -864h717z" />
    <glyph glyph-name="B" unicode="B" horiz-adv-x="1245" 
d="M864 721q136 -23 218.5 -120t82.5 -236q0 -161 -102 -263q-105 -102 -264 -102h-621v1405h561q161 0 265 -98q102 -99 102 -252q0 -120 -65.5 -209t-176.5 -125zM1034 1044q0 126 -84 213q-87 84 -215 84h-487v-600h487q131 0 215 85t84 218zM248 63h547q129 0 213 88
t84 224q0 133 -84 219t-213 86h-547v-617z" />
    <glyph glyph-name="C" unicode="C" horiz-adv-x="1599" 
d="M1442 553h74q-47 -256 -240 -412q-195 -157 -465 -157q-317 0 -518 204q-203 203 -203 519q0 311 203 514q203 200 518 200q273 0 465 -155q193 -156 240 -406h-74q-50 221 -219 359q-171 137 -412 137q-283 0 -465 -182q-182 -185 -182 -467q0 -286 182 -471
q181 -187 465 -187q240 0 414 139q170 139 217 365z" />
    <glyph glyph-name="D" unicode="D" horiz-adv-x="1366" 
d="M178 1405h379q323 0 522 -193t199 -505q0 -319 -199 -512q-201 -195 -522 -195h-379v1405zM248 66h309q291 0 469 178q178 175 178 465q0 281 -178 456q-177 174 -469 174h-309v-1273z" />
    <glyph glyph-name="E" unicode="E" horiz-adv-x="1189" 
d="M1098 1405v-66h-850v-594h772v-63h-772v-616h850v-66h-920v1405h920z" />
    <glyph glyph-name="F" unicode="F" horiz-adv-x="1130" 
d="M1059 1405v-66h-811v-598h733v-61h-733v-680h-70v1405h881z" />
    <glyph glyph-name="G" unicode="G" horiz-adv-x="1617" 
d="M811 729h719v-22q0 -315 -201 -519q-198 -204 -518 -204q-317 0 -518 204q-203 203 -203 519q0 311 203 514q203 200 518 200q266 0 461 -151q192 -152 239 -402h-73q-50 222 -219 357q-171 133 -408 133q-284 0 -465 -184q-182 -185 -182 -467q0 -286 182 -474
q180 -186 465 -186q271 0 453 176q181 175 190 445h-643v61z" />
    <glyph glyph-name="H" unicode="H" horiz-adv-x="1345" 
d="M1098 725v680h71v-1405h-71v659h-850v-659h-70v1405h70v-680h850z" />
    <glyph glyph-name="I" unicode="I" horiz-adv-x="425" 
d="M178 1405h70v-1405h-70v1405z" />
    <glyph glyph-name="J" unicode="J" horiz-adv-x="1191" 
d="M403 1339v66h650v-913q0 -230 -131 -367q-132 -141 -351 -141q-216 0 -348 141q-133 139 -133 367v30h70v-30q0 -201 112.5 -322t298.5 -121t298 121t112 322v847h-578z" />
    <glyph glyph-name="K" unicode="K" horiz-adv-x="1116" 
d="M328 713l729 -713h-92l-717 702v-702h-70v1405h70v-684l710 684h86z" />
    <glyph glyph-name="L" unicode="L" horiz-adv-x="1077" 
d="M248 1405v-1339h807v-66h-877v1405h70z" />
    <glyph glyph-name="M" unicode="M" horiz-adv-x="1757" 
d="M879 84l596 1321h106v-1405h-72v1319l-596 -1319h-69l-596 1319v-1319h-70v1405h105z" />
    <glyph glyph-name="N" unicode="N" horiz-adv-x="1394" 
d="M1147 82v1323h70v-1405h-97l-872 1321v-1321h-70v1405h96z" />
    <glyph glyph-name="O" unicode="O" horiz-adv-x="1619" 
d="M811 1421q312 0 518 -200q203 -203 203 -514q0 -316 -203 -519q-204 -204 -518 -204q-317 0 -518 204q-203 203 -203 519q0 311 203 514q203 200 518 200zM811 1356q-283 0 -465 -182q-182 -185 -182 -467q0 -286 182 -471q181 -187 465 -187q282 0 463 187
q182 185 182 471q0 279 -182 464t-463 185z" />
    <glyph glyph-name="P" unicode="P" horiz-adv-x="1167" 
d="M178 1405h500q197 0 314.5 -114t117.5 -304q0 -192 -118 -308t-314 -116h-430v-563h-70v1405zM248 627h426q166 0 264 97t98 261q0 161 -98 257.5t-264 96.5h-426v-712z" />
    <glyph glyph-name="Q" unicode="Q" horiz-adv-x="1622" 
d="M1530 719q0 -243 -135 -424q-136 -183 -357 -242l484 15v-68h-711q-315 0 -518 203q-203 200 -203 512q0 308 203 508q201 198 518 198q312 0 516 -198q203 -200 203 -504zM811 66q282 0 463 184q182 182 182 463t-182 463q-180 180 -463 180q-285 0 -465 -180
q-182 -182 -182 -463t182 -463q181 -184 465 -184z" />
    <glyph glyph-name="R" unicode="R" horiz-adv-x="1263" 
d="M1124 336q0 -260 27 -336h-76q-22 99 -22 332q0 136 -77 216.5t-208 80.5h-520v-629h-70v1405h567q183 0 291.5 -102.5t108.5 -274.5q0 -136 -70.5 -232.5t-195.5 -131.5q116 -29 180 -114t65 -214zM248 690h493q152 0 241 88t89 240q0 148 -89 234.5t-241 86.5h-493
v-649z" />
    <glyph glyph-name="S" unicode="S" horiz-adv-x="1153" 
d="M580 1421q208 0 331.5 -104.5t130.5 -292.5h-71q-7 160 -111 248t-282 88q-174 0 -279.5 -83.5t-105.5 -225.5q-1 -48 14 -87.5t37.5 -68t62 -52.5t75 -38.5t90.5 -29.5t94 -22.5t100.5 -20t95.5 -19.5q139 -32 224 -116t85 -222q0 -177 -135 -285q-132 -106 -358 -106
q-231 0 -365.5 117.5t-140.5 314.5h69q5 -168 121.5 -269.5t317.5 -101.5q190 0 303.5 89t113.5 241q0 74 -30 127.5t-81 85t-116.5 53t-138.5 36t-146 30t-138.5 40.5t-116.5 61t-81 97t-30 144q0 171 125.5 271.5t335.5 100.5z" />
    <glyph glyph-name="T" unicode="T" horiz-adv-x="1107" 
d="M39 1405h1030v-66h-479v-1339h-72v1339h-479v66z" />
    <glyph glyph-name="U" unicode="U" horiz-adv-x="1323" 
d="M1112 1405h72v-879q0 -247 -142 -395q-144 -147 -380 -147q-238 0 -379 147q-144 147 -144 395v879h72v-877q0 -220 122 -349.5t329 -129.5q205 0 327 131q123 129 123 348v877z" />
    <glyph glyph-name="V" unicode="V" horiz-adv-x="1245" 
d="M623 78l522 1327h76l-557 -1405h-82l-557 1405h73z" />
    <glyph glyph-name="W" unicode="W" horiz-adv-x="1814" 
d="M1325 98l383 1307h72l-412 -1405h-78l-383 1307l-383 -1307h-75l-414 1405h74l380 -1309l381 1309h74z" />
    <glyph glyph-name="X" unicode="X" 
d="M686 713l535 -713h-82l-500 666l-498 -666h-82l535 713l-518 692h82l481 -645l483 645h82z" />
    <glyph glyph-name="Y" unicode="Y" horiz-adv-x="1214" 
d="M1110 1405h82l-549 -770v-635h-72v635l-548 770h79l504 -709z" />
    <glyph glyph-name="Z" unicode="Z" horiz-adv-x="1220" 
d="M1128 1343l-954 -1277h954v-66h-1038v61l954 1278h-950v66h1034v-62z" />
    <glyph glyph-name="bracketleft" unicode="[" horiz-adv-x="518" 
d="M487 1563v-54h-264v-1865h264v-54h-327v1973h327z" />
    <glyph glyph-name="backslash" unicode="\" horiz-adv-x="628" 
d="M20 1405h58l530 -1405h-55z" />
    <glyph glyph-name="bracketright" unicode="]" horiz-adv-x="518" 
d="M33 1509v54h325v-1973h-325v54h264v1865h-264z" />
    <glyph glyph-name="asciicircum" unicode="^" horiz-adv-x="561" 
d="M303 1405l174 -342h-47l-149 303l-150 -303h-47l174 342h45z" />
    <glyph glyph-name="underscore" unicode="_" horiz-adv-x="1114" 
d="M86 -190v49h942v-49h-942z" />
    <glyph glyph-name="grave" unicode="`" horiz-adv-x="352" 
d="M6 1405h68l278 -311h-59z" />
    <glyph glyph-name="a" unicode="a" horiz-adv-x="1259" 
d="M1044 725v270h68v-995h-68v270q-60 -134 -181.5 -210t-276.5 -76q-218 0 -363 145q-143 143 -143 369q0 225 143 368q146 146 363 146q155 0 276.5 -76.5t181.5 -210.5zM276 172q126 -129 320 -129q196 0 322 129q126 126 126 326q0 198 -126 327q-127 127 -322 127
q-193 0 -320 -127q-126 -129 -126 -327q0 -200 126 -326z" />
    <glyph glyph-name="b" unicode="b" horiz-adv-x="1259" 
d="M674 1012q216 0 362 -146q144 -144 144 -368q0 -225 -144 -369q-145 -145 -362 -145q-155 0 -277 76t-182 210v-270h-65v1405h65v-680q60 134 182 210.5t277 76.5zM342 172q126 -129 322 -129q195 0 321 129q125 125 125 326q0 199 -125 327q-127 127 -321 127
q-195 0 -322 -127q-127 -130 -127 -327q0 -199 127 -326z" />
    <glyph glyph-name="c" unicode="c" horiz-adv-x="1179" 
d="M1034 399h70q-27 -179 -172 -297q-142 -118 -336 -118q-226 0 -371 145t-145 369t147 368q146 146 369 146q192 0 336 -117q146 -121 172 -299h-70q-26 153 -151 256q-124 100 -285 100q-195 0 -322 -127q-126 -129 -126 -327q0 -200 126 -326q126 -129 322 -129
q164 0 285 100q125 103 151 256z" />
    <glyph glyph-name="d" unicode="d" horiz-adv-x="1259" 
d="M1044 725v680h68v-1405h-68v270q-60 -134 -181.5 -210t-276.5 -76q-218 0 -363 145q-143 143 -143 369q0 225 143 368q146 146 363 146q155 0 276.5 -76.5t181.5 -210.5zM276 172q126 -129 320 -129q196 0 322 129q126 126 126 326q0 198 -126 327q-127 127 -322 127
q-193 0 -320 -127q-126 -129 -126 -327q0 -200 126 -326z" />
    <glyph glyph-name="e" unicode="e" horiz-adv-x="1191" 
d="M1114 500q0 -17 -2 -23h-965q6 -188 134 -313q126 -123 317 -123q155 0 276 92t156 238h70q-41 -172 -178 -279q-141 -108 -326 -108q-226 0 -371 145t-145 369t147 368q146 146 369 146q227 0 371 -144t147 -368zM911 836q-124 118 -313 118q-187 0 -311 -118
q-128 -122 -140 -304h900q-9 183 -136 304z" />
    <glyph glyph-name="f" unicode="f" horiz-adv-x="495" 
d="M399 1360q-61 0 -99 -39t-38 -102v-224h201v-59h-201v-936h-65v936h-154v59h154v224q0 91 55.5 146.5t146.5 55.5q37 0 64 -8v-65q-35 12 -64 12z" />
    <glyph glyph-name="g" unicode="g" horiz-adv-x="1259" 
d="M1044 725v270h68v-934q0 -213 -143 -350t-365 -137q-165 0 -301 86q-133 84 -180 221h70q41 -110 157 -180t252 -70q191 0 318 121q124 118 124 305v222q-60 -134 -181.5 -210.5t-276.5 -76.5q-218 0 -363 145q-143 143 -143 365q0 223 143 366q144 144 363 144
q155 0 276.5 -76.5t181.5 -210.5zM276 176q126 -129 320 -129q196 0 322 129q126 126 126 326q0 198 -126 327q-127 127 -322 127q-193 0 -320 -127q-126 -129 -126 -327q0 -200 126 -326z" />
    <glyph glyph-name="h" unicode="h" horiz-adv-x="1128" 
d="M590 1012q184 0 293.5 -116.5t109.5 -313.5v-582h-67v578q0 173 -96 275.5t-257 102.5q-164 0 -261 -102.5t-97 -275.5v-578h-65v1405h65v-635q44 116 142 179t233 63z" />
    <glyph glyph-name="i" unicode="i" horiz-adv-x="346" 
d="M129 1292q28 28 65 11.5t37 -54.5q0 -59 -59 -59q-38 0 -54.5 37t11.5 65zM207 0h-66v995h66v-995z" />
    <glyph glyph-name="j" unicode="j" horiz-adv-x="346" 
d="M129 1292q28 28 65 11.5t37 -54.5q0 -59 -59 -59q-38 0 -54.5 37t11.5 65zM207 -410h-66v1405h66v-1405z" />
    <glyph glyph-name="k" unicode="k" horiz-adv-x="907" 
d="M766 995h84l-569 -481l569 -514h-84l-551 496v-496h-65v1405h65v-877z" />
    <glyph glyph-name="l" unicode="l" horiz-adv-x="364" 
d="M150 0v1405h65v-1405h-65z" />
    <glyph glyph-name="m" unicode="m" horiz-adv-x="1671" 
d="M1194 1012q159 0 249.5 -98.5t90.5 -270.5v-643h-68v637q0 150 -76.5 233.5t-215.5 83.5q-140 0 -220 -84t-80 -233v-637h-67v637q0 150 -77 233.5t-216 83.5q-140 0 -219.5 -84t-79.5 -233v-637h-65v995h65v-178q83 195 322 195q125 0 207.5 -61.5t111.5 -176.5
q36 114 123 176t215 62z" />
    <glyph glyph-name="n" unicode="n" horiz-adv-x="1128" 
d="M590 1012q184 0 293.5 -116.5t109.5 -313.5v-582h-67v578q0 173 -96 275.5t-257 102.5q-164 0 -261 -102.5t-97 -275.5v-578h-65v995h65v-225q44 116 142 179t233 63z" />
    <glyph glyph-name="o" unicode="o" horiz-adv-x="1193" 
d="M596 1012q224 0 373 -146q145 -145 145 -368q0 -224 -145 -369q-148 -145 -373 -145q-226 0 -371 145t-145 369t147 368q146 146 369 146zM918 825q-127 127 -322 127q-193 0 -320 -127q-126 -129 -126 -327q0 -200 126 -326q126 -129 320 -129q196 0 322 129
q126 126 126 326q0 198 -126 327z" />
    <glyph glyph-name="p" unicode="p" horiz-adv-x="1259" 
d="M674 1012q216 0 362 -146q144 -144 144 -368q0 -225 -144 -369q-145 -145 -362 -145q-155 0 -277 76t-182 210v-680h-65v1405h65v-270q60 134 182 210.5t277 76.5zM342 172q126 -129 322 -129q195 0 321 129q125 125 125 326q0 199 -125 327q-127 127 -321 127
q-195 0 -322 -127q-127 -130 -127 -327q0 -199 127 -326z" />
    <glyph glyph-name="q" unicode="q" horiz-adv-x="1259" 
d="M1044 725v270h68v-1405h-68v680q-60 -134 -181.5 -210t-276.5 -76q-218 0 -363 145q-143 143 -143 369q0 225 143 368q146 146 363 146q155 0 276.5 -76.5t181.5 -210.5zM276 172q126 -129 320 -129q196 0 322 129q126 126 126 326q0 198 -126 327q-127 127 -322 127
q-193 0 -320 -127q-126 -129 -126 -327q0 -200 126 -326z" />
    <glyph glyph-name="r" unicode="r" horiz-adv-x="632" 
d="M215 995v-258q92 277 408 277v-68q-196 0 -302 -110t-106 -314v-522h-65v995h65z" />
    <glyph glyph-name="s" unicode="s" horiz-adv-x="917" 
d="M219 942q91 70 242 70q149 0 241 -74q93 -75 93 -193h-66q0 94 -73.5 152.5t-194.5 58.5t-193.5 -54t-72.5 -142q0 -62 20 -100.5t66 -61.5q47 -25 83 -36.5t109 -24.5q181 -40 244 -80q99 -65 102 -199q0 -123 -98.5 -198.5t-257.5 -75.5t-258.5 76.5t-104.5 201.5h66
q2 -100 84.5 -162.5t212.5 -62.5q129 0 209 60.5t80 158.5q-8 76 -35.5 116.5t-91.5 63.5q-11 3 -76 25q-24 5 -92 18q-107 19 -181 49q-48 19 -79 50q-70 66 -70 178q0 115 92 186z" />
    <glyph glyph-name="t" unicode="t" horiz-adv-x="550" 
d="M289 995h231v-59h-231v-936h-66v936h-186v59h186v250h66v-250z" />
    <glyph glyph-name="u" unicode="u" horiz-adv-x="1110" 
d="M905 995h66v-585q0 -195 -113 -310.5t-303 -115.5t-303 115.5t-113 310.5v585h66v-585q0 -168 95.5 -268.5t254.5 -100.5t254.5 100.5t95.5 268.5v585z" />
    <glyph glyph-name="v" unicode="v" horiz-adv-x="966" 
d="M483 72l387 923h74l-420 -995h-80l-421 995h73z" />
    <glyph glyph-name="w" unicode="w" horiz-adv-x="1544" 
d="M1124 63l314 932h71l-338 -995h-88l-311 901l-309 -901h-90l-338 995h71l316 -932l315 932h72z" />
    <glyph glyph-name="x" unicode="x" horiz-adv-x="1083" 
d="M590 498l436 -498h-80l-403 459l-406 -459h-80l439 498l-437 497h80l404 -456l403 456h80z" />
    <glyph glyph-name="y" unicode="y" horiz-adv-x="980" 
d="M492 193l395 802h71l-690 -1394h-73l264 524l-436 870h73z" />
    <glyph glyph-name="z" unicode="z" horiz-adv-x="1028" 
d="M954 942l-794 -883h796v-59h-884v53l796 883h-794v59h880v-53z" />
    <glyph glyph-name="braceleft" unicode="{" horiz-adv-x="499" 
d="M242 1303v-633q0 -65 -60 -90q60 -28 60 -93v-641q0 -98 62 -161.5t159 -63.5v-47q-128 0 -205.5 75t-77.5 197v641q0 66 -61 66v53q61 0 61 64v633q0 122 77.5 198t205.5 76v-49q-97 0 -159 -63.5t-62 -161.5z" />
    <glyph glyph-name="bar" unicode="|" horiz-adv-x="454" 
d="M199 -410v2048h57v-2048h-57z" />
    <glyph glyph-name="braceright" unicode="}" horiz-adv-x="499" 
d="M319 1303v-633q0 -64 62 -64v-53q-62 0 -62 -66v-641q0 -120 -78 -196t-204 -76v47q96 0 157.5 63t61.5 162v641q0 66 59 93q-59 24 -59 90v633q0 99 -61.5 162t-157.5 63v49q127 0 204.5 -76t77.5 -198z" />
    <glyph glyph-name="asciitilde" unicode="~" horiz-adv-x="854" 
d="M102 578v55q83 45 177 45q64 0 149 -31q79 -33 147 -33q99 0 179 45v-55q-86 -45 -181 -45q-68 0 -147 33q-85 31 -150 31q-100 0 -174 -45z" />
    <glyph glyph-name="exclamdown" unicode="&#xa1;" horiz-adv-x="448" 
d="M270 901q-19 -19 -47 -19t-45 19q-17 17 -17 45t19 47q17 17 43 17t45 -17q19 -19 19 -47t-17 -45zM256 774l6 -1182h-78l9 1182h63z" />
    <glyph glyph-name="cent" unicode="&#xa2;" horiz-adv-x="1179" 
d="M598 43q164 0 285 100q125 103 151 256h70q-26 -172 -164 -288q-136 -118 -317 -127v-142h-54v142q-214 9 -352 153q-137 143 -137 361q0 217 137 360q140 143 352 152v143h54v-143q182 -9 317 -123q138 -119 164 -291h-70q-26 153 -151 256q-124 100 -285 100
q-195 0 -322 -127q-126 -129 -126 -327q0 -200 126 -326q126 -129 322 -129z" />
    <glyph glyph-name="sterling" unicode="&#xa3;" horiz-adv-x="1193" 
d="M213 66h881v-66h-1010v70q62 0 99.5 38.5t37.5 104.5v371h-137v55h137v139q0 279 185 461q182 182 462 182q81 0 152 -14v-70q-87 19 -152 19q-247 0 -411 -164t-164 -414v-139h631v-55h-631v-369q0 -102 -80 -149z" />
    <glyph glyph-name="currency" unicode="&#xa4;" horiz-adv-x="946" 
d="M864 608q0 -154 -96 -264l98 -98l-28 -29l-99 98q-110 -96 -266 -96q-154 0 -264 96l-98 -98l-29 29l98 98q-98 107 -98 264q0 159 98 266l-98 99l29 28l98 -98q110 96 264 96q156 0 266 -96l99 98l28 -28l-98 -99q96 -110 96 -266zM473 270q145 0 242 97q96 96 96 241
q0 148 -96 244t-242 96t-242 -96t-96 -244q0 -145 96 -241q97 -97 242 -97z" />
    <glyph glyph-name="yen" unicode="&#xa5;" horiz-adv-x="1249" 
d="M1128 1405h80l-520 -727h344v-51h-813v51h342l-520 727h80l504 -709zM588 432h-369v49h813v-49h-373v-432h-71v432z" />
    <glyph glyph-name="brokenbar" unicode="&#xa6;" horiz-adv-x="454" 
d="M256 872h-57v766h57v-766zM256 -410h-57v768h57v-768z" />
    <glyph glyph-name="section" unicode="&#xa7;" horiz-adv-x="1187" 
d="M1087 375q0 -144 -96 -248q53 -74 53 -182q0 -170 -125 -270.5t-335 -100.5q-201 0 -326 98q-128 101 -131 260h72q4 -135 109.5 -216t275.5 -81q177 0 282 84t105 226q0 73 -30 125.5t-81 83t-117 51.5t-139 35.5t-145.5 30.5t-138.5 41.5t-117 62.5t-81 99.5t-30 146.5
q0 146 94 247q-53 74 -53 181q0 169 127 272q124 100 334 100q203 0 328 -98q126 -99 129 -260h-70q-4 133 -110.5 214t-276.5 81q-177 0 -282 -83.5t-105 -225.5q0 -66 24.5 -115.5t67 -79t98.5 -52.5t119.5 -35.5t130.5 -28t130.5 -30t119.5 -41.5t98.5 -63t67 -94.5
t24.5 -134.5zM160 618q0 -53 15 -95.5t45.5 -73t65.5 -53t86 -39.5t94 -27t103 -21q276 -51 377 -135q74 89 74 203q0 63 -24 112t-59.5 80t-93.5 55t-108.5 36.5t-122.5 25.5q-281 52 -381 135q-71 -83 -71 -203z" />
    <glyph glyph-name="dieresis" unicode="&#xa8;" horiz-adv-x="331" 
d="M94 1262q25 -23 10.5 -57t-49.5 -34q-34 0 -48 26.5t0 52.5t48 26q25 0 39 -14zM317 1262q25 -23 10 -57t-51 -34q-24 0 -38.5 15t-14.5 39q0 51 53 51q27 0 41 -14z" />
    <glyph glyph-name="copyright" unicode="&#xa9;" horiz-adv-x="1642" 
d="M305 1221q203 200 516 200q312 0 518 -200q203 -203 203 -514q0 -316 -203 -519q-204 -204 -518 -204q-315 0 -516 204q-205 202 -205 519q0 312 205 514zM1298 1182q-186 186 -477 186q-289 0 -475 -186q-188 -188 -188 -475q0 -294 188 -482q187 -190 475 -190
q290 0 477 190q187 187 187 482q0 288 -187 475zM1249 606h68q-26 -172 -166 -287q-136 -112 -324 -112q-218 0 -356 141q-141 138 -141 354t141 357q139 139 356 139q187 0 324 -113q140 -115 166 -286h-68q-27 152 -145 245q-123 97 -277 97q-189 0 -309 -123
q-123 -126 -123 -316t123 -313q119 -125 309 -125q153 0 275 96q120 94 147 246z" />
    <glyph glyph-name="ordfeminine" unicode="&#xaa;" horiz-adv-x="808" 
d="M680 1249v156h53v-645h-53v162q-43 -82 -120 -128t-175 -46q-142 0 -235 96q-95 95 -95 241q0 147 95 242q91 94 235 94q97 0 174.5 -46t120.5 -126zM397 797q123 0 203 81.5t80 206.5t-80 206t-203 81q-124 0 -204 -81t-80 -206q0 -127 79.5 -207.5t204.5 -80.5z" />
    <glyph glyph-name="guillemotleft" unicode="&#xab;" horiz-adv-x="815" 
d="M645 936h66l-287 -416l287 -414h-66l-287 414zM362 936h64l-287 -416l287 -414h-64l-288 414z" />
    <glyph glyph-name="logicalnot" unicode="&#xac;" horiz-adv-x="919" 
d="M102 692v49h686v-299h-53v250h-633z" />
    <glyph glyph-name="registered" unicode="&#xae;" horiz-adv-x="1642" 
d="M305 1221q203 200 516 200q312 0 518 -200q203 -203 203 -514q0 -316 -203 -519q-204 -204 -518 -204q-315 0 -516 204q-205 202 -205 519q0 312 205 514zM346 225q187 -190 475 -190q290 0 477 190q187 187 187 482q0 288 -187 475q-186 186 -477 186q-289 0 -475 -186
q-188 -188 -188 -475q0 -294 188 -482zM895 662h-8l299 -433h-64l-297 433h-245v-433h-56v953h371q125 0 198.5 -70t73.5 -188q0 -119 -74 -190.5t-198 -71.5zM887 1135h-307v-428h307q102 0 161.5 58.5t59.5 158.5q0 97 -59.5 154t-161.5 57z" />
    <glyph glyph-name="overscore" unicode="&#xaf;" horiz-adv-x="544" 
d="M0 1204v49h545v-49h-545z" />
    <glyph glyph-name="degree" unicode="&#xb0;" horiz-adv-x="692" 
d="M158 1348q74 71 188 71q115 0 189 -71q73 -70 73 -183q0 -112 -73 -182q-77 -74 -189 -74t-186 74q-76 70 -76 182t74 183zM506 1321q-65 59 -160 59t-160 -59q-63 -60 -63 -156q0 -95 63 -155q65 -62 160 -62t160 62q63 60 63 155q0 96 -63 156z" />
    <glyph glyph-name="plusminus" unicode="&#xb1;" horiz-adv-x="907" 
d="M479 956v-313h324v-49h-324v-232h-51v232h-324v49h324v313h51zM803 229h-699v50h699v-50z" />
    <glyph glyph-name="uni00B2" unicode="&#xb2;" horiz-adv-x="808" 
d="M145 936h603v-51h-672v10q0 110 67 197q21 30 80 73q65 47 84 58q76 42 94 53q142 75 206.5 139.5t64.5 151.5q0 92 -72.5 151.5t-183.5 59.5q-107 0 -178.5 -58t-81.5 -159h-60q10 124 98 196t224 72q137 0 225 -71.5t88 -186.5q0 -102 -69 -176t-218 -156
q-169 -91 -227 -149q-69 -69 -72 -154z" />
    <glyph glyph-name="uni00B3" unicode="&#xb3;" horiz-adv-x="864" 
d="M522 1376q118 -20 189 -87.5t71 -158.5q0 -112 -98 -182q-103 -74 -254 -74q-156 0 -256.5 79.5t-101.5 209.5h63q1 -108 83 -172.5t212 -64.5q124 0 206.5 60t82.5 151q0 95 -85.5 155t-223.5 60h-50v45h50q123 0 198.5 53t75.5 139q0 82 -72 136.5t-182 54.5
q-116 0 -188.5 -60t-73.5 -159h-57q1 123 89 195.5t230 72.5q136 0 224.5 -66t88.5 -166q0 -81 -60.5 -141t-160.5 -80z" />
    <glyph glyph-name="acute" unicode="&#xb4;" horiz-adv-x="346" 
d="M0 1094l276 311h70l-287 -311h-59z" />
    <glyph glyph-name="paragraph" unicode="&#xb6;" horiz-adv-x="905" 
d="M444 1405h265v-1610h-56v1559h-102v-1559h-53v1022h-54q-140 0 -223.5 81t-83.5 216q0 133 83.5 212t223.5 79z" />
    <glyph glyph-name="middot" unicode="&#xb7;" horiz-adv-x="253" 
d="M82 715q29 29 68.5 11.5t39.5 -58.5q0 -29 -17 -46.5t-46 -17.5q-40 0 -57 40t12 71z" />
    <glyph glyph-name="cedilla" unicode="&#xb8;" horiz-adv-x="184" 
d="M45 -63q63 0 101 -39t38 -101q0 -60 -39 -98.5t-100 -38.5q-27 0 -45 6v37q21 -6 43 -6q41 0 69.5 28.5t28.5 71.5t-28 72t-70 29q-19 0 -43 -7v39q21 7 45 7z" />
    <glyph glyph-name="uni00B9" unicode="&#xb9;" horiz-adv-x="534" 
d="M307 1819h51v-934h-59v809q-65 -99 -229 -99v56q103 0 170 47.5t67 120.5z" />
    <glyph glyph-name="ordmasculine" unicode="&#xba;" horiz-adv-x="788" 
d="M393 1421q150 0 244 -94q96 -96 96 -242q0 -145 -96 -241t-244 -96q-145 0 -241 96q-97 97 -97 241q0 145 97 242q94 94 241 94zM393 1372q-121 0 -200.5 -82t-79.5 -207q0 -124 79 -205t201 -81q123 0 203 81t80 205q0 125 -80 207t-203 82z" />
    <glyph glyph-name="guillemotright" unicode="&#xbb;" horiz-adv-x="815" 
d="M389 936h64l288 -416l-288 -414h-64l287 414zM104 936h64l289 -416l-289 -414h-64l287 414z" />
    <glyph glyph-name="onequarter" unicode="&#xbc;" horiz-adv-x="1660" 
d="M358 1405v-934h-59v809q-64 -98 -229 -98v55q103 0 170 47.5t67 120.5h51zM303 0l809 1405h57l-809 -1405h-57zM1458 285h191v-54h-191v-231h-61v231h-543v50l530 653h74v-649zM1397 285v581l-477 -581h477z" />
    <glyph glyph-name="onehalf" unicode="&#xbd;" horiz-adv-x="1736" 
d="M358 1405v-934h-59v809q-64 -98 -229 -98v55q103 0 170 47.5t67 120.5h51zM303 0l809 1405h57l-809 -1405h-57zM1073 51h602v-51h-671v10q0 110 67 197q22 32 80 74q59 43 84 57q77 42 94 53q141 75 205.5 139.5t64.5 151.5q0 92 -72.5 151.5t-183.5 59.5
q-107 0 -178.5 -58t-81.5 -159h-59q10 124 98 196t224 72q137 0 225 -71.5t88 -186.5q0 -102 -69 -176t-218 -156q-169 -91 -227 -149q-69 -69 -72 -154z" />
    <glyph glyph-name="threequarters" unicode="&#xbe;" horiz-adv-x="1986" 
d="M782 717q0 -112 -98 -182q-103 -74 -254 -74q-156 0 -256.5 79.5t-101.5 209.5h63q1 -108 83 -173t212 -65q124 0 206.5 60t82.5 151q0 95 -85.5 155t-223.5 60h-50v45h50q123 0 198.5 53.5t75.5 139.5q0 82 -72 136t-182 54q-116 0 -188.5 -60t-73.5 -159h-57
q1 123 89 195.5t230 72.5q136 0 224.5 -65.5t88.5 -165.5q0 -81 -60.5 -141t-160.5 -80q118 -20 189 -87.5t71 -158.5zM629 0l809 1405h57l-809 -1405h-57zM1784 285h190v-54h-190v-231h-62v231h-542v50l530 653h74v-649zM1722 285v581l-477 -581h477z" />
    <glyph glyph-name="questiondown" unicode="&#xbf;" horiz-adv-x="1054" 
d="M571 899q-29 -30 -68.5 -13.5t-39.5 58.5q0 41 39.5 58t68.5 -11q17 -19 17 -47t-17 -45zM907 -2h68q0 -184 -127 -305q-125 -119 -322 -119q-194 0 -319 119q-127 121 -127 303q0 174 117 291q118 118 299 127l2 358h61l2 -410h-10q-178 0 -289 -102
q-112 -100 -112 -262q0 -159 106 -262q109 -103 270 -103q164 0 273 103q105 102 108 262z" />
    <glyph glyph-name="Agrave" unicode="&#xc0;" horiz-adv-x="1292" 
d="M406 1815l276 -312h-59l-287 312h70zM1274 0h-76l-168 403h-768l-166 -403h-76l584 1405h84zM647 1329l-358 -864h717z" />
    <glyph glyph-name="Aacute" unicode="&#xc1;" horiz-adv-x="1292" 
d="M889 1815h69l-286 -312h-60zM1274 0h-76l-168 403h-768l-166 -403h-76l584 1405h84zM647 1329l-358 -864h717z" />
    <glyph glyph-name="Acircumflex" unicode="&#xc2;" horiz-adv-x="1292" 
d="M899 1503l-254 277l-254 -277h-59l278 312h68h4l276 -312h-59zM1274 0h-76l-168 403h-768l-166 -403h-76l584 1405h84zM647 1329l-358 -864h717z" />
    <glyph glyph-name="Atilde" unicode="&#xc3;" horiz-adv-x="1292" 
d="M487 1729q-60 0 -101.5 -60.5t-41.5 -150.5h-45q0 115 54 188.5t136 73.5q44 0 80 -23t61.5 -56t50 -66t56.5 -56t70 -23q62 0 102.5 57.5t40.5 145.5h45q0 -113 -53 -184.5t-137 -71.5q-44 0 -80.5 23.5t-62.5 56.5t-50.5 66t-56.5 56.5t-68 23.5zM1274 0h-76l-168 403
h-768l-166 -403h-76l584 1405h84zM647 1329l-358 -864h717z" />
    <glyph glyph-name="Adieresis" unicode="&#xc4;" horiz-adv-x="1292" 
d="M537 1581q-34 0 -48 26.5t0 52.5t48 26q33 0 46.5 -26t0 -52.5t-46.5 -26.5zM799 1597q-28 -27 -61 -12.5t-33 49.5q0 52 53 52q37 0 51.5 -32t-10.5 -57zM1274 0h-76l-168 403h-768l-166 -403h-76l584 1405h84zM647 1329l-358 -864h717z" />
    <glyph glyph-name="Aring" unicode="&#xc5;" horiz-adv-x="1292" 
d="M1274 0h-76l-168 403h-768l-166 -403h-76l572 1372q-68 17 -109 71.5t-41 127.5q0 88 57.5 145.5t147.5 57.5q91 0 148 -56t57 -147q0 -74 -41 -128t-109 -71zM492 1571q0 -68 44 -113t111 -45t112.5 45.5t45.5 112.5q0 66 -45.5 110.5t-112.5 44.5t-111 -44.5
t-44 -110.5zM647 1329l-358 -864h717z" />
    <glyph glyph-name="AE" unicode="&#xc6;" horiz-adv-x="1761" 
d="M1669 1405v-66h-954l248 -594h628v-63h-602l258 -616h422v-66h-450h-21l-168 403h-768l-166 -403h-76l584 1405h84h981zM647 1329l-358 -864h717z" />
    <glyph glyph-name="Ccedilla" unicode="&#xc7;" horiz-adv-x="1599" 
d="M1442 553h74q-47 -256 -240 -412q-195 -157 -465 -157q-317 0 -518 204q-203 203 -203 519q0 311 203 514q203 200 518 200q273 0 465 -155q193 -156 240 -406h-74q-50 221 -219 359q-171 137 -412 137q-283 0 -465 -182q-182 -185 -182 -467q0 -286 182 -471
q181 -187 465 -187q240 0 414 139q170 139 217 365zM797 -66q63 0 101 -38.5t38 -100.5t-38 -99.5t-101 -37.5q-27 0 -45 6v37q21 -6 43 -6q41 0 69.5 28.5t28.5 71.5q0 44 -28 72.5t-70 28.5q-19 0 -43 -7v39q18 6 45 6z" />
    <glyph glyph-name="Egrave" unicode="&#xc8;" horiz-adv-x="1189" 
d="M412 1815l276 -312h-59l-287 312h70zM1098 1405v-66h-850v-594h772v-63h-772v-616h850v-66h-920v1405h920z" />
    <glyph glyph-name="Eacute" unicode="&#xc9;" horiz-adv-x="1189" 
d="M893 1815h70l-287 -312h-60zM1098 1405v-66h-850v-594h772v-63h-772v-616h850v-66h-920v1405h920z" />
    <glyph glyph-name="Ecircumflex" unicode="&#xca;" horiz-adv-x="1189" 
d="M905 1503l-254 277l-254 -277h-59l278 312h68h4l277 -312h-60zM1098 1405v-66h-850v-594h772v-63h-772v-616h850v-66h-920v1405h920z" />
    <glyph glyph-name="Edieresis" unicode="&#xcb;" horiz-adv-x="1189" 
d="M541 1581q-34 0 -48 26.5t0 52.5t48 26q33 0 46.5 -26t0 -52.5t-46.5 -26.5zM803 1597q-28 -27 -61 -12.5t-33 49.5q0 52 53 52q37 0 51.5 -32t-10.5 -57zM1098 1405v-66h-850v-594h772v-63h-772v-616h850v-66h-920v1405h920z" />
    <glyph glyph-name="Igrave" unicode="&#xcc;" horiz-adv-x="425" 
d="M-98 1815h69l277 -312h-60zM178 1405h70v-1405h-70v1405z" />
    <glyph glyph-name="Iacute" unicode="&#xcd;" horiz-adv-x="425" 
d="M178 1503l277 312h69l-286 -312h-60zM178 1405h70v-1405h-70v1405z" />
    <glyph glyph-name="Icircumflex" unicode="&#xce;" horiz-adv-x="425" 
d="M244 1815h4l276 -312h-59l-254 277l-254 -277h-59l278 312h68zM248 0h-70v1405h70v-1405z" />
    <glyph glyph-name="Idieresis" unicode="&#xcf;" horiz-adv-x="425" 
d="M141 1671q25 -23 10.5 -56.5t-49.5 -33.5q-34 0 -48 26.5t0 52.5t48 26q24 0 39 -15zM365 1671q25 -23 10 -56.5t-51 -33.5q-24 0 -39 14.5t-15 38.5q0 52 54 52q26 0 41 -15zM178 1405h70v-1405h-70v1405z" />
    <glyph glyph-name="Eth" unicode="&#xd0;" horiz-adv-x="1366" 
d="M178 1405h379q323 0 522 -193t199 -505q0 -319 -199 -512q-201 -195 -522 -195h-379v682h-168v51h168v672zM248 66h309q291 0 469 178q178 175 178 465q0 281 -178 456q-177 174 -469 174h-309v-606h307v-51h-307v-616z" />
    <glyph glyph-name="Ntilde" unicode="&#xd1;" horiz-adv-x="1394" 
d="M539 1729q-60 0 -102 -60.5t-42 -150.5h-45q0 115 54.5 188.5t136.5 73.5q37 0 69 -16.5t53 -41.5t44 -54t43 -54t48 -41.5t60 -16.5q62 0 102.5 57.5t40.5 145.5h46q0 -113 -53 -184.5t-138 -71.5q-44 0 -80.5 23.5t-62 56.5t-50 66t-56.5 56.5t-68 23.5zM1147 82v1323
h70v-1405h-97l-872 1321v-1321h-70v1405h96z" />
    <glyph glyph-name="Ograve" unicode="&#xd2;" horiz-adv-x="1619" 
d="M500 1815h69l277 -312h-60zM811 1421q312 0 518 -200q203 -203 203 -514q0 -316 -203 -519q-204 -204 -518 -204q-317 0 -518 204q-203 203 -203 519q0 311 203 514q203 200 518 200zM811 1356q-283 0 -465 -182q-182 -185 -182 -467q0 -286 182 -471q181 -187 465 -187
q282 0 463 187q182 185 182 471q0 279 -182 464t-463 185z" />
    <glyph glyph-name="Oacute" unicode="&#xd3;" horiz-adv-x="1619" 
d="M774 1503l277 312h69l-286 -312h-60zM811 1421q312 0 518 -200q203 -203 203 -514q0 -316 -203 -519q-204 -204 -518 -204q-317 0 -518 204q-203 203 -203 519q0 311 203 514q203 200 518 200zM811 1356q-283 0 -465 -182q-182 -185 -182 -467q0 -286 182 -471
q181 -187 465 -187q282 0 463 187q182 185 182 471q0 279 -182 464t-463 185z" />
    <glyph glyph-name="Ocircumflex" unicode="&#xd4;" horiz-adv-x="1619" 
d="M1063 1503l-254 277l-254 -277h-59l278 312h68h4l276 -312h-59zM811 1421q312 0 518 -200q203 -203 203 -514q0 -316 -203 -519q-204 -204 -518 -204q-317 0 -518 204q-203 203 -203 519q0 311 203 514q203 200 518 200zM811 49q282 0 463 187q182 185 182 471
q0 279 -182 464t-463 185q-283 0 -465 -182q-182 -185 -182 -467q0 -286 182 -471q181 -187 465 -187z" />
    <glyph glyph-name="Otilde" unicode="&#xd5;" horiz-adv-x="1619" 
d="M653 1780q44 0 80 -23t61.5 -56t50 -66t56.5 -56t70 -23q62 0 102.5 57.5t40.5 145.5h45q0 -113 -53 -184.5t-137 -71.5q-44 0 -80.5 23.5t-62.5 56.5t-50.5 66t-56.5 56.5t-68 23.5q-60 0 -101.5 -60.5t-41.5 -150.5h-45q0 115 54 188.5t136 73.5zM811 1421
q312 0 518 -200q203 -203 203 -514q0 -316 -203 -519q-204 -204 -518 -204q-317 0 -518 204q-203 203 -203 519q0 311 203 514q203 200 518 200zM811 1356q-283 0 -465 -182q-182 -185 -182 -467q0 -286 182 -471q181 -187 465 -187q282 0 463 187q182 185 182 471
q0 279 -182 464t-463 185z" />
    <glyph glyph-name="Odieresis" unicode="&#xd6;" horiz-adv-x="1619" 
d="M739 1671q25 -23 10.5 -56.5t-49.5 -33.5q-34 0 -48 26.5t0 52.5t48 26q24 0 39 -15zM963 1671q25 -23 10 -56.5t-51 -33.5q-24 0 -39 14.5t-15 38.5q0 52 54 52q26 0 41 -15zM811 1421q312 0 518 -200q203 -203 203 -514q0 -316 -203 -519q-204 -204 -518 -204
q-317 0 -518 204q-203 203 -203 519q0 311 203 514q203 200 518 200zM811 1356q-283 0 -465 -182q-182 -185 -182 -467q0 -286 182 -471q181 -187 465 -187q282 0 463 187q182 185 182 471q0 279 -182 464t-463 185z" />
    <glyph glyph-name="multiply" unicode="&#xd7;" horiz-adv-x="788" 
d="M651 909l35 -35l-258 -256l258 -256l-35 -34l-258 258l-258 -258l-31 34l256 256l-256 259l33 32l258 -256z" />
    <glyph glyph-name="Oslash" unicode="&#xd8;" horiz-adv-x="1622" 
d="M1524 1507l-221 -266q229 -201 229 -534q0 -316 -203 -519q-204 -204 -518 -204q-257 0 -440 137l-185 -223h-69l213 256q-240 206 -240 553q0 311 203 514q203 200 518 200q259 0 451 -145l192 231h70zM164 707q0 -313 211 -500l842 1016q-174 133 -406 133
q-283 0 -465 -182q-182 -185 -182 -467zM811 49q282 0 463 187q182 185 182 471q0 294 -199 481l-841 -1014q165 -125 395 -125z" />
    <glyph glyph-name="Ugrave" unicode="&#xd9;" horiz-adv-x="1323" 
d="M350 1815h70l276 -312h-59zM1112 1405h72v-879q0 -247 -142 -395q-144 -147 -380 -147q-238 0 -379 147q-144 147 -144 395v879h72v-877q0 -220 122 -349.5t329 -129.5q205 0 327 131q123 129 123 348v877z" />
    <glyph glyph-name="Uacute" unicode="&#xda;" horiz-adv-x="1323" 
d="M627 1503l276 312h70l-287 -312h-59zM1112 1405h72v-879q0 -247 -142 -395q-144 -147 -380 -147q-238 0 -379 147q-144 147 -144 395v879h72v-877q0 -220 122 -349.5t329 -129.5q205 0 327 131q123 129 123 348v877z" />
    <glyph glyph-name="Ucircumflex" unicode="&#xdb;" horiz-adv-x="1323" 
d="M913 1503l-254 277l-253 -277h-60l279 312h67h4l277 -312h-60zM1112 528v877h72v-879q0 -247 -142 -395q-144 -147 -380 -147q-238 0 -379 147q-144 147 -144 395v879h72v-877q0 -220 122 -349.5t329 -129.5q205 0 327 131q123 129 123 348z" />
    <glyph glyph-name="Udieresis" unicode="&#xdc;" horiz-adv-x="1323" 
d="M590 1671q25 -23 10.5 -56.5t-49.5 -33.5q-34 0 -48 26.5t0 52.5t48 26q24 0 39 -15zM813 1671q25 -23 10 -56.5t-51 -33.5q-24 0 -38.5 14.5t-14.5 38.5q0 52 53 52q26 0 41 -15zM1112 1405h72v-879q0 -247 -142 -395q-144 -147 -380 -147q-238 0 -379 147
q-144 147 -144 395v879h72v-877q0 -220 122 -349.5t329 -129.5q205 0 327 131q123 129 123 348v877z" />
    <glyph glyph-name="Yacute" unicode="&#xdd;" horiz-adv-x="1214" 
d="M848 1815h70l-287 -312h-60zM1110 1405h82l-549 -770v-635h-72v635l-548 770h79l504 -709z" />
    <glyph glyph-name="Thorn" unicode="&#xde;" horiz-adv-x="1126" 
d="M248 1110h411q182 0 291 -105.5t109 -279.5q0 -179 -108.5 -285t-291.5 -106h-411v-334h-70v1405h70v-295zM248 397h407q152 0 241 89t89 239q0 146 -90.5 234t-239.5 88h-407v-650z" />
    <glyph glyph-name="germandbls" unicode="&#xdf;" horiz-adv-x="1048" 
d="M674 743q134 -29 214.5 -131.5t80.5 -244.5q0 -167 -111 -275t-283 -108q-106 0 -194 49v65q79 -55 190 -55q144 0 238 94q92 92 92 236q0 147 -94 241q-95 95 -240 95v57q111 8 184.5 93t73.5 208q0 128 -86 211q-90 84 -219 84q-133 0 -219 -90t-86 -230v-1042h-65
v1047q0 163 104 270q104 104 266 104q161 0 268 -98t107 -250q0 -116 -60.5 -205.5t-160.5 -124.5z" />
    <glyph glyph-name="agrave" unicode="&#xe0;" horiz-adv-x="1259" 
d="M358 1405l277 -311h-60l-286 311h69zM1044 725v270h68v-995h-68v270q-60 -134 -181.5 -210t-276.5 -76q-218 0 -363 145q-143 143 -143 369q0 225 143 368q146 146 363 146q155 0 276.5 -76.5t181.5 -210.5zM276 172q126 -129 320 -129q196 0 322 129q126 126 126 326
q0 198 -126 327q-127 127 -322 127q-193 0 -320 -127q-126 -129 -126 -327q0 -200 126 -326z" />
    <glyph glyph-name="aacute" unicode="&#xe1;" horiz-adv-x="1259" 
d="M842 1405h69l-286 -311h-60zM1044 725v270h68v-995h-68v270q-60 -134 -181.5 -210t-276.5 -76q-218 0 -363 145q-143 143 -143 369q0 225 143 368q146 146 363 146q155 0 276.5 -76.5t181.5 -210.5zM276 172q126 -129 320 -129q196 0 322 129q126 126 126 326
q0 198 -126 327q-127 127 -322 127q-193 0 -320 -127q-126 -129 -126 -327q0 -200 126 -326z" />
    <glyph glyph-name="acircumflex" unicode="&#xe2;" horiz-adv-x="1259" 
d="M852 1094l-254 276l-254 -276h-59l278 311h68h4l276 -311h-59zM1044 725v270h68v-995h-68v270q-60 -134 -181.5 -210t-276.5 -76q-218 0 -363 145q-143 143 -143 369q0 225 143 368q146 146 363 146q155 0 276.5 -76.5t181.5 -210.5zM276 172q126 -129 320 -129
q196 0 322 129q126 126 126 326q0 198 -126 327q-127 127 -322 127q-193 0 -320 -127q-126 -129 -126 -327q0 -200 126 -326z" />
    <glyph glyph-name="atilde" unicode="&#xe3;" horiz-adv-x="1259" 
d="M440 1319q-60 0 -101.5 -60.5t-41.5 -150.5h-45q0 115 54 188.5t136 73.5q44 0 80 -23t61.5 -56t50 -65.5t56.5 -55.5t70 -23q62 0 102.5 57.5t40.5 145.5h45q0 -113 -53 -184.5t-137 -71.5q-37 0 -69 16.5t-54 41.5t-45.5 54.5t-43 54.5t-47.5 41.5t-59 16.5zM1044 725
v270h68v-995h-68v270q-60 -134 -181.5 -210t-276.5 -76q-218 0 -363 145q-143 143 -143 369q0 225 143 368q146 146 363 146q155 0 276.5 -76.5t181.5 -210.5zM276 172q126 -129 320 -129q196 0 322 129q126 126 126 326q0 198 -126 327q-127 127 -322 127q-193 0 -320 -127
q-126 -129 -126 -327q0 -200 126 -326z" />
    <glyph glyph-name="adieresis" unicode="&#xe4;" horiz-adv-x="1259" 
d="M489 1171q-34 0 -48 26.5t0 52.5t48 26q33 0 46.5 -26t0 -52.5t-46.5 -26.5zM752 1188q-28 -27 -61.5 -12.5t-33.5 49.5q0 51 54 51q37 0 51.5 -31.5t-10.5 -56.5zM1044 725v270h68v-995h-68v270q-60 -134 -181.5 -210t-276.5 -76q-218 0 -363 145q-143 143 -143 369
q0 225 143 368q146 146 363 146q155 0 276.5 -76.5t181.5 -210.5zM276 172q126 -129 320 -129q196 0 322 129q126 126 126 326q0 198 -126 327q-127 127 -322 127q-193 0 -320 -127q-126 -129 -126 -327q0 -200 126 -326z" />
    <glyph glyph-name="aring" unicode="&#xe5;" horiz-adv-x="1259" 
d="M748 1149q-57 -57 -148 -57q-90 0 -147 57q-58 58 -58 145q0 90 58.5 147.5t146.5 57.5q91 0 148 -57t57 -148t-57 -145zM713 1407q-32 35 -81 42.5t-92 -9.5t-71.5 -56.5t-24.5 -89.5q0 -66 44.5 -110.5t111.5 -44.5t112.5 44.5t45.5 110.5q0 68 -45 113zM1044 725v270
h68v-995h-68v270q-60 -134 -181.5 -210t-276.5 -76q-218 0 -363 145q-143 143 -143 369q0 225 143 368q146 146 363 146q155 0 276.5 -76.5t181.5 -210.5zM276 172q126 -129 320 -129q196 0 322 129q126 126 126 326q0 198 -126 327q-127 127 -322 127q-193 0 -320 -127
q-126 -129 -126 -327q0 -200 126 -326z" />
    <glyph glyph-name="ae" unicode="&#xe6;" horiz-adv-x="2168" 
d="M2091 500q0 -17 -2 -23h-965q6 -189 133 -313q126 -123 318 -123q155 0 276 92t156 238h72q-40 -169 -181 -279q-138 -108 -321 -108q-159 0 -281 74.5t-184 205.5v-264h-68v270q-60 -134 -181.5 -210t-276.5 -76q-218 0 -363 145q-143 143 -143 369q0 225 143 368
q146 146 363 146q155 0 276.5 -76.5t181.5 -210.5v270h68v-264q62 131 184.5 206t280.5 75q225 0 369 -144q142 -142 145 -368zM1888 836q-124 118 -313 118q-187 0 -311 -118q-128 -122 -140 -304h901q-12 185 -137 304zM276 172q126 -129 320 -129q196 0 322 129
q126 126 126 326q0 198 -126 327q-127 127 -322 127q-193 0 -320 -127q-126 -129 -126 -327q0 -200 126 -326z" />
    <glyph glyph-name="ccedilla" unicode="&#xe7;" horiz-adv-x="1179" 
d="M1034 399h70q-27 -179 -172 -297q-142 -118 -336 -118q-226 0 -371 145t-145 369t147 368q146 146 369 146q192 0 336 -117q146 -121 172 -299h-70q-26 153 -151 256q-124 100 -285 100q-195 0 -322 -127q-126 -129 -126 -327q0 -200 126 -326q126 -129 322 -129
q164 0 285 100q125 103 151 256zM584 -66q63 0 101 -38.5t38 -100.5t-38 -99.5t-101 -37.5q-27 0 -45 6v37q21 -6 43 -6q41 0 69.5 28.5t28.5 71.5q0 44 -28 72.5t-70 28.5q-18 0 -43 -7v39q18 6 45 6z" />
    <glyph glyph-name="egrave" unicode="&#xe8;" horiz-adv-x="1191" 
d="M356 1405l277 -311h-60l-286 311h69zM1114 500q0 -17 -2 -23h-965q6 -188 134 -313q126 -123 317 -123q155 0 276 92t156 238h70q-41 -172 -178 -279q-141 -108 -326 -108q-226 0 -371 145t-145 369t147 368q146 146 369 146q227 0 371 -144t147 -368zM911 836
q-124 118 -313 118q-187 0 -311 -118q-128 -122 -140 -304h900q-9 183 -136 304z" />
    <glyph glyph-name="eacute" unicode="&#xe9;" horiz-adv-x="1191" 
d="M838 1405h69l-286 -311h-60zM1114 500q0 -17 -2 -23h-965q6 -188 134 -313q126 -123 317 -123q155 0 276 92t156 238h70q-41 -172 -178 -279q-141 -108 -326 -108q-226 0 -371 145t-145 369t147 368q146 146 369 146q227 0 371 -144t147 -368zM911 836q-124 118 -313 118
q-187 0 -311 -118q-128 -122 -140 -304h900q-9 183 -136 304z" />
    <glyph glyph-name="ecircumflex" unicode="&#xea;" horiz-adv-x="1191" 
d="M850 1094l-254 276l-254 -276h-59l278 311h68h4l276 -311h-59zM1114 500q0 -17 -2 -23h-965q6 -188 134 -313q126 -123 317 -123q155 0 276 92t156 238h70q-41 -172 -178 -279q-141 -108 -326 -108q-226 0 -371 145t-145 369t147 368q146 146 369 146q227 0 371 -144
t147 -368zM911 836q-124 118 -313 118q-187 0 -311 -118q-128 -122 -140 -304h900q-9 183 -136 304z" />
    <glyph glyph-name="edieresis" unicode="&#xeb;" horiz-adv-x="1191" 
d="M487 1171q-34 0 -48 26.5t0 52.5t48 26q33 0 46.5 -26t0 -52.5t-46.5 -26.5zM750 1188q-28 -27 -61.5 -12.5t-33.5 49.5q0 51 54 51q37 0 51.5 -31.5t-10.5 -56.5zM1114 500q0 -17 -2 -23h-965q6 -188 134 -313q126 -123 317 -123q155 0 276 92t156 238h70
q-41 -172 -178 -279q-141 -108 -326 -108q-226 0 -371 145t-145 369t147 368q146 146 369 146q227 0 371 -144t147 -368zM911 836q-124 118 -313 118q-187 0 -311 -118q-128 -122 -140 -304h900q-9 183 -136 304z" />
    <glyph glyph-name="igrave" unicode="&#xec;" horiz-adv-x="385" 
d="M-117 1405h70l276 -311h-59zM160 0v995h65v-995h-65z" />
    <glyph glyph-name="iacute" unicode="&#xed;" horiz-adv-x="385" 
d="M158 1094l276 311h70l-287 -311h-59zM160 0v995h65v-995h-65z" />
    <glyph glyph-name="icircumflex" unicode="&#xee;" horiz-adv-x="387" 
d="M158 1405h69l205 -311h-53l-186 276l-185 -276h-53zM225 0h-65v995h65v-995z" />
    <glyph glyph-name="idieresis" unicode="&#xef;" horiz-adv-x="387" 
d="M166 1249q0 -24 -14.5 -38.5t-38.5 -14.5q-56 0 -56 53q0 56 56 56q53 0 53 -56zM330 1249q0 -53 -56 -53q-24 0 -38.5 14.5t-14.5 38.5q0 56 53 56q56 0 56 -56zM162 0v995h65v-995h-65z" />
    <glyph glyph-name="eth" unicode="&#xf0;" horiz-adv-x="1191" 
d="M662 1255l329 -417q121 -145 121 -342q0 -222 -145 -367t-371 -145t-371 145t-145 367q0 219 145 364q144 144 365 144q144 0 256 -68l-232 289l-151 -97l-27 35l152 97l-117 145h72l90 -117l160 101l24 -33zM276 172q126 -129 320 -129q196 0 322 129q126 126 126 324
q0 199 -126 325q-127 127 -322 127q-193 0 -320 -127q-126 -126 -126 -325q0 -198 126 -324z" />
    <glyph glyph-name="ntilde" unicode="&#xf1;" horiz-adv-x="1128" 
d="M418 1319q-60 0 -102 -60.5t-42 -150.5h-45q0 115 54.5 188.5t136.5 73.5q44 0 80 -23t61.5 -56t49.5 -65.5t56 -55.5t70 -23q62 0 103 57.5t41 145.5h45q0 -113 -53 -184.5t-138 -71.5q-37 0 -69 16.5t-54 41.5t-45 54.5t-43 54.5t-47.5 41.5t-58.5 16.5zM590 1012
q184 0 293.5 -116.5t109.5 -313.5v-582h-67v578q0 173 -96 275.5t-257 102.5q-164 0 -261 -102.5t-97 -275.5v-578h-65v995h65v-225q44 116 142 179t233 63z" />
    <glyph glyph-name="ograve" unicode="&#xf2;" horiz-adv-x="1193" 
d="M287 1405h69l277 -311h-60zM596 1012q224 0 373 -146q145 -145 145 -368q0 -224 -145 -369q-148 -145 -373 -145q-226 0 -371 145t-145 369t147 368q146 146 369 146zM918 825q-127 127 -322 127q-193 0 -320 -127q-126 -129 -126 -327q0 -200 126 -326
q126 -129 320 -129q196 0 322 129q126 126 126 326q0 198 -126 327z" />
    <glyph glyph-name="oacute" unicode="&#xf3;" horiz-adv-x="1193" 
d="M561 1094l277 311h69l-286 -311h-60zM596 1012q224 0 373 -146q145 -145 145 -368q0 -224 -145 -369q-148 -145 -373 -145q-226 0 -371 145t-145 369t147 368q146 146 369 146zM918 825q-127 127 -322 127q-193 0 -320 -127q-126 -129 -126 -327q0 -200 126 -326
q126 -129 320 -129q196 0 322 129q126 126 126 326q0 198 -126 327z" />
    <glyph glyph-name="ocircumflex" unicode="&#xf4;" horiz-adv-x="1193" 
d="M850 1094l-254 276l-254 -276h-59l278 311h68h4l276 -311h-59zM596 1012q224 0 373 -146q145 -145 145 -368q0 -224 -145 -369q-148 -145 -373 -145q-226 0 -371 145t-145 369t147 368q146 146 369 146zM276 172q126 -129 320 -129q196 0 322 129q126 126 126 326
q0 198 -126 327q-127 127 -322 127q-193 0 -320 -127q-126 -129 -126 -327q0 -200 126 -326z" />
    <glyph glyph-name="otilde" unicode="&#xf5;" horiz-adv-x="1193" 
d="M438 1370q44 0 80 -23t61.5 -56t50 -65.5t56.5 -55.5t70 -23q62 0 102.5 57.5t40.5 145.5h45q0 -113 -53 -184.5t-137 -71.5q-37 0 -69 16.5t-54 41.5t-45.5 54.5t-43 54.5t-47.5 41.5t-59 16.5q-60 0 -101.5 -60.5t-41.5 -150.5h-45q0 115 54 188.5t136 73.5zM596 1012
q224 0 373 -146q145 -145 145 -368q0 -224 -145 -369q-148 -145 -373 -145q-226 0 -371 145t-145 369t147 368q146 146 369 146zM918 825q-127 127 -322 127q-193 0 -320 -127q-126 -129 -126 -327q0 -200 126 -326q126 -129 320 -129q196 0 322 129q126 126 126 326
q0 198 -126 327z" />
    <glyph glyph-name="odieresis" unicode="&#xf6;" horiz-adv-x="1193" 
d="M526 1262q25 -23 10.5 -57t-49.5 -34q-34 0 -48 26.5t0 52.5t48 26q25 0 39 -14zM750 1262q25 -23 10 -57t-51 -34q-24 0 -39 15t-15 39q0 51 54 51q27 0 41 -14zM596 1012q224 0 373 -146q145 -145 145 -368q0 -224 -145 -369q-148 -145 -373 -145q-226 0 -371 145
t-145 369t147 368q146 146 369 146zM918 825q-127 127 -322 127q-193 0 -320 -127q-126 -129 -126 -327q0 -200 126 -326q126 -129 320 -129q196 0 322 129q126 126 126 326q0 198 -126 327z" />
    <glyph glyph-name="divide" unicode="&#xf7;" horiz-adv-x="913" 
d="M457 975q51 0 51 -51q0 -52 -51 -52q-33 0 -46.5 26t0 51.5t46.5 25.5zM102 594v49h709v-49h-709zM457 365q51 0 51 -52q0 -51 -51 -51q-33 0 -46.5 26t0 51.5t46.5 25.5z" />
    <glyph glyph-name="oslash" unicode="&#xf8;" horiz-adv-x="1193" 
d="M1096 1098l-160 -203q178 -150 178 -397q0 -224 -145 -369q-148 -145 -373 -145q-171 0 -305 90l-137 -176h-56l160 202q-178 144 -178 398q0 224 147 368q146 146 369 146q171 0 305 -90l139 176h56zM150 498q0 -220 147 -346l565 718q-113 82 -266 82q-193 0 -320 -127
q-126 -129 -126 -327zM596 43q196 0 322 129q126 126 126 326q0 214 -147 346l-565 -721q115 -80 264 -80z" />
    <glyph glyph-name="ugrave" unicode="&#xf9;" horiz-adv-x="1110" 
d="M244 1405h69l277 -311h-60zM905 995h66v-585q0 -195 -113 -310.5t-303 -115.5t-303 115.5t-113 310.5v585h66v-585q0 -168 95.5 -268.5t254.5 -100.5t254.5 100.5t95.5 268.5v585z" />
    <glyph glyph-name="uacute" unicode="&#xfa;" horiz-adv-x="1110" 
d="M520 1094l277 311h69l-286 -311h-60zM905 995h66v-585q0 -195 -113 -310.5t-303 -115.5t-303 115.5t-113 310.5v585h66v-585q0 -168 95.5 -268.5t254.5 -100.5t254.5 100.5t95.5 268.5v585z" />
    <glyph glyph-name="ucircumflex" unicode="&#xfb;" horiz-adv-x="1110" 
d="M807 1094l-254 276l-254 -276h-59l278 311h68h4l276 -311h-59zM905 410v585h66v-585q0 -195 -113 -310.5t-303 -115.5t-303 115.5t-113 310.5v585h66v-585q0 -168 95.5 -268.5t254.5 -100.5t254.5 100.5t95.5 268.5z" />
    <glyph glyph-name="udieresis" unicode="&#xfc;" horiz-adv-x="1110" 
d="M483 1262q25 -23 10.5 -57t-49.5 -34q-34 0 -48 26.5t0 52.5t48 26q25 0 39 -14zM707 1262q25 -23 10 -57t-51 -34q-24 0 -39 15t-15 39q0 51 54 51q27 0 41 -14zM905 995h66v-585q0 -195 -113 -310.5t-303 -115.5t-303 115.5t-113 310.5v585h66v-585q0 -168 95.5 -268.5
t254.5 -100.5t254.5 100.5t95.5 268.5v585z" />
    <glyph glyph-name="yacute" unicode="&#xfd;" horiz-adv-x="980" 
d="M733 1405h70l-287 -311h-59zM492 193l395 802h71l-690 -1394h-73l264 524l-436 870h73z" />
    <glyph glyph-name="thorn" unicode="&#xfe;" horiz-adv-x="1259" 
d="M674 1012q216 0 362 -146q144 -144 144 -368q0 -225 -144 -369q-145 -145 -362 -145q-155 0 -277 76t-182 210v-680h-65v1815h65v-680q60 134 182 210.5t277 76.5zM342 172q126 -129 322 -129q195 0 321 129q125 125 125 326q0 199 -125 327q-127 127 -321 127
q-195 0 -322 -127q-127 -130 -127 -327q0 -199 127 -326z" />
    <glyph glyph-name="ydieresis" unicode="&#xff;" horiz-adv-x="980" 
d="M381 1171q-34 0 -48 26.5t0 52.5t48 26q33 0 46.5 -26t0 -52.5t-46.5 -26.5zM643 1188q-28 -27 -61 -12.5t-33 49.5q0 51 53 51q37 0 51.5 -31.5t-10.5 -56.5zM492 193l395 802h71l-690 -1394h-73l264 524l-436 870h73z" />
    <glyph glyph-name="Amacron" unicode="&#x100;" horiz-adv-x="1292" 
d="M375 1663h545v-49h-545v49zM1274 0h-76l-168 403h-768l-166 -403h-76l584 1405h84zM647 1329l-358 -864h717z" />
    <glyph glyph-name="amacron" unicode="&#x101;" horiz-adv-x="1259" 
d="M328 1253h544v-49h-544v49zM1044 725v270h68v-995h-68v270q-60 -134 -181.5 -210t-276.5 -76q-218 0 -363 145q-143 143 -143 369q0 225 143 368q146 146 363 146q155 0 276.5 -76.5t181.5 -210.5zM276 172q126 -129 320 -129q196 0 322 129q126 126 126 326
q0 198 -126 327q-127 127 -322 127q-193 0 -320 -127q-126 -129 -126 -327q0 -200 126 -326z" />
    <glyph glyph-name="Abreve" unicode="&#x102;" horiz-adv-x="1292" 
d="M645 1501q-118 0 -196 79t-78 198h51q0 -98 63 -163t160 -65q98 0 161.5 64.5t63.5 163.5h52q0 -119 -78 -198t-199 -79zM1274 0h-76l-168 403h-768l-166 -403h-76l584 1405h84zM647 1329l-358 -864h717z" />
    <glyph glyph-name="abreve" unicode="&#x103;" horiz-adv-x="1259" 
d="M600 1092q-118 0 -196 78.5t-78 197.5h51q0 -98 63 -162.5t160 -64.5q98 0 161.5 64.5t63.5 162.5h52q0 -119 -78 -197.5t-199 -78.5zM1044 725v270h68v-995h-68v270q-60 -134 -181.5 -210t-276.5 -76q-218 0 -363 145q-143 143 -143 369q0 225 143 368q146 146 363 146
q155 0 276.5 -76.5t181.5 -210.5zM276 172q126 -129 320 -129q196 0 322 129q126 126 126 326q0 198 -126 327q-127 127 -322 127q-193 0 -320 -127q-126 -129 -126 -327q0 -200 126 -326z" />
    <glyph glyph-name="Aogonek" unicode="&#x104;" horiz-adv-x="1292" 
d="M604 1405h84l586 -1405h-76l-168 403h-768l-166 -403h-76zM647 1329l-358 -864h717zM1114 23l25 -23q-199 -111 -199 -248q0 -58 38 -93.5t103 -35.5q31 0 49 6v-49q-21 -6 -55 -6q-87 0 -139.5 46.5t-52.5 121.5q0 79 61 153t170 128z" />
    <glyph glyph-name="aogonek" unicode="&#x105;" horiz-adv-x="1259" 
d="M1044 725v270h68v-995h-14q-199 -111 -199 -248q0 -58 38 -93.5t103 -35.5q32 0 50 6v-49q-21 -6 -56 -6q-87 0 -139.5 46.5t-52.5 121.5q0 152 202 266v262q-60 -134 -181.5 -210t-276.5 -76q-218 0 -363 145q-143 143 -143 369q0 225 143 368q146 146 363 146
q155 0 276.5 -76.5t181.5 -210.5zM276 172q126 -129 320 -129q196 0 322 129q126 126 126 326q0 198 -126 327q-127 127 -322 127q-193 0 -320 -127q-126 -129 -126 -327q0 -200 126 -326z" />
    <glyph glyph-name="Cacute" unicode="&#x106;" horiz-adv-x="1599" 
d="M774 1503l277 312h69l-286 -312h-60zM1442 553h74q-47 -256 -240 -412q-195 -157 -465 -157q-317 0 -518 204q-203 203 -203 519q0 311 203 514q203 200 518 200q273 0 465 -155q193 -156 240 -406h-74q-50 221 -219 359q-171 137 -412 137q-283 0 -465 -182
q-182 -185 -182 -467q0 -286 182 -471q181 -187 465 -187q240 0 414 139q170 139 217 365z" />
    <glyph glyph-name="cacute" unicode="&#x107;" horiz-adv-x="1179" 
d="M561 1094l277 311h69l-286 -311h-60zM1034 399h70q-27 -179 -172 -297q-142 -118 -336 -118q-226 0 -371 145t-145 369t147 368q146 146 369 146q192 0 336 -117q146 -121 172 -299h-70q-26 153 -151 256q-124 100 -285 100q-195 0 -322 -127q-126 -129 -126 -327
q0 -200 126 -326q126 -129 322 -129q164 0 285 100q125 103 151 256z" />
    <glyph glyph-name="Cdotaccent" unicode="&#x10a;" horiz-adv-x="1599" 
d="M864 1659q0 -24 -14.5 -38.5t-38.5 -14.5q-55 0 -55 53q0 55 55 55q53 0 53 -55zM1442 553h74q-47 -256 -240 -412q-195 -157 -465 -157q-317 0 -518 204q-203 203 -203 519q0 311 203 514q203 200 518 200q273 0 465 -155q193 -156 240 -406h-74q-50 221 -219 359
q-171 137 -412 137q-283 0 -465 -182q-182 -185 -182 -467q0 -286 182 -471q181 -187 465 -187q240 0 414 139q170 139 217 365z" />
    <glyph glyph-name="cdotaccent" unicode="&#x10b;" horiz-adv-x="1179" 
d="M651 1249q0 -24 -14.5 -38.5t-38.5 -14.5q-55 0 -55 53q0 56 55 56q53 0 53 -56zM1034 399h70q-27 -179 -172 -297q-142 -118 -336 -118q-226 0 -371 145t-145 369t147 368q146 146 369 146q192 0 336 -117q146 -121 172 -299h-70q-26 153 -151 256q-124 100 -285 100
q-195 0 -322 -127q-126 -129 -126 -327q0 -200 126 -326q126 -129 322 -129q164 0 285 100q125 103 151 256z" />
    <glyph glyph-name="Ccaron" unicode="&#x10c;" horiz-adv-x="1599" 
d="M846 1503h-72l-276 312h59l254 -277l254 277h59zM811 49q240 0 414 139q170 139 217 365h74q-47 -256 -240 -412q-195 -157 -465 -157q-317 0 -518 204q-203 203 -203 519q0 311 203 514q203 200 518 200q273 0 465 -155q193 -156 240 -406h-74q-50 221 -219 359
q-171 137 -412 137q-283 0 -465 -182q-182 -185 -182 -467q0 -286 182 -471q181 -187 465 -187z" />
    <glyph glyph-name="ccaron" unicode="&#x10d;" horiz-adv-x="1179" 
d="M633 1094h-72l-276 311h59l254 -277l254 277h59zM598 43q164 0 285 100q125 103 151 256h70q-27 -179 -172 -297q-142 -118 -336 -118q-226 0 -371 145t-145 369t147 368q146 146 369 146q192 0 336 -117q146 -121 172 -299h-70q-26 153 -151 256q-124 100 -285 100
q-195 0 -322 -127q-126 -129 -126 -327q0 -200 126 -326q126 -129 322 -129z" />
    <glyph glyph-name="Dcaron" unicode="&#x10e;" horiz-adv-x="1366" 
d="M594 1503h-72l-276 312h59l254 -277l254 277h59zM178 1405h379q323 0 522 -193t199 -505q0 -319 -199 -512q-201 -195 -522 -195h-379v1405zM248 66h309q291 0 469 178q178 175 178 465q0 281 -178 456q-177 174 -469 174h-309v-1273z" />
    <glyph glyph-name="dcaron" unicode="&#x10f;" 
d="M1184 1071l110 334h60l-121 -334h-49zM1044 725v680h68v-1405h-68v270q-60 -134 -181.5 -210t-276.5 -76q-218 0 -363 145q-143 143 -143 369q0 225 143 368q146 146 363 146q155 0 276.5 -76.5t181.5 -210.5zM276 172q126 -129 320 -129q196 0 322 129q126 126 126 326
q0 198 -126 327q-127 127 -322 127q-193 0 -320 -127q-126 -129 -126 -327q0 -200 126 -326z" />
    <glyph glyph-name="Dcroat" unicode="&#x110;" horiz-adv-x="1366" 
d="M178 1405h379q323 0 522 -193t199 -505q0 -319 -199 -512q-201 -195 -522 -195h-379v682h-168v51h168v672zM248 66h309q291 0 469 178q178 175 178 465q0 281 -178 456q-177 174 -469 174h-309v-606h307v-51h-307v-616z" />
    <glyph glyph-name="dslash" unicode="&#x111;" horiz-adv-x="1263" 
d="M1112 1208h102v-49h-102v-1159h-68v270q-60 -134 -181.5 -210t-276.5 -76q-218 0 -363 145q-143 143 -143 369q0 225 143 368q146 146 363 146q155 0 276.5 -76.5t181.5 -210.5v434h-374v49h374v197h68v-197zM276 172q126 -129 320 -129q196 0 322 129q126 126 126 326
q0 198 -126 327q-127 127 -322 127q-193 0 -320 -127q-126 -129 -126 -327q0 -200 126 -326z" />
    <glyph glyph-name="Emacron" unicode="&#x112;" horiz-adv-x="1189" 
d="M379 1663h545v-49h-545v49zM1098 1405v-66h-850v-594h772v-63h-772v-616h850v-66h-920v1405h920z" />
    <glyph glyph-name="emacron" unicode="&#x113;" horiz-adv-x="1191" 
d="M324 1253h544v-49h-544v49zM1114 500q0 -17 -2 -23h-965q6 -188 134 -313q126 -123 317 -123q155 0 276 92t156 238h70q-41 -172 -178 -279q-141 -108 -326 -108q-226 0 -371 145t-145 369t147 368q146 146 369 146q227 0 371 -144t147 -368zM911 836q-124 118 -313 118
q-187 0 -311 -118q-128 -122 -140 -304h900q-9 183 -136 304z" />
    <glyph glyph-name="Edotaccent" unicode="&#x116;" horiz-adv-x="1189" 
d="M653 1606q-55 0 -55 53q0 55 55 55q54 0 54 -55q0 -24 -15 -38.5t-39 -14.5zM1098 1405v-66h-850v-594h772v-63h-772v-616h850v-66h-920v1405h920z" />
    <glyph glyph-name="edotaccent" unicode="&#x117;" horiz-adv-x="1191" 
d="M598 1196q-55 0 -55 53q0 56 55 56q53 0 53 -56q0 -24 -14.5 -38.5t-38.5 -14.5zM1114 500q0 -17 -2 -23h-965q6 -188 134 -313q126 -123 317 -123q155 0 276 92t156 238h70q-41 -172 -178 -279q-141 -108 -326 -108q-226 0 -371 145t-145 369t147 368q146 146 369 146
q227 0 371 -144t147 -368zM911 836q-124 118 -313 118q-187 0 -311 -118q-128 -122 -140 -304h900q-9 183 -136 304z" />
    <glyph glyph-name="Eogonek" unicode="&#x118;" horiz-adv-x="1189" 
d="M1098 1405v-66h-850v-594h772v-63h-772v-616h850v-66q-199 -111 -199 -248q0 -58 38 -93.5t103 -35.5q32 0 50 6v-49q-21 -6 -56 -6q-87 0 -139.5 46.5t-52.5 121.5q0 150 188 258h-852v1405h920z" />
    <glyph glyph-name="eogonek" unicode="&#x119;" horiz-adv-x="1191" 
d="M1114 500q0 -17 -2 -23h-965q6 -188 134 -313q126 -123 317 -123q155 0 276 92t156 238h70q-32 -138 -133.5 -237.5t-243.5 -135.5q-195 -112 -195 -246q0 -58 38.5 -93.5t103.5 -35.5q31 0 49 6v-49q-21 -6 -55 -6q-87 0 -140 46.5t-53 121.5q0 137 164 242h-39
q-226 0 -371 145t-145 369t147 368q146 146 369 146q227 0 371 -144t147 -368zM911 836q-124 118 -313 118q-187 0 -311 -118q-128 -122 -140 -304h900q-9 183 -136 304z" />
    <glyph glyph-name="Ecaron" unicode="&#x11a;" horiz-adv-x="1189" 
d="M686 1503h-72l-276 312h59l254 -277l254 277h60zM1098 1405v-66h-850v-594h772v-63h-772v-616h850v-66h-920v1405h920z" />
    <glyph glyph-name="ecaron" unicode="&#x11b;" horiz-adv-x="1191" 
d="M633 1094h-72l-276 311h59l254 -277l254 277h59zM1114 500q0 -17 -2 -23h-965q6 -188 134 -313q126 -123 317 -123q155 0 276 92t156 238h70q-41 -172 -178 -279q-141 -108 -326 -108q-226 0 -371 145t-145 369t147 368q146 146 369 146q227 0 371 -144t147 -368z
M911 836q-124 118 -313 118q-187 0 -311 -118q-128 -122 -140 -304h900q-9 183 -136 304z" />
    <glyph glyph-name="Gbreve" unicode="&#x11e;" horiz-adv-x="1617" 
d="M809 1501q-118 0 -196 79t-78 198h51q0 -98 63 -163t160 -65q98 0 161.5 64.5t63.5 163.5h51q0 -119 -77.5 -198t-198.5 -79zM811 729h719v-22q0 -315 -201 -519q-198 -204 -518 -204q-317 0 -518 204q-203 203 -203 519q0 311 203 514q203 200 518 200q266 0 461 -151
q192 -152 239 -402h-73q-50 222 -219 357q-171 133 -408 133q-284 0 -465 -184q-182 -185 -182 -467q0 -286 182 -474q180 -186 465 -186q271 0 453 176q181 175 190 445h-643v61z" />
    <glyph glyph-name="gbreve" unicode="&#x11f;" horiz-adv-x="1259" 
d="M600 1092q-118 0 -196 78.5t-78 197.5h51q0 -98 63 -162.5t160 -64.5q98 0 161.5 64.5t63.5 162.5h52q0 -119 -78 -197.5t-199 -78.5zM1044 725v270h68v-934q0 -213 -143 -350t-365 -137q-165 0 -301 86q-133 84 -180 221h70q41 -110 157 -180t252 -70q191 0 318 121
q124 118 124 305v222q-60 -134 -181.5 -210.5t-276.5 -76.5q-218 0 -363 145q-143 143 -143 365q0 223 143 366q144 144 363 144q155 0 276.5 -76.5t181.5 -210.5zM276 176q126 -129 320 -129q196 0 322 129q126 126 126 326q0 198 -126 327q-127 127 -322 127
q-193 0 -320 -127q-126 -129 -126 -327q0 -200 126 -326z" />
    <glyph glyph-name="Gdotaccent" unicode="&#x120;" horiz-adv-x="1617" 
d="M811 1606q-55 0 -55 53q0 55 55 55q53 0 53 -55q0 -24 -14.5 -38.5t-38.5 -14.5zM811 729h719v-22q0 -315 -201 -519q-198 -204 -518 -204q-317 0 -518 204q-203 203 -203 519q0 311 203 514q203 200 518 200q266 0 461 -151q192 -152 239 -402h-73q-50 222 -219 357
q-171 133 -408 133q-284 0 -465 -184q-182 -185 -182 -467q0 -286 182 -474q180 -186 465 -186q271 0 453 176q181 175 190 445h-643v61z" />
    <glyph glyph-name="gdotaccent" unicode="&#x121;" horiz-adv-x="1259" 
d="M602 1196q-55 0 -55 53q0 56 55 56q53 0 53 -56q0 -24 -14.5 -38.5t-38.5 -14.5zM1044 725v270h68v-934q0 -213 -143 -350t-365 -137q-165 0 -301 86q-133 84 -180 221h70q41 -110 157 -180t252 -70q191 0 318 121q124 118 124 305v222q-60 -134 -181.5 -210.5
t-276.5 -76.5q-218 0 -363 145q-143 143 -143 365q0 223 143 366q144 144 363 144q155 0 276.5 -76.5t181.5 -210.5zM276 176q126 -129 320 -129q196 0 322 129q126 126 126 326q0 198 -126 327q-127 127 -322 127q-193 0 -320 -127q-126 -129 -126 -327q0 -200 126 -326z
" />
    <glyph glyph-name="Gcommaaccent" unicode="&#x122;" horiz-adv-x="1617" 
d="M811 729h719v-22q0 -315 -201 -519q-198 -204 -518 -204q-317 0 -518 204q-203 203 -203 519q0 311 203 514q203 200 518 200q266 0 461 -151q192 -152 239 -402h-73q-50 222 -219 357q-171 133 -408 133q-284 0 -465 -184q-182 -185 -182 -467q0 -286 182 -474
q180 -186 465 -186q271 0 453 176q181 175 190 445h-643v61zM721 -436h-49l110 334h60z" />
    <glyph glyph-name="gcommaaccent" unicode="&#x123;" horiz-adv-x="1259" 
d="M690 1432h49l-110 -334h-60zM1044 725v270h68v-934q0 -213 -143 -350t-365 -137q-165 0 -301 86q-133 84 -180 221h70q41 -110 157 -180t252 -70q191 0 318 121q124 118 124 305v222q-60 -134 -181.5 -210.5t-276.5 -76.5q-218 0 -363 145q-143 143 -143 365
q0 223 143 366q144 144 363 144q155 0 276.5 -76.5t181.5 -210.5zM276 176q126 -129 320 -129q196 0 322 129q126 126 126 326q0 198 -126 327q-127 127 -322 127q-193 0 -320 -127q-126 -129 -126 -327q0 -200 126 -326z" />
    <glyph glyph-name="Hbar" unicode="&#x126;" horiz-adv-x="1345" 
d="M1272 1083v-49h-103v-1034h-71v659h-850v-659h-70v1034h-104v49h104v322h70v-322h850v322h71v-322h103zM248 725h850v309h-850v-309z" />
    <glyph glyph-name="hbar" unicode="&#x127;" horiz-adv-x="1132" 
d="M594 1012q184 0 293.5 -116.5t109.5 -313.5v-582h-67v578q0 173 -95.5 275.5t-256.5 102.5q-164 0 -261.5 -102.5t-97.5 -275.5v-578h-65v1159h-99v49h99v197h65v-197h381v-49h-381v-393q43 117 141.5 181.5t233.5 64.5z" />
    <glyph glyph-name="Imacron" unicode="&#x12a;" horiz-adv-x="425" 
d="M-59 1614v49h544v-49h-544zM178 1405h70v-1405h-70v1405z" />
    <glyph glyph-name="imacron" unicode="&#x12b;" horiz-adv-x="387" 
d="M14 1206v47h359v-47h-359zM160 0v995h67v-995h-67z" />
    <glyph glyph-name="Iogonek" unicode="&#x12e;" horiz-adv-x="425" 
d="M178 0v1405h70v-1405q-199 -111 -199 -248q0 -58 38 -93.5t103 -35.5q32 0 50 6v-49q-21 -6 -56 -6q-87 0 -139.5 46.5t-52.5 121.5q0 150 188 258h-2z" />
    <glyph glyph-name="iogonek" unicode="&#x12f;" horiz-adv-x="346" 
d="M129 1292q28 28 65 11.5t37 -54.5q0 -59 -59 -59q-38 0 -54.5 37t11.5 65zM141 0v995h66v-995q-199 -111 -199 -248q0 -58 38.5 -93.5t103.5 -35.5q31 0 49 6v-49q-21 -6 -56 -6q-87 0 -139.5 46.5t-52.5 121.5q0 150 190 258z" />
    <glyph glyph-name="Idot" unicode="&#x130;" horiz-adv-x="425" 
d="M268 1659q0 -24 -14.5 -38.5t-38.5 -14.5q-55 0 -55 53q0 55 55 55q53 0 53 -55zM178 1405h70v-1405h-70v1405z" />
    <glyph glyph-name="dotlessi" unicode="&#x131;" horiz-adv-x="385" 
d="M160 0v995h65v-995h-65z" />
    <glyph glyph-name="IJ" unicode="&#x132;" horiz-adv-x="1241" 
d="M485 1339v66h617v-913q0 -230 -131 -367q-132 -141 -350 -141q-217 0 -349 141q-133 139 -133 367v30h72v-30q0 -201 112 -322t298 -121t298.5 121t112.5 322v847h-547zM139 1405h72v-782h-72v782z" />
    <glyph glyph-name="ij" unicode="&#x133;" horiz-adv-x="692" 
d="M475 1292q28 28 66.5 12.5t38.5 -55.5q0 -59 -62 -59q-38 0 -54.5 37t11.5 65zM129 1292q28 28 65 11.5t37 -54.5q0 -59 -59 -59q-38 0 -54.5 37t11.5 65zM553 -410h-66v1405h66v-1405zM207 0h-66v995h66v-995z" />
    <glyph glyph-name="Jcircumflex" unicode="&#x134;" horiz-adv-x="1191" 
d="M981 1503l-254 277l-254 -277h-59l278 312h68h4l276 -312h-59zM403 1339v66h650v-913q0 -230 -131 -367q-132 -141 -351 -141q-216 0 -348 141q-133 139 -133 367v30h70v-30q0 -201 112.5 -322t298.5 -121t298 121t112 322v847h-578z" />
    <glyph glyph-name="jcircumflex" unicode="&#x135;" horiz-adv-x="378" 
d="M158 1405h63l203 -311h-55l-179 268l-180 -268h-55zM221 -410h-65v1405h65v-1405z" />
    <glyph glyph-name="Kcommaaccent" unicode="&#x136;" horiz-adv-x="1116" 
d="M1044 1405l-716 -692l729 -713h-92l-717 702v-702h-70v1405h70v-684l710 684h86zM510 -436h-49l110 334h60z" />
    <glyph glyph-name="kcommaaccent" unicode="&#x137;" horiz-adv-x="907" 
d="M766 995h84l-569 -481l569 -514h-84l-551 496v-496h-65v1405h65v-877zM387 -438h-49l111 334h59z" />
    <glyph glyph-name="kgreenlandic" unicode="&#x138;" horiz-adv-x="907" 
d="M766 995h84l-569 -481l569 -514h-84l-551 496v-496h-65v995h65v-467z" />
    <glyph glyph-name="Lacute" unicode="&#x139;" horiz-adv-x="1077" 
d="M455 1815h69l-286 -312h-60zM248 1405v-1339h807v-66h-877v1405h70z" />
    <glyph glyph-name="lacute" unicode="&#x13a;" horiz-adv-x="364" 
d="M145 1493l277 311h70l-287 -311h-60zM150 0v1405h65v-1405h-65z" />
    <glyph glyph-name="Lcommaaccent" unicode="&#x13b;" horiz-adv-x="1077" 
d="M248 1405v-1339h807v-66h-877v1405h70zM502 -436h-49l110 334h60z" />
    <glyph glyph-name="lcommaaccent" unicode="&#x13c;" horiz-adv-x="364" 
d="M150 0v1405h65v-1405h-65zM43 -438l111 334h59l-121 -334h-49z" />
    <glyph glyph-name="Lcaron" unicode="&#x13d;" horiz-adv-x="1077" 
d="M434 1405h60l-121 -334h-49zM248 1405v-1339h807v-66h-877v1405h70z" />
    <glyph glyph-name="lcaron" unicode="&#x13e;" horiz-adv-x="385" 
d="M289 1071l110 334h58l-119 -334h-49zM150 0v1405h65v-1405h-65z" />
    <glyph glyph-name="Ldot" unicode="&#x13f;" horiz-adv-x="1077" 
d="M248 1405v-1339h807v-66h-877v1405h70zM784 692q-32 -31 -70 -14t-38 57q-5 39 28.5 56t67 0t29.5 -56q0 -26 -17 -43z" />
    <glyph glyph-name="ldot" unicode="&#x140;" horiz-adv-x="415" 
d="M150 0v1405h65v-1405h-65zM344 784q29 29 69 11.5t40 -58.5q0 -40 -40 -57t-69 12q-17 17 -17 45t17 47z" />
    <glyph glyph-name="Lslash" unicode="&#x141;" horiz-adv-x="1077" 
d="M248 662v-596h807v-66h-877v635l-137 -51v55l137 53v713h70v-686l274 102v-55z" />
    <glyph glyph-name="lslash" unicode="&#x142;" horiz-adv-x="393" 
d="M221 737l123 45v-53l-123 -45v-684h-67v659l-105 -38v55l105 37v692h67v-668z" />
    <glyph glyph-name="Nacute" unicode="&#x143;" horiz-adv-x="1394" 
d="M938 1815h70l-287 -312h-59zM1147 82v1323h70v-1405h-97l-872 1321v-1321h-70v1405h96z" />
    <glyph glyph-name="nacute" unicode="&#x144;" horiz-adv-x="1128" 
d="M819 1405h70l-287 -311h-59zM590 1012q184 0 293.5 -116.5t109.5 -313.5v-582h-67v578q0 173 -96 275.5t-257 102.5q-164 0 -261 -102.5t-97 -275.5v-578h-65v995h65v-225q44 116 142 179t233 63z" />
    <glyph glyph-name="Ncommaaccent" unicode="&#x145;" horiz-adv-x="1394" 
d="M1147 82v1323h70v-1405h-97l-872 1321v-1321h-70v1405h96zM608 -436h-49l111 334h59z" />
    <glyph glyph-name="ncommaaccent" unicode="&#x146;" horiz-adv-x="1128" 
d="M590 1012q184 0 293.5 -116.5t109.5 -313.5v-582h-67v578q0 173 -96 275.5t-257 102.5q-164 0 -261 -102.5t-97 -275.5v-578h-65v995h65v-225q44 116 142 179t233 63zM481 -438h-49l111 334h59z" />
    <glyph glyph-name="Ncaron" unicode="&#x147;" horiz-adv-x="1394" 
d="M733 1503h-71l-277 312h59l254 -277l254 277h60zM1147 82v1323h70v-1405h-97l-872 1321v-1321h-70v1405h96z" />
    <glyph glyph-name="ncaron" unicode="&#x148;" horiz-adv-x="1128" 
d="M612 1094h-71l-277 311h60l254 -277l253 277h60zM590 1012q184 0 293.5 -116.5t109.5 -313.5v-582h-67v578q0 173 -96 275.5t-257 102.5q-164 0 -261 -102.5t-97 -275.5v-578h-65v995h65v-225q44 116 142 179t233 63z" />
    <glyph glyph-name="Eng" unicode="&#x14a;" horiz-adv-x="1388" 
d="M1141 127v1278h71v-1411q0 -177 -108 -291q-107 -113 -279 -113v66q141 3 228 96q88 94 88 242v14l-893 1319v-1327h-70v1405h96z" />
    <glyph glyph-name="eng" unicode="&#x14b;" horiz-adv-x="1128" 
d="M590 1012q184 0 293.5 -116.5t109.5 -313.5v-588q0 -181 -106 -293q-107 -113 -277 -113v66q138 0 228 96q88 94 88 242v586q0 173 -96 275.5t-257 102.5q-164 0 -261 -102.5t-97 -275.5v-578h-65v995h65v-225q44 116 142 179t233 63z" />
    <glyph glyph-name="Omacron" unicode="&#x14c;" horiz-adv-x="1619" 
d="M539 1614v49h544v-49h-544zM811 1421q312 0 518 -200q203 -203 203 -514q0 -316 -203 -519q-204 -204 -518 -204q-317 0 -518 204q-203 203 -203 519q0 311 203 514q203 200 518 200zM811 1356q-283 0 -465 -182q-182 -185 -182 -467q0 -286 182 -471q181 -187 465 -187
q282 0 463 187q182 185 182 471q0 279 -182 464t-463 185z" />
    <glyph glyph-name="omacron" unicode="&#x14d;" horiz-adv-x="1193" 
d="M324 1204v49h544v-49h-544zM596 1012q224 0 373 -146q145 -145 145 -368q0 -224 -145 -369q-148 -145 -373 -145q-226 0 -371 145t-145 369t147 368q146 146 369 146zM918 825q-127 127 -322 127q-193 0 -320 -127q-126 -129 -126 -327q0 -200 126 -326
q126 -129 320 -129q196 0 322 129q126 126 126 326q0 198 -126 327z" />
    <glyph glyph-name="Ohungarumlaut" unicode="&#x150;" horiz-adv-x="1619" 
d="M662 1503l264 312h65l-276 -312h-53zM899 1503l279 312h65l-289 -312h-55zM811 1421q312 0 518 -200q203 -203 203 -514q0 -316 -203 -519q-204 -204 -518 -204q-317 0 -518 204q-203 203 -203 519q0 311 203 514q203 200 518 200zM811 1356q-283 0 -465 -182
q-182 -185 -182 -467q0 -286 182 -471q181 -187 465 -187q282 0 463 187q182 185 182 471q0 279 -182 464t-463 185z" />
    <glyph glyph-name="ohungarumlaut" unicode="&#x151;" horiz-adv-x="1193" 
d="M449 1094l264 311h65l-276 -311h-53zM686 1094l279 311h65l-289 -311h-55zM596 1012q224 0 373 -146q145 -145 145 -368q0 -224 -145 -369q-148 -145 -373 -145q-226 0 -371 145t-145 369t147 368q146 146 369 146zM918 825q-127 127 -322 127q-193 0 -320 -127
q-126 -129 -126 -327q0 -200 126 -326q126 -129 320 -129q196 0 322 129q126 126 126 326q0 198 -126 327z" />
    <glyph glyph-name="OE" unicode="&#x152;" horiz-adv-x="1980" 
d="M1888 1405v-66h-850v-594h772v-63h-772v-619h850v-63h-913q-72 -16 -164 -16q-317 0 -518 204q-203 203 -203 519q0 311 203 514q203 200 518 200q72 0 160 -16h917zM164 707q0 -286 182 -471q181 -187 465 -187q73 0 156 21v1263q-84 23 -156 23q-283 0 -465 -182
q-182 -185 -182 -467z" />
    <glyph glyph-name="oe" unicode="&#x153;" horiz-adv-x="2164" 
d="M2087 500q0 -17 -2 -23h-965q6 -189 133 -313q126 -123 318 -123q153 0 274 92q120 91 158 238h70q-41 -171 -179 -279q-141 -108 -325 -108q-172 0 -302 88.5t-184 238.5q-54 -150 -184.5 -238.5t-302.5 -88.5q-226 0 -371 145t-145 369t147 368q146 146 369 146
q172 0 302 -89.5t185 -240.5q54 153 183.5 241.5t302.5 88.5q226 0 370 -144q145 -145 148 -368zM1884 836q-124 118 -313 118q-187 0 -311 -118q-128 -122 -140 -304h899q-9 184 -135 304zM276 172q126 -129 320 -129q196 0 322 129q126 126 126 326q0 198 -126 327
q-127 127 -322 127q-193 0 -320 -127q-126 -129 -126 -327q0 -200 126 -326z" />
    <glyph glyph-name="Racute" unicode="&#x154;" horiz-adv-x="1263" 
d="M862 1815h70l-287 -312h-59zM1124 336q0 -260 27 -336h-76q-22 99 -22 332q0 136 -77 216.5t-208 80.5h-520v-629h-70v1405h567q183 0 291.5 -102.5t108.5 -274.5q0 -136 -70.5 -232.5t-195.5 -131.5q116 -29 180 -114t65 -214zM248 690h493q152 0 241 88t89 240
q0 148 -89 234.5t-241 86.5h-493v-649z" />
    <glyph glyph-name="racute" unicode="&#x155;" horiz-adv-x="632" 
d="M618 1405h70l-287 -311h-59zM215 995v-258q92 277 408 277v-68q-196 0 -302 -110t-106 -314v-522h-65v995h65z" />
    <glyph glyph-name="Rcommaaccent" unicode="&#x156;" horiz-adv-x="1263" 
d="M1124 336q0 -260 27 -336h-76q-22 99 -22 332q0 136 -77 216.5t-208 80.5h-520v-629h-70v1405h567q183 0 291.5 -102.5t108.5 -274.5q0 -136 -70.5 -232.5t-195.5 -131.5q116 -29 180 -114t65 -214zM248 690h493q152 0 241 88t89 240q0 148 -89 234.5t-241 86.5h-493
v-649zM557 -436h-49l110 334h60z" />
    <glyph glyph-name="rcommaaccent" unicode="&#x157;" horiz-adv-x="632" 
d="M215 995v-258q92 277 408 277v-68q-196 0 -302 -110t-106 -314v-522h-65v995h65zM92 -438h-49l111 334h59z" />
    <glyph glyph-name="Rcaron" unicode="&#x158;" horiz-adv-x="1263" 
d="M655 1503h-71l-277 312h60l254 -277l253 277h60zM1124 336q0 -260 27 -336h-76q-22 99 -22 332q0 136 -77 216.5t-208 80.5h-520v-629h-70v1405h567q183 0 291.5 -102.5t108.5 -274.5q0 -136 -70.5 -232.5t-195.5 -131.5q116 -29 180 -114t65 -214zM248 690h493
q152 0 241 88t89 240q0 148 -89 234.5t-241 86.5h-493v-649z" />
    <glyph glyph-name="rcaron" unicode="&#x159;" horiz-adv-x="632" 
d="M414 1094h-72l-276 311h59l254 -277l254 277h59zM215 995v-258q92 277 408 277v-68q-196 0 -302 -110t-106 -314v-522h-65v995h65z" />
    <glyph glyph-name="Sacute" unicode="&#x15a;" horiz-adv-x="1153" 
d="M545 1503l276 312h70l-287 -312h-59zM580 1421q208 0 331.5 -104.5t130.5 -292.5h-71q-7 160 -111 248t-282 88q-174 0 -279.5 -83.5t-105.5 -225.5q-1 -48 14 -87.5t37.5 -68t62 -52.5t75 -38.5t90.5 -29.5t94 -22.5t100.5 -20t95.5 -19.5q139 -32 224 -116t85 -222
q0 -177 -135 -285q-132 -106 -358 -106q-231 0 -365.5 117.5t-140.5 314.5h69q5 -168 121.5 -269.5t317.5 -101.5q190 0 303.5 89t113.5 241q0 74 -30 127.5t-81 85t-116.5 53t-138.5 36t-146 30t-138.5 40.5t-116.5 61t-81 97t-30 144q0 171 125.5 271.5t335.5 100.5z" />
    <glyph glyph-name="sacute" unicode="&#x15b;" horiz-adv-x="917" 
d="M426 1094l276 311h70l-287 -311h-59zM219 942q91 70 242 70q149 0 241 -74q93 -75 93 -193h-66q0 94 -73.5 152.5t-194.5 58.5t-193.5 -54t-72.5 -142q0 -62 20 -100.5t66 -61.5q47 -25 83 -36.5t109 -24.5q181 -40 244 -80q99 -65 102 -199q0 -123 -98.5 -198.5
t-257.5 -75.5t-258.5 76.5t-104.5 201.5h66q2 -100 84.5 -162.5t212.5 -62.5q129 0 209 60.5t80 158.5q-8 76 -35.5 116.5t-91.5 63.5q-11 3 -76 25q-24 5 -92 18q-107 19 -181 49q-48 19 -79 50q-70 66 -70 178q0 115 92 186z" />
    <glyph glyph-name="Scedilla" unicode="&#x15e;" horiz-adv-x="1153" 
d="M580 1421q208 0 331.5 -104.5t130.5 -292.5h-71q-7 160 -111 248t-282 88q-174 0 -279.5 -83.5t-105.5 -225.5q-1 -48 14 -87.5t37.5 -68t62 -52.5t75 -38.5t90.5 -29.5t94 -22.5t100.5 -20t95.5 -19.5q139 -32 224 -116t85 -222q0 -177 -135 -285q-132 -106 -358 -106
q-231 0 -365.5 117.5t-140.5 314.5h69q5 -168 121.5 -269.5t317.5 -101.5q190 0 303.5 89t113.5 241q0 74 -30 127.5t-81 85t-116.5 53t-138.5 36t-146 30t-138.5 40.5t-116.5 61t-81 97t-30 144q0 171 125.5 271.5t335.5 100.5zM563 -66q63 0 101 -38.5t38 -100.5
t-38 -99.5t-101 -37.5q-27 0 -45 6v37q21 -6 43 -6q41 0 69.5 28.5t28.5 71.5q0 44 -28 72.5t-70 28.5q-19 0 -43 -7v39q18 6 45 6z" />
    <glyph glyph-name="scedilla" unicode="&#x15f;" horiz-adv-x="917" 
d="M219 942q91 70 242 70q149 0 241 -74q93 -75 93 -193h-66q0 94 -73.5 152.5t-194.5 58.5t-193.5 -54t-72.5 -142q0 -62 20 -100.5t66 -61.5q47 -25 83 -36.5t109 -24.5q181 -40 244 -80q99 -65 102 -199q0 -123 -98.5 -198.5t-257.5 -75.5t-258.5 76.5t-104.5 201.5h66
q2 -100 84.5 -162.5t212.5 -62.5q129 0 209 60.5t80 158.5q-8 76 -35.5 116.5t-91.5 63.5q-11 3 -76 25q-24 5 -92 18q-107 19 -181 49q-48 19 -79 50q-70 66 -70 178q0 115 92 186zM444 -66q63 0 101.5 -38.5t38.5 -100.5t-38.5 -99.5t-101.5 -37.5q-27 0 -45 6v37
q21 -6 43 -6q42 0 70.5 28.5t28.5 71.5q0 44 -28.5 72.5t-70.5 28.5q-18 0 -43 -7v39q18 6 45 6z" />
    <glyph glyph-name="Scaron" unicode="&#x160;" horiz-adv-x="1153" 
d="M614 1503h-71l-277 312h60l254 -277l254 277h59zM193 1051q-1 -48 14 -87.5t37.5 -68t62 -52.5t75 -38.5t90.5 -29.5t94 -22.5t100.5 -20t95.5 -19.5q139 -32 224 -116t85 -222q0 -177 -135 -285q-132 -106 -358 -106q-231 0 -365.5 117.5t-140.5 314.5h69
q5 -168 121.5 -269.5t317.5 -101.5q190 0 303.5 89t113.5 241q0 74 -30 127.5t-81 85t-116.5 53t-138.5 36t-146 30t-138.5 40.5t-116.5 61t-81 97t-30 144q0 171 125.5 271.5t335.5 100.5q208 0 331.5 -104.5t130.5 -292.5h-71q-7 160 -111 248t-282 88
q-174 0 -279.5 -83.5t-105.5 -225.5z" />
    <glyph glyph-name="scaron" unicode="&#x161;" horiz-adv-x="917" 
d="M496 1094h-72l-277 311h60l254 -277l254 277h59zM473 537q181 -40 244 -80q99 -65 102 -199q0 -123 -98.5 -198.5t-257.5 -75.5t-258.5 76.5t-104.5 201.5h66q2 -100 84.5 -162.5t212.5 -62.5q129 0 209 60.5t80 158.5q-8 76 -35.5 116.5t-91.5 63.5q-11 3 -76 25
q-24 5 -92 18q-107 19 -181 49q-48 19 -79 50q-70 66 -70 178q0 115 92 185.5t242 70.5q149 0 241.5 -74t92.5 -193h-66q0 94 -73.5 152.5t-194.5 58.5t-193.5 -54t-72.5 -142q0 -62 20 -100.5t66 -61.5q47 -25 83 -36.5t109 -24.5z" />
    <glyph glyph-name="uni0162" unicode="&#x162;" horiz-adv-x="1107" 
d="M39 1339v66h1030v-66h-479v-1339h-72v1339h-479zM545 -63q61 0 99 -39t38 -101q0 -60 -38 -98.5t-99 -38.5q-29 0 -47 6v37q21 -6 43 -6q43 0 70.5 28.5t27.5 71.5q0 44 -27.5 72.5t-70.5 28.5q-19 0 -43 -7v39q21 7 47 7z" />
    <glyph glyph-name="uni0163" unicode="&#x163;" horiz-adv-x="550" 
d="M289 1245v-250h231v-59h-231v-936h-66v936h-186v59h186v250h66zM244 -66q63 0 101 -38.5t38 -100.5t-38 -99.5t-101 -37.5q-27 0 -45 6v37q21 -6 43 -6q41 0 69.5 28.5t28.5 71.5q0 44 -28 72.5t-70 28.5q-18 0 -43 -7v39q18 6 45 6z" />
    <glyph glyph-name="Tcaron" unicode="&#x164;" horiz-adv-x="1107" 
d="M590 1503h-72l-276 312h59l254 -277l254 277h59zM39 1405h1030v-66h-479v-1339h-72v1339h-479v66z" />
    <glyph glyph-name="tcaron" unicode="&#x165;" horiz-adv-x="550" 
d="M455 1405h59l-121 -334h-47zM289 995h231v-59h-231v-936h-66v936h-186v59h186v250h66v-250z" />
    <glyph glyph-name="Tbar" unicode="&#x166;" horiz-adv-x="1107" 
d="M1069 1405v-66h-479v-618h239v-51h-239v-670h-72v670h-237v51h237v618h-479v66h1030z" />
    <glyph glyph-name="tbar" unicode="&#x167;" horiz-adv-x="550" 
d="M520 995v-59h-231v-221h223v-51h-223v-664h-66v664h-178v51h178v221h-186v59h186v250h66v-250h231z" />
    <glyph glyph-name="Umacron" unicode="&#x16a;" horiz-adv-x="1323" 
d="M389 1614v49h545v-49h-545zM1112 1405h72v-879q0 -247 -142 -395q-144 -147 -380 -147q-238 0 -379 147q-144 147 -144 395v879h72v-877q0 -220 122 -349.5t329 -129.5q205 0 327 131q123 129 123 348v877z" />
    <glyph glyph-name="umacron" unicode="&#x16b;" horiz-adv-x="1110" 
d="M283 1204v49h544v-49h-544zM905 995h66v-585q0 -195 -113 -310.5t-303 -115.5t-303 115.5t-113 310.5v585h66v-585q0 -168 95.5 -268.5t254.5 -100.5t254.5 100.5t95.5 268.5v585z" />
    <glyph glyph-name="Uring" unicode="&#x16e;" horiz-adv-x="1323" 
d="M662 1909q91 0 147.5 -57t56.5 -148t-57 -145q-58 -58 -147 -58q-90 0 -148 58q-57 57 -57 145q0 90 58.5 147.5t146.5 57.5zM774 1817q-32 35 -81 42.5t-91.5 -9.5t-71 -56.5t-24.5 -89.5q0 -66 44.5 -111t111.5 -45t112 45t45 111q0 68 -45 113zM1112 1405h72v-879
q0 -247 -142 -395q-144 -147 -380 -147q-238 0 -379 147q-144 147 -144 395v879h72v-877q0 -220 122 -349.5t329 -129.5q205 0 327 131q123 129 123 348v877z" />
    <glyph glyph-name="uring" unicode="&#x16f;" horiz-adv-x="1110" 
d="M555 1499q91 0 148 -57t57 -148q0 -90 -58 -145q-57 -57 -147 -57t-147 57q-58 58 -58 145q0 90 58.5 147.5t146.5 57.5zM668 1407q-32 35 -81 42.5t-92 -9.5t-71.5 -56.5t-24.5 -89.5q0 -66 44.5 -110.5t111.5 -44.5t112.5 44.5t45.5 110.5q0 68 -45 113zM905 995h66
v-585q0 -195 -113 -310.5t-303 -115.5t-303 115.5t-113 310.5v585h66v-585q0 -168 95.5 -268.5t254.5 -100.5t254.5 100.5t95.5 268.5v585z" />
    <glyph glyph-name="Uhungarumlaut" unicode="&#x170;" horiz-adv-x="1323" 
d="M512 1503l264 312h66l-277 -312h-53zM750 1503l278 312h66l-289 -312h-55zM1112 1405h72v-879q0 -247 -142 -395q-144 -147 -380 -147q-238 0 -379 147q-144 147 -144 395v879h72v-877q0 -220 122 -349.5t329 -129.5q205 0 327 131q123 129 123 348v877z" />
    <glyph glyph-name="uhungarumlaut" unicode="&#x171;" horiz-adv-x="1110" 
d="M408 1094l264 311h65l-276 -311h-53zM645 1094l279 311h65l-289 -311h-55zM905 995h66v-585q0 -195 -113 -310.5t-303 -115.5t-303 115.5t-113 310.5v585h66v-585q0 -168 95.5 -268.5t254.5 -100.5t254.5 100.5t95.5 268.5v585z" />
    <glyph glyph-name="Uogonek" unicode="&#x172;" horiz-adv-x="1323" 
d="M1112 528v877h72v-879q0 -208 -102 -347.5t-283 -180.5q-195 -112 -195 -246q0 -58 38 -93.5t103 -35.5q32 0 50 6v-49q-21 -6 -56 -6q-87 0 -139.5 46.5t-52.5 121.5q0 136 166 244q-10 -2 -51 -2q-238 0 -379 147q-144 147 -144 395v879h72v-877q0 -220 122 -349.5
t329 -129.5q205 0 327 131q123 129 123 348z" />
    <glyph glyph-name="uogonek" unicode="&#x173;" horiz-adv-x="1110" 
d="M905 410v585h66v-585q0 -159 -76.5 -268t-212.5 -144q-197 -114 -197 -246q0 -58 38.5 -93.5t103.5 -35.5q31 0 49 6v-49q-21 -6 -55 -6q-87 0 -140 46.5t-53 121.5q0 137 164 242h-37q-190 0 -303 115.5t-113 310.5v585h66v-585q0 -168 95.5 -268.5t254.5 -100.5
t254.5 100.5t95.5 268.5z" />
    <glyph glyph-name="Wcircumflex" unicode="&#x174;" horiz-adv-x="1814" 
d="M1161 1503l-254 277l-254 -277h-59l278 312h68h4l277 -312h-60zM1325 98l383 1307h72l-412 -1405h-78l-383 1307l-383 -1307h-75l-414 1405h74l380 -1309l381 1309h74z" />
    <glyph glyph-name="wcircumflex" unicode="&#x175;" horiz-adv-x="1544" 
d="M1024 1094l-254 276l-254 -276h-59l278 311h68h4l276 -311h-59zM1124 63l314 932h71l-338 -995h-88l-311 901l-309 -901h-90l-338 995h71l316 -932l315 932h72z" />
    <glyph glyph-name="Ycircumflex" unicode="&#x176;" horiz-adv-x="1214" 
d="M860 1503l-254 277l-254 -277h-59l278 312h68h4l277 -312h-60zM1110 1405h82l-549 -770v-635h-72v635l-548 770h79l504 -709z" />
    <glyph glyph-name="ycircumflex" unicode="&#x177;" horiz-adv-x="980" 
d="M743 1094l-254 276l-253 -276h-60l279 311h67h4l277 -311h-60zM492 193l395 802h71l-690 -1394h-73l264 524l-436 870h73z" />
    <glyph glyph-name="Ydieresis" unicode="&#x178;" horiz-adv-x="1214" 
d="M498 1581q-34 0 -48 26.5t0 52.5t48 26q33 0 46.5 -26t0 -52.5t-46.5 -26.5zM760 1597q-28 -27 -61 -12.5t-33 49.5q0 52 53 52q37 0 51.5 -32t-10.5 -57zM1110 1405h82l-549 -770v-635h-72v635l-548 770h79l504 -709z" />
    <glyph glyph-name="Zacute" unicode="&#x179;" horiz-adv-x="1220" 
d="M850 1815h70l-287 -312h-60zM1128 1343l-954 -1277h954v-66h-1038v61l954 1278h-950v66h1034v-62z" />
    <glyph glyph-name="zacute" unicode="&#x17a;" horiz-adv-x="1028" 
d="M756 1405h69l-286 -311h-60zM954 942l-794 -883h796v-59h-884v53l796 883h-794v59h880v-53z" />
    <glyph glyph-name="Zdotaccent" unicode="&#x17b;" horiz-adv-x="1220" 
d="M610 1606q-55 0 -55 53q0 55 55 55q54 0 54 -55q0 -24 -15 -38.5t-39 -14.5zM1128 1343l-954 -1277h954v-66h-1038v61l954 1278h-950v66h1034v-62z" />
    <glyph glyph-name="zdotaccent" unicode="&#x17c;" horiz-adv-x="1028" 
d="M514 1196q-55 0 -55 53q0 56 55 56q53 0 53 -56q0 -24 -14.5 -38.5t-38.5 -14.5zM954 942l-794 -883h796v-59h-884v53l796 883h-794v59h880v-53z" />
    <glyph glyph-name="Zcaron" unicode="&#x17d;" horiz-adv-x="1220" 
d="M645 1503h-72l-276 312h59l254 -277l254 277h60zM1128 1343l-954 -1277h954v-66h-1038v61l954 1278h-950v66h1034v-62z" />
    <glyph glyph-name="zcaron" unicode="&#x17e;" horiz-adv-x="1028" 
d="M549 1094h-72l-276 311h59l254 -277l254 277h59zM954 942l-794 -883h796v-59h-884v53l796 883h-794v59h880v-53z" />
    <glyph glyph-name="florin" unicode="&#x192;" horiz-adv-x="870" 
d="M711 1405h57v-59h-59q-63 0 -107.5 -40t-56.5 -106l-80 -446h190v-56h-200l-162 -905q-17 -94 -80 -148.5t-154 -54.5h-57v58h59q62 0 107.5 40t58.5 107l160 903h-190v56h200l80 446q17 94 80 149.5t154 55.5z" />
    <glyph glyph-name="AEacute" unicode="&#x1fc;" horiz-adv-x="1761" 
d="M1137 1815h69l-286 -312h-60zM1669 1405v-66h-954l248 -594h628v-63h-602l258 -616h422v-66h-450h-21l-168 403h-768l-166 -403h-76l584 1405h84h981zM647 1329l-358 -864h717z" />
    <glyph glyph-name="aeacute" unicode="&#x1fd;" horiz-adv-x="2168" 
d="M1321 1409h70l-287 -311h-60zM2091 500q0 -17 -2 -23h-965q6 -189 133 -313q126 -123 318 -123q155 0 276 92t156 238h72q-40 -169 -181 -279q-138 -108 -321 -108q-159 0 -281 74.5t-184 205.5v-264h-68v270q-60 -134 -181.5 -210t-276.5 -76q-218 0 -363 145
q-143 143 -143 369q0 225 143 368q146 146 363 146q155 0 276.5 -76.5t181.5 -210.5v270h68v-264q62 131 184.5 206t280.5 75q225 0 369 -144q142 -142 145 -368zM1888 836q-124 118 -313 118q-187 0 -311 -118q-128 -122 -140 -304h901q-12 185 -137 304zM276 172
q126 -129 320 -129q196 0 322 129q126 126 126 326q0 198 -126 327q-127 127 -322 127q-193 0 -320 -127q-126 -129 -126 -327q0 -200 126 -326z" />
    <glyph glyph-name="Scommaaccent" unicode="&#x218;" horiz-adv-x="1153" 
d="M580 1421q208 0 331.5 -104.5t130.5 -292.5h-71q-7 160 -111 248t-282 88q-174 0 -279.5 -83.5t-105.5 -225.5q-1 -48 14 -87.5t37.5 -68t62 -52.5t75 -38.5t90.5 -29.5t94 -22.5t100.5 -20t95.5 -19.5q139 -32 224 -116t85 -222q0 -177 -135 -285q-132 -106 -358 -106
q-231 0 -365.5 117.5t-140.5 314.5h69q5 -168 121.5 -269.5t317.5 -101.5q190 0 303.5 89t113.5 241q0 74 -30 127.5t-81 85t-116.5 53t-138.5 36t-146 30t-138.5 40.5t-116.5 61t-81 97t-30 144q0 171 125.5 271.5t335.5 100.5zM438 -436l111 334h59l-121 -334h-49z" />
    <glyph glyph-name="scommaaccent" unicode="&#x219;" horiz-adv-x="917" 
d="M219 942q91 70 242 70q149 0 241 -74q93 -75 93 -193h-66q0 94 -73.5 152.5t-194.5 58.5t-193.5 -54t-72.5 -142q0 -62 20 -100.5t66 -61.5q47 -25 83 -36.5t109 -24.5q181 -40 244 -80q99 -65 102 -199q0 -123 -98.5 -198.5t-257.5 -75.5t-258.5 76.5t-104.5 201.5h66
q2 -100 84.5 -162.5t212.5 -62.5q129 0 209 60.5t80 158.5q-8 76 -35.5 116.5t-91.5 63.5q-11 3 -76 25q-24 5 -92 18q-107 19 -181 49q-48 19 -79 50q-70 66 -70 178q0 115 92 186zM319 -438l111 334h59l-120 -334h-50z" />
    <glyph glyph-name="uni021A" unicode="&#x21a;" horiz-adv-x="1107" 
d="M39 1405h1030v-66h-479v-1339h-72v1339h-479v66zM465 -436h-49l110 334h60z" />
    <glyph glyph-name="uni021B" unicode="&#x21b;" horiz-adv-x="550" 
d="M289 995h231v-59h-231v-936h-66v936h-186v59h186v250h66v-250zM168 -438h-49l110 334h60z" />
    <glyph glyph-name="circumflex" unicode="&#x2c6;" horiz-adv-x="626" 
d="M348 1405l279 -311h-60l-254 276l-254 -276h-59l276 311h68h4z" />
    <glyph glyph-name="caron" unicode="&#x2c7;" horiz-adv-x="626" 
d="M313 1128l254 277h60l-279 -311h-67h-5l-276 311h59z" />
    <glyph glyph-name="breve" unicode="&#x2d8;" horiz-adv-x="550" 
d="M0 1368h51q0 -98 63 -162.5t160 -64.5q98 0 162 64.5t64 162.5h51q0 -118 -79 -197t-198 -79q-118 0 -196 78.5t-78 197.5z" />
    <glyph glyph-name="dotaccent" unicode="&#x2d9;" horiz-adv-x="108" 
d="M109 1249q0 -24 -15 -38.5t-39 -14.5q-55 0 -55 53q0 56 55 56q54 0 54 -56z" />
    <glyph glyph-name="ring" unicode="&#x2da;" horiz-adv-x="409" 
d="M57 1442q57 57 148 57q90 0 147 -57q58 -58 58 -148t-58 -145q-57 -57 -147 -57q-91 0 -148 57t-57 145q0 91 57 148zM317 1407q-32 35 -81 42.5t-91.5 -9.5t-71 -56.5t-24.5 -89.5q0 -66 44.5 -110.5t111.5 -44.5t112 44.5t45 110.5q0 68 -45 113z" />
    <glyph glyph-name="ogonek" unicode="&#x2db;" horiz-adv-x="256" 
d="M0 -258q0 79 61 153t170 128l25 -23q-199 -111 -199 -248q0 -58 38.5 -93.5t103.5 -35.5q31 0 49 6v-49q-21 -6 -55 -6q-87 0 -140 46.5t-53 121.5z" />
    <glyph glyph-name="tilde" unicode="&#x2dc;" horiz-adv-x="696" 
d="M190 1370q44 0 80 -23t61.5 -56t50 -65.5t56.5 -55.5t70 -23q62 0 102.5 57.5t40.5 145.5h45q0 -113 -53 -184.5t-137 -71.5q-37 0 -69 16.5t-54 41.5t-45.5 54.5t-43 54.5t-47.5 41.5t-59 16.5q-60 0 -101.5 -60.5t-41.5 -150.5h-45q0 115 54 188.5t136 73.5z" />
    <glyph glyph-name="hungarumlaut" unicode="&#x2dd;" horiz-adv-x="581" 
d="M0 1094l264 311h66l-277 -311h-53zM238 1094l278 311h66l-289 -311h-55z" />
    <glyph glyph-name="uni0326" unicode="&#x326;" horiz-adv-x="0" 
d="M-170 -410l111 334h59l-121 -334h-49z" />
    <glyph glyph-name="uni0394" unicode="&#x394;" horiz-adv-x="1292" 
d="M604 1405h84l586 -1405h-1254zM1176 59l-529 1268l-528 -1268h1057z" />
    <glyph glyph-name="uni03A9" unicode="&#x3a9;" horiz-adv-x="1294" 
d="M1225 791q0 -236 -119 -437q-120 -206 -309 -295h387v-59h-449v78q180 76 301 274q119 195 119 422q0 255 -143 420q-144 166 -365 166q-218 0 -362 -166t-144 -420q0 -227 119 -422q118 -198 299 -274v-78h-448v59h387q-187 88 -308 295q-118 199 -118 437
q0 273 164 452q163 178 411 178q251 0 414 -178q164 -179 164 -452z" />
    <glyph glyph-name="uni03BC" unicode="&#x3bc;" horiz-adv-x="1140" 
d="M926 418v577h67v-995h-67v225q-41 -115 -136 -178t-229 -63q-258 0 -346 229v-623h-65v1405h65v-577q0 -173 95.5 -276t256.5 -103q164 0 261.5 103t97.5 276z" />
    <glyph glyph-name="pi" unicode="&#x3c0;" horiz-adv-x="1230" 
d="M37 995h1163v-59h-186v-936h-66v936h-659v-936h-66v936h-186v59z" />
    <glyph glyph-name="uni058F" unicode="&#x58f;" horiz-adv-x="1433" 
d="M983 528v385q0 201 -112 322t-298 121t-298.5 -121t-112.5 -322v-32h-70v30q0 229 133 371q133 139 348 139q218 0 351 -139q131 -140 131 -371v-383h286v-51h-645v51h287zM983 283h-287v49h645v-49h-286v-283h-72v283z" />
    <glyph glyph-name="uni0E3F" unicode="&#xe3f;" horiz-adv-x="1245" 
d="M864 721q136 -23 218.5 -120t82.5 -236q0 -161 -102 -263q-105 -102 -264 -102h-193v-158h-55v158h-373v1405h373v158h55v-158h133q161 0 265 -98q102 -99 102 -252q0 -120 -65.5 -209t-176.5 -125zM1034 1044q0 126 -84 213q-87 84 -215 84h-487v-600h487q131 0 215 85
t84 218zM248 63h547q129 0 213 88t84 224q0 133 -84 219t-213 86h-547v-617z" />
    <glyph glyph-name="Wgrave" unicode="&#x1e80;" horiz-adv-x="1814" 
d="M668 1815l276 -312h-59l-287 312h70zM1325 98l383 1307h72l-412 -1405h-78l-383 1307l-383 -1307h-75l-414 1405h74l380 -1309l381 1309h74z" />
    <glyph glyph-name="wgrave" unicode="&#x1e81;" horiz-adv-x="1544" 
d="M530 1405l277 -311h-59l-287 311h69zM1124 63l314 932h71l-338 -995h-88l-311 901l-309 -901h-90l-338 995h71l316 -932l315 932h72z" />
    <glyph glyph-name="Wacute" unicode="&#x1e82;" horiz-adv-x="1814" 
d="M1149 1815h70l-287 -312h-60zM1325 98l383 1307h72l-412 -1405h-78l-383 1307l-383 -1307h-75l-414 1405h74l380 -1309l381 1309h74z" />
    <glyph glyph-name="wacute" unicode="&#x1e83;" horiz-adv-x="1544" 
d="M1014 1405h69l-286 -311h-60zM1124 63l314 932h71l-338 -995h-88l-311 901l-309 -901h-90l-338 995h71l316 -932l315 932h72z" />
    <glyph glyph-name="Wdieresis" unicode="&#x1e84;" horiz-adv-x="1814" 
d="M797 1581q-34 0 -48 26.5t0 52.5t48 26q33 0 46.5 -26t0 -52.5t-46.5 -26.5zM1059 1597q-28 -27 -61 -12.5t-33 49.5q0 52 53 52q37 0 51.5 -32t-10.5 -57zM1325 98l383 1307h72l-412 -1405h-78l-383 1307l-383 -1307h-75l-414 1405h74l380 -1309l381 1309h74z" />
    <glyph glyph-name="wdieresis" unicode="&#x1e85;" horiz-adv-x="1544" 
d="M662 1171q-34 0 -48 26.5t0 52.5t48 26q33 0 46.5 -26t0 -52.5t-46.5 -26.5zM924 1188q-28 -27 -61.5 -12.5t-33.5 49.5q0 51 54 51q37 0 51.5 -31.5t-10.5 -56.5zM1124 63l314 932h71l-338 -995h-88l-311 901l-309 -901h-90l-338 995h71l316 -932l315 932h72z" />
    <glyph glyph-name="uni1E9E" unicode="&#x1e9e;" horiz-adv-x="1273" 
d="M1069 1343l-348 -440q212 -18 344 -147q131 -128 131 -320q0 -195 -131 -323q-132 -129 -334 -129q-67 0 -133 14v68q73 -17 127 -17q172 0 285 113q112 109 112 276q0 180 -131 293q-133 115 -336 115v63l338 430h-745v-1339h-70v1405h70h821v-62z" />
    <glyph glyph-name="Ygrave" unicode="&#x1ef2;" horiz-adv-x="1214" 
d="M367 1815l276 -312h-59l-287 312h70zM1110 1405h82l-549 -770v-635h-72v635l-548 770h79l504 -709z" />
    <glyph glyph-name="ygrave" unicode="&#x1ef3;" horiz-adv-x="980" 
d="M250 1405l276 -311h-59l-287 311h70zM492 193l395 802h71l-690 -1394h-73l264 524l-436 870h73z" />
    <glyph glyph-name="endash" unicode="&#x2013;" horiz-adv-x="1198" 
d="M102 586v49h994v-49h-994z" />
    <glyph glyph-name="emdash" unicode="&#x2014;" horiz-adv-x="2185" 
d="M102 586v49h1983v-49h-1983z" />
    <glyph glyph-name="quoteleft" unicode="&#x2018;" horiz-adv-x="243" 
d="M219 1405l-119 -408h-69l131 408h57z" />
    <glyph glyph-name="quoteright" unicode="&#x2019;" horiz-adv-x="243" 
d="M25 997l118 408h72l-133 -408h-57z" />
    <glyph glyph-name="quotesinglbase" unicode="&#x201a;" horiz-adv-x="243" 
d="M25 -315l118 407h72l-133 -407h-57z" />
    <glyph glyph-name="quotedblleft" unicode="&#x201c;" horiz-adv-x="448" 
d="M219 1405l-119 -408h-69l131 408h57zM424 1405l-119 -408h-69l131 408h57z" />
    <glyph glyph-name="quotedblright" unicode="&#x201d;" horiz-adv-x="448" 
d="M25 997l118 408h72l-133 -408h-57zM229 997l119 408h72l-133 -408h-58z" />
    <glyph glyph-name="quotedblbase" unicode="&#x201e;" horiz-adv-x="448" 
d="M25 -315l118 407h72l-133 -407h-57zM229 -315l119 407h72l-133 -407h-58z" />
    <glyph glyph-name="dagger" unicode="&#x2020;" horiz-adv-x="1077" 
d="M573 920h461v-60h-461v-1270h-67v1270h-463v60h463v485h67v-485z" />
    <glyph glyph-name="daggerdbl" unicode="&#x2021;" horiz-adv-x="1116" 
d="M1055 920v-60h-461v-717h461v-59h-461v-494h-68v494h-465v59h465v717h-465v60h465v485h68v-485h461z" />
    <glyph glyph-name="bullet" unicode="&#x2022;" horiz-adv-x="647" 
d="M166 688q62 62 158 62q94 0 159 -62q62 -65 62 -160t-62 -157q-65 -62 -159 -62q-96 0 -158 62t-62 157t62 160z" />
    <glyph glyph-name="ellipsis" unicode="&#x2026;" horiz-adv-x="1116" 
d="M193 98q29 29 68.5 11.5t39.5 -58.5q0 -27 -17 -45t-46 -18q-40 0 -57 39.5t12 70.5zM559 115q29 0 45 -20t15.5 -43.5t-16.5 -43.5t-44 -20q-29 0 -46 17t-17 46q0 64 63 64zM834 98q29 29 68.5 11.5t39.5 -58.5q0 -29 -20 -45.5t-43.5 -16.5t-43.5 16.5t-20 45.5
q0 28 19 47z" />
    <glyph glyph-name="perthousand" unicode="&#x2030;" horiz-adv-x="2414" 
d="M655 1325q93 -93 93 -231q0 -140 -93 -230q-92 -92 -231 -92q-140 0 -229 92q-93 90 -93 230q0 138 93 231q89 92 229 92q139 0 231 -92zM354 0l832 1405h51l-829 -1405h-54zM150 1094q2 -119 79 -197t195 -78t199 78q77 77 77 197q0 118 -77 198q-78 78 -199 78
q-119 0 -196 -77.5t-78 -198.5zM936 539q93 90 231 90q139 0 232 -90q92 -92 92 -232q0 -139 -92 -231t-232 -92q-139 0 -231 92t-92 231q0 140 92 232zM1759 539q93 90 232 90q138 0 231 -90q92 -92 92 -232q0 -139 -92 -231t-231 -92q-140 0 -232 92t-92 231q0 140 92 232
zM971 111q77 -80 196 -80t197 78t78 198q0 119 -78 197t-197 78q-118 0 -196 -78t-78 -197q0 -118 78 -196zM1794 111q77 -80 197 -80q118 0 196 78t78 198q0 119 -78 197t-196 78q-119 0 -197 -78t-78 -197q0 -118 78 -196z" />
    <glyph glyph-name="guilsinglleft" unicode="&#x2039;" horiz-adv-x="530" 
d="M362 936h64l-287 -416l287 -414h-64l-288 414z" />
    <glyph glyph-name="guilsinglright" unicode="&#x203a;" horiz-adv-x="530" 
d="M104 936h64l289 -416l-289 -414h-64l287 414z" />
    <glyph glyph-name="fraction" unicode="&#x2044;" horiz-adv-x="395" 
d="M-236 0l809 1405h58l-809 -1405h-58z" />
    <glyph glyph-name="uni2070" unicode="&#x2070;" horiz-adv-x="937" 
d="M176 1700q108 129 293 129t293 -129t108 -348t-108 -348q-109 -130 -293 -130t-293 130q-108 129 -108 348t108 348zM717 1661q-92 115 -248 115q-157 0 -246 -115q-92 -115 -92 -309q0 -195 92 -310q89 -114 246 -114t248 114q92 115 92 310q0 194 -92 309z" />
    <glyph glyph-name="uni2074" unicode="&#x2074;" horiz-adv-x="845" 
d="M645 1169h191v-53h-191v-231h-61v231h-543v49l530 654h74v-650zM584 1169v582l-478 -582h478z" />
    <glyph glyph-name="uni2075" unicode="&#x2075;" horiz-adv-x="866" 
d="M440 1518q155 0 253 -90t98 -230q0 -143 -101 -231q-104 -93 -260 -93q-145 0 -245.5 78t-112.5 207h63q10 -104 93 -167.5t202 -63.5q129 0 213 77.5t84 196.5q0 117 -84 192.5t-213 75.5q-75 0 -149 -37t-109 -94h-59l73 480h54h497v-54h-506l-53 -354q94 107 262 107z
" />
    <glyph glyph-name="uni2076" unicode="&#x2076;" horiz-adv-x="860" 
d="M444 1520q146 0 250 -90q99 -88 99 -230q0 -141 -103 -233q-104 -93 -260 -93t-260 93q-102 91 -102 233q0 107 65 193l313 426h74l-262 -346q77 47 186 47zM215 1004q86 -80 215 -80t215 80q86 77 86 196t-84 197q-87 78 -217 78q-131 0 -215 -78q-86 -77 -86 -197
q0 -119 86 -196z" />
    <glyph glyph-name="uni2077" unicode="&#x2077;" horiz-adv-x="757" 
d="M41 1765v54h684v-50l-475 -884h-66l475 880h-618z" />
    <glyph glyph-name="uni2078" unicode="&#x2078;" horiz-adv-x="888" 
d="M575 1378q116 -25 183 -90t67 -155q0 -113 -107 -186t-274 -73t-274 73t-107 186q0 90 67 155t183 90q-95 23 -151 81.5t-56 135.5q0 103 94.5 168.5t243.5 65.5t243.5 -65.5t94.5 -168.5q0 -77 -56 -135.5t-151 -81.5zM166 1589q0 -85 78 -138.5t200 -53.5
q123 0 201 53.5t78 138.5q0 86 -78 139.5t-201 53.5t-200.5 -53.5t-77.5 -139.5zM219 985q88 -61 225 -61q140 0 228 61q90 59 90 152q0 94 -90.5 155.5t-227.5 61.5q-136 0 -225.5 -61.5t-89.5 -155.5q0 -93 90 -152z" />
    <glyph glyph-name="uni2079" unicode="&#x2079;" horiz-adv-x="858" 
d="M170 1737q103 92 260 92t260 -92t103 -234q0 -101 -66 -192l-313 -426h-74l266 350q-76 -49 -190 -49q-147 0 -248 90q-100 87 -100 227q0 143 102 234zM215 1309q84 -78 215 -78q130 0 217 78q84 78 84 194q0 119 -86 199q-87 78 -215 78t-215 -78q-86 -80 -86 -199
q0 -117 86 -194z" />
    <glyph glyph-name="uni2080" unicode="&#x2080;" horiz-adv-x="937" 
d="M176 406q108 129 293 129t293 -129t108 -349q0 -219 -108 -348t-293 -129t-293 129t-108 348q0 220 108 349zM717 367q-92 114 -248 114q-157 0 -246 -114q-92 -115 -92 -310q0 -194 92 -309q89 -115 246 -115q156 0 248 115t92 309q0 195 -92 310z" />
    <glyph glyph-name="uni2081" unicode="&#x2081;" horiz-adv-x="534" 
d="M307 524h51v-934h-59v809q-64 -98 -229 -98v55q103 0 170 47.5t67 120.5z" />
    <glyph glyph-name="uni2082" unicode="&#x2082;" horiz-adv-x="808" 
d="M145 -358h603v-52h-672v11q0 144 110 237q66 56 97 72q46 29 118 70q146 80 208.5 142.5t62.5 149.5q0 92 -72.5 151.5t-183.5 59.5q-107 0 -178.5 -58t-81.5 -159h-60q10 124 98 196.5t224 72.5q137 0 225 -72t88 -187q0 -102 -69 -175.5t-218 -155.5
q-167 -90 -227 -150q-69 -69 -72 -153z" />
    <glyph glyph-name="uni2083" unicode="&#x2083;" horiz-adv-x="864" 
d="M522 82q118 -20 189 -87.5t71 -158.5q0 -111 -98 -184q-104 -72 -254 -72q-157 0 -257 78.5t-101 210.5h63q1 -108 83 -173t212 -65q124 0 206.5 60t82.5 151q0 94 -86.5 154.5t-222.5 60.5h-50v45h50q123 0 198.5 53.5t75.5 139.5q0 82 -72 136t-182 54
q-116 0 -188.5 -60t-73.5 -159h-57q1 123 89 196t230 73q136 0 224.5 -66t88.5 -166q0 -81 -60.5 -141t-160.5 -80z" />
    <glyph glyph-name="uni2084" unicode="&#x2084;" horiz-adv-x="845" 
d="M645 -125h191v-53h-191v-232h-61v232h-543v49l530 653h74v-649zM584 -125v582l-478 -582h478z" />
    <glyph glyph-name="uni2085" unicode="&#x2085;" horiz-adv-x="870" 
d="M440 223q155 0 253 -89.5t98 -229.5q0 -143 -101 -234q-104 -90 -260 -90q-145 0 -245.5 78t-112.5 207h63q10 -104 93 -168t202 -64q129 0 213 78t84 197q0 117 -84 192.5t-213 75.5q-75 0 -149 -37t-109 -94h-59l73 479h54h497v-53h-506l-53 -354q90 106 262 106z" />
    <glyph glyph-name="uni2086" unicode="&#x2086;" horiz-adv-x="860" 
d="M444 225q146 0 250 -90q99 -89 99 -229q0 -142 -103 -234t-260 -92t-260 92q-102 92 -102 234q0 106 65 192l313 426h74l-262 -346q77 47 186 47zM215 -293q87 -78 215 -78t215 78q86 80 86 199q0 118 -84 196q-87 78 -217 78q-131 0 -215 -78q-86 -77 -86 -196t86 -199z
" />
    <glyph glyph-name="uni2087" unicode="&#x2087;" horiz-adv-x="757" 
d="M41 471v53h684v-49l-475 -885h-66l475 881h-618z" />
    <glyph glyph-name="uni2088" unicode="&#x2088;" horiz-adv-x="888" 
d="M575 84q116 -25 183 -90.5t67 -155.5q0 -113 -107 -185.5t-274 -72.5t-274 72.5t-107 185.5q0 90 67 155.5t183 90.5q-95 23 -151 81.5t-56 135.5q0 103 94.5 168.5t243.5 65.5t243.5 -65.5t94.5 -168.5q0 -77 -56 -135.5t-151 -81.5zM166 295q0 -85 78 -139t200 -54
q123 0 201 54t78 139q0 86 -77.5 139t-201.5 53q-123 0 -200.5 -53t-77.5 -139zM219 -311q91 -60 225 -60q137 0 228 60q90 63 90 153q0 94 -90.5 155.5t-227.5 61.5q-136 0 -225.5 -61.5t-89.5 -155.5q0 -90 90 -153z" />
    <glyph glyph-name="uni2089" unicode="&#x2089;" horiz-adv-x="860" 
d="M170 442q104 93 260 93t260 -93q103 -92 103 -233q0 -102 -66 -193l-313 -426h-74l264 349q-80 -50 -188 -50q-146 0 -248 91q-100 87 -100 229q0 141 102 233zM215 14q80 -77 215 -77q134 0 217 77q84 78 84 195q0 119 -86 199q-86 77 -215 77t-215 -77
q-86 -80 -86 -199q0 -118 86 -195z" />
    <glyph glyph-name="colonmonetary" unicode="&#x20a1;" horiz-adv-x="1599" 
d="M164 707q0 -197 92 -353.5t254 -236.5l-104 -275h-52l88 234q-166 93 -259 258t-93 373q0 312 203 512t518 200q83 0 135 -12l60 156h53l-88 -226q-81 19 -160 19q-283 0 -465 -182q-182 -185 -182 -467zM1516 860h-74q-68 302 -332 428l100 275h54l-88 -234
q134 -72 222.5 -194t117.5 -275zM811 49q240 0 414 139q170 139 217 365h74q-46 -254 -240 -410q-195 -157 -465 -157q-73 0 -141 12l-58 -156h-51l84 228q89 -21 166 -21z" />
    <glyph glyph-name="franc" unicode="&#x20a3;" horiz-adv-x="1208" 
d="M1118 1405v-66h-811v-514h676v-51h-893v51h146v580h882zM236 580h-146v49h893v-49h-676v-580h-71v580z" />
    <glyph glyph-name="lira" unicode="&#x20a4;" horiz-adv-x="1193" 
d="M293 735h555v-49h-764v49h137l2 58q3 271 187 452q182 176 458 176q81 0 152 -14v-70q-87 19 -152 19q-242 0 -407 -160q-163 -159 -166 -405zM213 66h881v-66h-1010v66q61 0 99 40t38 103v280h-137v50l764 2v-52h-555v-274q0 -102 -80 -149z" />
    <glyph glyph-name="uni20A6" unicode="&#x20a6;" horiz-adv-x="1511" 
d="M1276 737h145v-57h-145v-680h-98l-871 1323v-1323h-71v680h-146v57h146v668h96l872 -1323v1323h72v-668z" />
    <glyph glyph-name="uni20A9" unicode="&#x20a9;" horiz-adv-x="1923" 
d="M995 1405l381 -1307l158 537h299v-49h-242l-174 -586h-76l-380 1303l-381 -1303h-74l-174 586h-242v49h299l156 -537l383 1307h67zM92 1405h74l182 -625h-258v51h172zM1831 1405l-170 -574h172v-51h-258l182 625h74z" />
    <glyph glyph-name="uni20AA" unicode="&#x20aa;" horiz-adv-x="1386" 
d="M496 1151h-289v-1151h-57v1206h354q183 0 290 -102t107 -273v-524h-59v524q0 148 -93 234t-253 86zM1190 375v831h57v-831q0 -173 -105.5 -274t-289.5 -101h-356v899h57v-844h293q160 0 252 86t92 234z" />
    <glyph glyph-name="dong" unicode="&#x20ab;" horiz-adv-x="1263" 
d="M1112 1208h102v-49h-102v-1159h-68v270q-60 -134 -181.5 -210t-276.5 -76q-218 0 -363 145q-143 143 -143 369q0 225 143 368q146 146 363 146q155 0 276.5 -76.5t181.5 -210.5v434h-374v49h374v197h68v-197zM276 172q126 -129 320 -129q196 0 322 129q126 126 126 326
q0 198 -126 327q-127 127 -322 127q-193 0 -320 -127q-126 -129 -126 -327q0 -200 126 -326zM920 -225h-545v49h545v-49z" />
    <glyph glyph-name="Euro" unicode="&#x20ac;" horiz-adv-x="1187" 
d="M283 831h657l-14 -51h-854v51h135q41 263 237 426q194 164 474 164q100 0 176 -20l-17 -64q-97 19 -159 19q-244 0 -422 -146q-172 -141 -213 -379zM862 586h-581q41 -243 213 -387q176 -150 424 -150q80 0 167 23v-72q-91 -16 -167 -16q-284 0 -476 168
q-194 164 -235 434h-135v49h805z" />
    <glyph glyph-name="uni20AD" unicode="&#x20ad;" horiz-adv-x="1175" 
d="M414 684l700 -684h-92l-715 702v-702h-71v684h-146v57h146v664h71v-682l709 682h88l-688 -664h499v-57h-501z" />
    <glyph glyph-name="uni20AE" unicode="&#x20ae;" horiz-adv-x="1107" 
d="M1069 1405v-66h-479v-342l358 131v-53l-786 -291v56l356 131v368h-479v66h1030zM518 702l-356 -131v54l786 290v-53l-358 -133v-729h-72v702z" />
    <glyph glyph-name="uni20B1" unicode="&#x20b1;" horiz-adv-x="1353" 
d="M1153 1110h150v-51h-175h-41q-23 132 -116 206t-240 74h-424v-280h-71h-146v51h146v295h501q159 0 270 -79t146 -216zM1087 913h216v-49h-150q-35 -141 -145 -221t-271 -80h-430v-563h-71v864h-146v49h176h41v-286h424q147 0 241.5 76t114.5 210z" />
    <glyph glyph-name="uni20B2" unicode="&#x20b2;" horiz-adv-x="1617" 
d="M1530 729v-22q0 -310 -193 -512t-499 -211v-142h-56v142q-302 9 -497 213t-195 510q0 302 195 503q196 202 497 211v142h56v-142q257 -9 442 -159q184 -153 231 -394h-73q-50 222 -219 357q-171 133 -408 133q-284 0 -465 -184q-182 -185 -182 -467q0 -286 182 -474
q180 -186 465 -186q271 0 453 176q181 175 190 445h-643v61h719z" />
    <glyph glyph-name="uni20B4" unicode="&#x20b4;" horiz-adv-x="1169" 
d="M885 831h194v-51h-987v51h694q123 83 123 226q0 130 -96.5 206t-261.5 76h-344v66h338q201 0 318.5 -93.5t117.5 -254.5q0 -139 -96 -226zM274 586h-182v49h987v-49h-700q-141 -82 -141 -238q0 -130 96 -206t260 -76h346v-66h-338q-201 0 -318.5 93t-117.5 253
q0 152 108 240z" />
    <glyph glyph-name="uni20B5" unicode="&#x20b5;" horiz-adv-x="1599" 
d="M811 49q240 0 414 139q170 139 217 365h74q-47 -249 -232 -406q-182 -154 -446 -163v-142h-56v142q-302 9 -497 213t-195 510q0 302 195 503q196 202 497 211v142h56v-142q263 -9 446 -161q185 -157 232 -400h-74q-50 221 -219 359q-171 137 -412 137q-283 0 -465 -182
q-182 -185 -182 -467q0 -286 182 -471q181 -187 465 -187z" />
    <glyph glyph-name="uni20B9" unicode="&#x20b9;" horiz-adv-x="1048" 
d="M127 1354v51h844v-51h-844zM750 1159h-623v49h844v-49h-142q21 -61 21 -141q0 -178 -108.5 -284.5t-288.5 -106.5h-189l613 -627h-89l-671 690h84h248q149 0 238 89.5t89 238.5q0 85 -26 141z" />
    <glyph glyph-name="uni20BA" unicode="&#x20ba;" horiz-adv-x="1222" 
d="M315 1108l543 201v-54l-786 -290v53l172 63v353h71v-326zM1016 717h67q0 -353 -173 -543t-502 -190q-84 0 -164 18v813l-172 -63v53l786 291v-56l-543 -200v-789q37 -6 93 -6q295 0 451.5 173.5t156.5 498.5z" />
    <glyph glyph-name="uni20BC" unicode="&#x20bc;" horiz-adv-x="1617" 
d="M842 1575v-162q329 -18 508 -385q178 -365 178 -1028h-72q0 641 -157.5 990t-456.5 368v-1014l-64 -25l-2 1039q-299 -20 -456.5 -369t-157.5 -989h-70q0 663 178 1028q176 367 506 385v137z" />
    <glyph glyph-name="uni20BD" unicode="&#x20bd;" horiz-adv-x="1269" 
d="M741 575h-434v-163h723v-56h-723v-356h-71v356h-146v56h146v993h505q195 0 310.5 -111.5t115.5 -300.5q0 -192 -115.5 -305t-310.5 -113zM997 735q97 97 97 256t-97 256q-95 92 -260 92h-430v-700h430q164 0 260 96z" />
    <glyph glyph-name="uni2113" unicode="&#x2113;" horiz-adv-x="903" 
d="M784 1126q0 -213 -145 -411q-144 -200 -406 -314q25 -171 88 -264.5t156 -93.5q35 0 76 12v-61q-42 -10 -74 -10q-164 0 -246 190q-83 189 -83 483q0 347 108 555q108 209 291 209q108 0 171.5 -77.5t63.5 -217.5zM227 453q240 110 369 286.5t129 378.5q0 123 -47 187.5
t-133 64.5q-152 0 -240 -192t-88 -514q0 -91 10 -211z" />
    <glyph glyph-name="uni2116" unicode="&#x2116;" horiz-adv-x="2215" 
d="M268 1405l858 -1309v1309h72v-1405h-92l-858 1309v-1309h-70v1405h90zM1786 479q-146 0 -242 96t-96 240q0 146 96 242q94 94 242 94q150 0 244 -94q96 -96 96 -242q0 -144 -96 -240t-244 -96zM1786 1102q-122 0 -201.5 -81.5t-79.5 -205.5t79.5 -205.5t201.5 -81.5
q123 0 202.5 81t79.5 206t-79.5 206t-202.5 81zM2107 295h-641v55h641v-55z" />
    <glyph glyph-name="trademark" unicode="&#x2122;" horiz-adv-x="1527" 
d="M301 1358h-238v47h523v-47h-234v-662h-51v662zM1061 756l293 649h71v-709h-51v635l-284 -635h-60l-285 635v-635h-51v709h74z" />
    <glyph glyph-name="oneeighth" unicode="&#x215b;" horiz-adv-x="1822" 
d="M358 1405v-934h-59v809q-64 -98 -229 -98v55q103 0 170 47.5t67 120.5h51zM303 0l809 1405h57l-809 -1405h-57zM1509 494q116 -25 183 -90.5t67 -155.5q0 -113 -107 -185.5t-274 -72.5t-274 72.5t-107 185.5q0 90 67 155.5t183 90.5q-95 23 -151 81.5t-56 135.5
q0 103 94.5 168t243.5 65t243.5 -65t94.5 -168q0 -77 -56 -135.5t-151 -81.5zM1100 705q0 -85 78 -139t200 -54q123 0 201 54t78 139q0 86 -77.5 139t-201.5 53q-123 0 -200.5 -53t-77.5 -139zM1153 100q88 -61 225 -61q140 0 228 61q90 59 90 152q0 94 -90.5 155.5
t-227.5 61.5q-136 0 -225.5 -61.5t-89.5 -155.5q0 -93 90 -152z" />
    <glyph glyph-name="threeeighths" unicode="&#x215c;" horiz-adv-x="2148" 
d="M782 717q0 -112 -98 -182q-103 -74 -254 -74q-156 0 -256.5 79.5t-101.5 209.5h63q1 -108 83 -173t212 -65q124 0 206.5 60t82.5 151q0 95 -85.5 155t-223.5 60h-50v45h50q123 0 198.5 53.5t75.5 139.5q0 82 -72 136t-182 54q-116 0 -188.5 -60t-73.5 -159h-57
q1 123 89 195.5t230 72.5q136 0 224.5 -65.5t88.5 -165.5q0 -81 -60.5 -141t-160.5 -80q118 -20 189 -87.5t71 -158.5zM629 0l809 1405h57l-809 -1405h-57zM1835 494q116 -25 183 -90.5t67 -155.5q0 -113 -107 -185.5t-274 -72.5t-274 72.5t-107 185.5q0 90 67 155.5
t183 90.5q-95 23 -151 81.5t-56 135.5q0 103 94.5 168t243.5 65t243.5 -65t94.5 -168q0 -77 -56 -135.5t-151 -81.5zM1425 705q0 -85 78.5 -139t200.5 -54q123 0 200.5 54t77.5 139q0 86 -77.5 139t-200.5 53q-124 0 -201.5 -53t-77.5 -139zM1479 100q88 -61 225 -61
q139 0 227 61q90 59 90 152q0 94 -90 155.5t-227 61.5q-136 0 -225.5 -61.5t-89.5 -155.5q0 -93 90 -152z" />
    <glyph glyph-name="fiveeighths" unicode="&#x215d;" horiz-adv-x="2099" 
d="M791 784q0 -143 -101 -231q-103 -92 -260 -92q-145 0 -245.5 77.5t-112.5 206.5h63q10 -104 93 -167.5t202 -63.5q129 0 213 77.5t84 196.5q0 117 -84 193t-213 76q-75 0 -149 -37t-109 -94h-59l73 479h54h497v-53h-506l-53 -355q94 107 262 107q155 0 253 -90t98 -230z
M580 0l809 1405h57l-809 -1405h-57zM1786 494q116 -25 183 -90.5t67 -155.5q0 -113 -107 -185.5t-274 -72.5t-274 72.5t-107 185.5q0 90 67 155.5t183 90.5q-95 23 -151 81.5t-56 135.5q0 103 94.5 168t243.5 65t243.5 -65t94.5 -168q0 -77 -56 -135.5t-151 -81.5zM1376 705
q0 -85 78.5 -139t200.5 -54q123 0 200.5 54t77.5 139q0 86 -77.5 139t-200.5 53q-124 0 -201.5 -53t-77.5 -139zM1430 100q88 -61 225 -61q139 0 227 61q90 59 90 152q0 94 -90 155.5t-227 61.5t-226.5 -61.5t-89.5 -155.5q0 -92 91 -152z" />
    <glyph glyph-name="seveneighths" unicode="&#x215e;" horiz-adv-x="1810" 
d="M41 1405h684v-49l-475 -885h-66l475 881h-618v53zM291 0l809 1405h57l-809 -1405h-57zM1497 494q116 -25 183 -90.5t67 -155.5q0 -113 -107 -185.5t-274 -72.5t-274 72.5t-107 185.5q0 90 67 155.5t183 90.5q-95 23 -151 81.5t-56 135.5q0 103 94.5 168t243.5 65
t243.5 -65t94.5 -168q0 -77 -56 -135.5t-151 -81.5zM1087 705q0 -85 78.5 -139t200.5 -54q123 0 201 54t78 139q0 86 -77.5 139t-201.5 53t-201.5 -53t-77.5 -139zM1141 100q88 -61 225 -61q139 0 227 61q90 59 90 152q0 94 -90 155.5t-227 61.5q-136 0 -225.5 -61.5
t-89.5 -155.5q0 -93 90 -152z" />
    <glyph glyph-name="arrowleft" unicode="&#x2190;" horiz-adv-x="1617" 
d="M201 729h1319v-53h-1319l415 -414h-75l-443 440l443 441h75z" />
    <glyph glyph-name="arrowup" unicode="&#x2191;" horiz-adv-x="1077" 
d="M539 1421l440 -442v-76l-414 416v-1319h-53v1319l-414 -416v76z" />
    <glyph glyph-name="arrowright" unicode="&#x2192;" horiz-adv-x="1617" 
d="M1001 1143h76l443 -441l-443 -440h-76l416 414h-1319v53h1319z" />
    <glyph glyph-name="arrowdown" unicode="&#x2193;" horiz-adv-x="1077" 
d="M565 1405v-1321l414 416v-76l-440 -440l-441 440v76l414 -416v1321h53z" />
    <glyph glyph-name="uni2196" unicode="&#x2196;" horiz-adv-x="1251" 
d="M221 1155l934 -934l-39 -37l-934 932l2 -586l-53 54v624l623 -2l53 -53z" />
    <glyph glyph-name="uni2197" unicode="&#x2197;" horiz-adv-x="1251" 
d="M446 1151l54 53l622 2v-622l-55 -54l2 584l-932 -932l-39 39l934 932z" />
    <glyph glyph-name="uni2198" unicode="&#x2198;" horiz-adv-x="1251" 
d="M1067 874l53 -53l2 -622h-624l-54 55l586 -2l-932 932l37 39l934 -932z" />
    <glyph glyph-name="uni2199" unicode="&#x2199;" horiz-adv-x="1251" 
d="M1114 1223l39 -39l-932 -934l586 2l-53 -53h-625l2 622l53 53l-2 -585z" />
    <glyph glyph-name="partialdiff" unicode="&#x2202;" horiz-adv-x="1214" 
d="M489 1405h84q288 -208 420 -444q131 -235 131 -447q0 -235 -145 -383q-144 -147 -373 -147q-225 0 -370 145q-146 146 -146 369q0 225 143 368q146 146 367 146q254 0 395 -187q-143 332 -506 580zM287 172q126 -129 319 -129q196 0 322 129q127 127 127 326
q0 197 -127 327q-127 127 -322 127q-192 0 -319 -127q-127 -130 -127 -327q0 -199 127 -326z" />
    <glyph glyph-name="emptyset" unicode="&#x2205;" horiz-adv-x="1206" 
d="M1083 1124l33 -32l-141 -144q131 -146 131 -338q0 -204 -148 -352q-147 -147 -352 -147q-195 0 -338 131l-145 -144l-33 33l143 143q-131 146 -131 336q0 208 150 355q147 147 354 147q194 0 334 -131zM160 610q0 -170 112 -297l629 629q-128 113 -295 113
q-183 0 -315 -129q-131 -131 -131 -316zM1049 610q0 170 -115 297l-627 -626q127 -115 299 -115q183 0 314 131q129 132 129 313z" />
    <glyph glyph-name="product" unicode="&#x220f;" horiz-adv-x="1329" 
d="M248 1405h903v-1610h-72v1544h-831v-1544h-70v1610h70z" />
    <glyph glyph-name="summation" unicode="&#x2211;" horiz-adv-x="1095" 
d="M76 1405h928v-66h-861l725 -739l-725 -741h861v-64h-928v88l696 717l-696 715v90z" />
    <glyph glyph-name="minus" unicode="&#x2212;" horiz-adv-x="911" 
d="M102 594v49h707v-49h-707z" />
    <glyph glyph-name="radical" unicode="&#x221a;" horiz-adv-x="1458" 
d="M723 -141l651 1546h60l-678 -1610h-68l-342 813h-244v47h285z" />
    <glyph glyph-name="infinity" unicode="&#x221e;" horiz-adv-x="1318" 
d="M983 983q116 0 189 -80t73 -205q0 -124 -73 -203t-189 -79q-95 0 -167.5 57t-156.5 186q-82 -128 -154.5 -185.5t-168.5 -57.5q-116 0 -189 79t-73 203q0 125 73 205t189 80q96 0 168.5 -58t154.5 -186q82 128 155 186t169 58zM338 467q153 0 291 231q-67 116 -136 175
t-155 59q-92 0 -150.5 -65.5t-58.5 -168.5q0 -100 58.5 -165.5t150.5 -65.5zM979 467q92 0 151.5 65.5t59.5 165.5q0 103 -59 168.5t-152 65.5q-157 0 -289 -234q132 -231 289 -231z" />
    <glyph glyph-name="integral" unicode="&#x222b;" horiz-adv-x="557" 
d="M446 1421q40 0 64 -8v-65q-35 12 -64 12q-61 0 -99 -39t-38 -102v-1219q0 -91 -56 -147t-147 -56q-36 0 -63 8v64q30 -10 63 -10q62 0 100 39t38 102v1219q0 91 55.5 146.5t146.5 55.5z" />
    <glyph glyph-name="approxequal" unicode="&#x2248;" horiz-adv-x="854" 
d="M102 696v56q74 45 177 45q64 0 149 -31q79 -33 147 -33q93 0 179 45v-53q-86 -47 -181 -47q-68 0 -147 33q-77 32 -150 32q-91 0 -174 -47zM102 461v53q83 47 177 47q70 0 149 -33q77 -32 147 -32q93 0 179 47v-56q-80 -45 -181 -45q-68 0 -147 33q-85 31 -150 31
q-91 0 -174 -45z" />
    <glyph glyph-name="notequal" unicode="&#x2260;" horiz-adv-x="854" 
d="M754 756v-47h-267l-67 -179h334v-47h-353l-79 -215h-54l82 215h-248v47h267l65 179h-332v47h351l82 213h53l-82 -213h248z" />
    <glyph glyph-name="lessequal" unicode="&#x2264;" horiz-adv-x="903" 
d="M106 700l695 351v-58l-639 -315l639 -318v-57l-695 348v49zM801 229h-699v50h699v-50z" />
    <glyph glyph-name="greaterequal" unicode="&#x2265;" horiz-adv-x="903" 
d="M102 1051l695 -351v-49l-695 -348v57l639 318l-639 315v58zM102 229v50h699v-50h-699z" />
    <glyph glyph-name="lozenge" unicode="&#x25ca;" horiz-adv-x="1263" 
d="M98 614l533 535l534 -535l-534 -534zM631 160l456 454l-456 455l-455 -455z" />
    <glyph glyph-name="null" horiz-adv-x="0" 
 />
    <glyph glyph-name="A.calt01" horiz-adv-x="1482" 
d="M2 0l1206 1405h99v-1405h-72v328h-868l-279 -328h-86zM1235 1343l-815 -954h815v954z" />
    <glyph glyph-name="Aacute.calt01" horiz-adv-x="1482" 
d="M1499 1815h70l-287 -312h-59zM88 0h-86l1206 1405h99v-1405h-72v328h-868zM1235 1343l-815 -954h815v954z" />
    <glyph glyph-name="Abreve.calt01" horiz-adv-x="1482" 
d="M1483 1778h51q0 -118 -79 -197.5t-198 -79.5q-118 0 -196 79t-78 198h51q0 -98 63 -163t160 -65q98 0 162 65t64 163zM88 0h-86l1206 1405h99v-1405h-72v328h-868zM1235 1343l-815 -954h815v954z" />
    <glyph glyph-name="Acircumflex.calt01" horiz-adv-x="1482" 
d="M1288 1815h4l277 -312h-60l-254 277l-254 -277h-59l279 312h67zM88 0h-86l1206 1405h99v-1405h-72v328h-868zM1235 1343l-815 -954h815v954z" />
    <glyph glyph-name="Adieresis.calt01" horiz-adv-x="1482" 
d="M1147 1581q-34 0 -48 26.5t0 52.5t48 26q33 0 46.5 -26t0 -52.5t-46.5 -26.5zM1368 1686q37 0 51.5 -32t-10.5 -57q-28 -27 -61 -12.5t-33 49.5q0 52 53 52zM88 0h-86l1206 1405h99v-1405h-72v328h-868zM1235 1343l-815 -954h815v954z" />
    <glyph glyph-name="Agrave.calt01" horiz-adv-x="1482" 
d="M1016 1815l276 -312h-59l-287 312h70zM2 0l1206 1405h99v-1405h-72v328h-868l-279 -328h-86zM1235 1343l-815 -954h815v954z" />
    <glyph glyph-name="Amacron.calt01" horiz-adv-x="1482" 
d="M985 1614v49h545v-49h-545zM88 0h-86l1206 1405h99v-1405h-72v328h-868zM1235 1343l-815 -954h815v954z" />
    <glyph glyph-name="Aogonek.calt01" horiz-adv-x="1482" 
d="M2 0l1206 1405h99v-1405h-19q-198 -110 -198 -248q0 -58 38 -93.5t103 -35.5q31 0 49 6v-49q-21 -6 -55 -6q-87 0 -140 46.5t-53 121.5q0 152 203 266v320h-868l-279 -328h-86zM1235 1343l-815 -954h815v954z" />
    <glyph glyph-name="Aring.calt01" horiz-adv-x="1482" 
d="M1468 1563q0 -78 -44.5 -132.5t-116.5 -66.5v-1364h-72v328h-868l-279 -328h-86l1180 1374q-123 46 -123 189q0 90 57 146t148 56q90 0 147 -57t57 -145zM1153 1452q43 -44 111 -44t112 44q43 43 43 111t-43 112q-44 43 -112 43t-111 -43q-44 -44 -44 -112t44 -111z
M1235 1343l-815 -954h815v954z" />
    <glyph glyph-name="Atilde.calt01" horiz-adv-x="1482" 
d="M1561 1759h45q0 -113 -53 -184.5t-138 -71.5q-44 0 -80.5 23.5t-62 56.5t-50 66t-56.5 56.5t-68 23.5q-60 0 -102 -60.5t-42 -150.5h-45q0 115 54.5 188.5t136.5 73.5q37 0 69 -16.5t53 -41.5t44 -54t43 -54t48 -41.5t60 -16.5q62 0 103 57.5t41 145.5zM88 0h-86
l1206 1405h99v-1405h-72v328h-868zM1235 1343l-815 -954h815v954z" />
    <glyph glyph-name="AE.calt01" horiz-adv-x="2246" 
d="M2154 1405v-66h-847v-594h770v-63h-770v-616h847v-66h-884h-35v328h-868l-279 -328h-86l1206 1405h99h847zM1235 1343l-815 -954h815v954z" />
    <glyph glyph-name="AEacute.calt01" horiz-adv-x="2246" 
d="M1518 1815h69l-287 -312h-59zM2154 1405v-66h-847v-594h770v-63h-770v-616h847v-66h-884h-35v328h-868l-279 -328h-86l1206 1405h99h847zM1235 1343l-815 -954h815v954z" />
    <glyph glyph-name="M.calt01" horiz-adv-x="2711" 
d="M1298 88l1145 1317h88v-1405h-69v1333l-1151 -1333h-76v1333l-1151 -1333h-82l1204 1405h92v-1317z" />
    <glyph glyph-name="V.calt01" horiz-adv-x="1484" 
d="M1235 61v1344h72v-1405h-97l-1208 1405h86z" />
    <glyph glyph-name="W.calt01" horiz-adv-x="2711" 
d="M2462 74v1331h71v-1405h-90l-1145 1319v-1319h-90l-1206 1405h84l1149 -1331v1331h78z" />
    <glyph glyph-name="Wacute.calt01" horiz-adv-x="2711" 
d="M1511 1815h70l-287 -312h-59zM2462 74v1331h71v-1405h-90l-1145 1319v-1319h-90l-1206 1405h84l1149 -1331v1331h78z" />
    <glyph glyph-name="Wcircumflex.calt01" horiz-adv-x="2711" 
d="M1522 1503l-254 277l-254 -277h-60l279 312h67h5l276 -312h-59zM2462 74v1331h71v-1405h-90l-1145 1319v-1319h-90l-1206 1405h84l1149 -1331v1331h78z" />
    <glyph glyph-name="Wdieresis.calt01" horiz-adv-x="2711" 
d="M1159 1581q-34 0 -48 26.5t0 52.5t48 26q33 0 46.5 -26t0 -52.5t-46.5 -26.5zM1421 1597q-28 -27 -61 -12.5t-33 49.5q0 52 53 52q37 0 51.5 -32t-10.5 -57zM2462 74v1331h71v-1405h-90l-1145 1319v-1319h-90l-1206 1405h84l1149 -1331v1331h78z" />
    <glyph glyph-name="Wgrave.calt01" horiz-adv-x="2711" 
d="M1028 1815l277 -312h-60l-287 312h70zM2462 74v1331h71v-1405h-90l-1145 1319v-1319h-90l-1206 1405h84l1149 -1331v1331h78z" />
    <glyph glyph-name="X.calt01" horiz-adv-x="1413" 
d="M752 713l612 -713h-84l-573 668l-572 -668h-86l613 713l-594 692h86l553 -649l555 649h84z" />
    <glyph glyph-name="Y.calt01" horiz-adv-x="1388" 
d="M705 707l598 698h83l-1204 -1405h-84l564 655l-637 750h81z" />
    <glyph glyph-name="Yacute.calt01" horiz-adv-x="1388" 
d="M948 1815h70l-287 -312h-59zM705 707l598 698h83l-1204 -1405h-84l564 655l-637 750h81z" />
    <glyph glyph-name="Ycircumflex.calt01" horiz-adv-x="1388" 
d="M958 1503l-253 277l-254 -277h-60l279 312h67h4l277 -312h-60zM705 707l598 698h83l-1204 -1405h-84l564 655l-637 750h81z" />
    <glyph glyph-name="Ydieresis.calt01" horiz-adv-x="1388" 
d="M596 1581q-34 0 -48 26.5t0 52.5t48 26q33 0 46.5 -26t0 -52.5t-46.5 -26.5zM858 1597q-28 -27 -61 -12.5t-33 49.5q0 52 53 52q37 0 51.5 -32t-10.5 -57zM705 707l598 698h83l-1204 -1405h-84l564 655l-637 750h81z" />
    <glyph glyph-name="Ygrave.calt01" horiz-adv-x="1388" 
d="M465 1815l276 -312h-59l-287 312h70zM705 707l598 698h83l-1204 -1405h-84l564 655l-637 750h81z" />
    <glyph glyph-name="A.calt02" horiz-adv-x="1484" 
d="M1481 0h-84l-281 328h-868v-328h-70v1405h96zM248 1343v-954h815z" />
    <glyph glyph-name="Aacute.calt02" horiz-adv-x="1484" 
d="M469 1815h70l-287 -312h-59zM1481 0h-84l-281 328h-868v-328h-70v1405h96zM248 1343v-954h815z" />
    <glyph glyph-name="Abreve.calt02" horiz-adv-x="1484" 
d="M453 1778h51q0 -119 -78 -198t-199 -79q-118 0 -196 79t-78 198h51q0 -98 63 -163t160 -65q98 0 162 65t64 163zM1481 0h-84l-281 328h-868v-328h-70v1405h96zM248 1343v-954h815z" />
    <glyph glyph-name="Acircumflex.calt02" horiz-adv-x="1484" 
d="M539 1503h-60l-254 277l-254 -277h-59l278 312h68h4zM1481 0h-84l-281 328h-868v-328h-70v1405h96zM248 1343v-954h815z" />
    <glyph glyph-name="Adieresis.calt02" horiz-adv-x="1484" 
d="M117 1686q33 0 46.5 -26t0 -52.5t-46.5 -26.5q-34 0 -48 26.5t0 52.5t48 26zM379 1597q-28 -27 -61 -12.5t-33 49.5q0 52 53 52q37 0 51.5 -32t-10.5 -57zM1481 0h-84l-281 328h-868v-328h-70v1405h96zM248 1343v-954h815z" />
    <glyph glyph-name="Agrave.calt02" horiz-adv-x="1484" 
d="M-14 1815l276 -312h-59l-287 312h70zM1481 0h-84l-281 328h-868v-328h-70v1405h96zM248 1343v-954h815z" />
    <glyph glyph-name="Amacron.calt02" horiz-adv-x="1484" 
d="M-45 1663h545v-49h-545v49zM1481 0h-84l-281 328h-868v-328h-70v1405h96zM248 1343v-954h815z" />
    <glyph glyph-name="Aogonek.calt02" horiz-adv-x="1484" 
d="M1481 0h-23q-198 -110 -198 -248q0 -58 38 -93.5t103 -35.5q31 0 49 6v-49q-21 -6 -55 -6q-87 0 -140 46.5t-53 121.5q0 152 193 260l-279 326h-868v-328h-70v1405h96zM248 1343v-954h815z" />
    <glyph glyph-name="Aring.calt02" horiz-adv-x="1484" 
d="M1481 0h-84l-281 328h-868v-328h-70v1364q-73 12 -117.5 66.5t-44.5 132.5q0 90 57 146t148 56q90 0 147.5 -57t57.5 -145q0 -66 -33.5 -115.5t-91.5 -73.5zM109 1675q-44 -44 -44 -112t44 -111q44 -44 112.5 -44t112.5 44q43 43 43 111t-43 112q-44 43 -112.5 43
t-112.5 -43zM248 1343v-954h815z" />
    <glyph glyph-name="Atilde.calt02" horiz-adv-x="1484" 
d="M385 1503q-44 0 -80.5 23.5t-62 56.5t-50 66t-56.5 56.5t-68 23.5q-62 0 -103 -60t-41 -151h-45q0 116 53 189t138 73q37 0 69 -16.5t53 -41.5t44 -54t43 -54t48 -41.5t60 -16.5q62 0 102.5 57.5t40.5 145.5h45q0 -113 -53 -184.5t-137 -71.5zM1481 0h-84l-281 328h-868
v-328h-70v1405h96zM248 1343v-954h815z" />
    <glyph glyph-name="AE.calt02" horiz-adv-x="2246" 
d="M2154 1405v-66h-847v-594h770v-63h-770v-616h847v-66h-884h-35v328h-868l-279 -328h-86l1206 1405h99h847zM1235 1343l-815 -954h815v954z" />
    <glyph glyph-name="AEacute.calt02" horiz-adv-x="2246" 
d="M1518 1815h69l-287 -312h-59zM2154 1405v-66h-847v-594h770v-63h-770v-616h847v-66h-884h-35v328h-868l-279 -328h-86l1206 1405h99h847zM1235 1343l-815 -954h815v954z" />
    <glyph glyph-name="M.calt02" horiz-adv-x="2709" 
d="M1503 1405l1204 -1405h-81l-1149 1331v-1331h-78l-1151 1333v-1333h-70v1405h90l1143 -1317v1317h92z" />
    <glyph glyph-name="V.calt02" horiz-adv-x="1482" 
d="M248 61l1149 1344h84l-1207 -1405h-96v1405h70v-1344z" />
    <glyph glyph-name="W.calt02" horiz-adv-x="2709" 
d="M1477 72l1149 1333h81l-1204 -1405h-92v1319l-1143 -1319h-90v1405h70v-1331l1151 1331h78v-1333z" />
    <glyph glyph-name="Wacute.calt02" horiz-adv-x="2709" 
d="M1679 1815h70l-287 -312h-59zM1477 72l1149 1333h81l-1204 -1405h-92v1319l-1143 -1319h-90v1405h70v-1331l1151 1331h78v-1333z" />
    <glyph glyph-name="Wcircumflex.calt02" horiz-adv-x="2709" 
d="M1692 1503l-254 277l-254 -277h-60l279 312h67h5l276 -312h-59zM1477 72l1149 1333h81l-1204 -1405h-92v1319l-1143 -1319h-90v1405h70v-1331l1151 1331h78v-1333z" />
    <glyph glyph-name="Wdieresis.calt02" horiz-adv-x="2709" 
d="M1329 1581q-34 0 -48 26.5t0 52.5t48 26q33 0 46.5 -26t0 -52.5t-46.5 -26.5zM1591 1597q-28 -27 -61 -12.5t-33 49.5q0 52 53 52q37 0 51.5 -32t-10.5 -57zM1477 72l1149 1333h81l-1204 -1405h-92v1319l-1143 -1319h-90v1405h70v-1331l1151 1331h78v-1333z" />
    <glyph glyph-name="Wgrave.calt02" horiz-adv-x="2709" 
d="M1198 1815l277 -312h-60l-287 312h70zM1477 72l1149 1333h81l-1204 -1405h-92v1319l-1143 -1319h-90v1405h70v-1331l1151 1331h78v-1333z" />
    <glyph glyph-name="X.calt02" horiz-adv-x="1413" 
d="M752 713l612 -713h-84l-573 668l-572 -668h-86l613 713l-594 692h86l553 -649l555 649h84z" />
    <glyph glyph-name="Y.calt02" horiz-adv-x="1388" 
d="M705 707l598 698h83l-1204 -1405h-84l564 655l-637 750h81z" />
    <glyph glyph-name="Yacute.calt02" horiz-adv-x="1388" 
d="M948 1815h70l-287 -312h-59zM705 707l598 698h83l-1204 -1405h-84l564 655l-637 750h81z" />
    <glyph glyph-name="Ycircumflex.calt02" horiz-adv-x="1388" 
d="M958 1503l-253 277l-254 -277h-60l279 312h67h4l277 -312h-60zM705 707l598 698h83l-1204 -1405h-84l564 655l-637 750h81z" />
    <glyph glyph-name="Ydieresis.calt02" horiz-adv-x="1388" 
d="M596 1581q-34 0 -48 26.5t0 52.5t48 26q33 0 46.5 -26t0 -52.5t-46.5 -26.5zM858 1597q-28 -27 -61 -12.5t-33 49.5q0 52 53 52q37 0 51.5 -32t-10.5 -57zM705 707l598 698h83l-1204 -1405h-84l564 655l-637 750h81z" />
    <glyph glyph-name="Ygrave.calt02" horiz-adv-x="1388" 
d="M465 1815l276 -312h-59l-287 312h70zM705 707l598 698h83l-1204 -1405h-84l564 655l-637 750h81z" />
    <glyph glyph-name="A.ss01" horiz-adv-x="1705" 
d="M1456 1006v399h72v-1405h-72v403q-80 -193 -254.5 -306t-400.5 -113q-312 0 -510 204q-201 204 -201 519q0 310 201 514q200 200 510 200q226 0 400.5 -111.5t254.5 -303.5zM811 49q282 0 463 187q182 185 182 471q0 279 -182 464t-463 185q-283 0 -465 -182
q-182 -185 -182 -467q0 -286 182 -471q181 -187 465 -187z" />
    <glyph glyph-name="Aacute.ss01" horiz-adv-x="1705" 
d="M1047 1815h69l-287 -312h-59zM1456 1006v399h72v-1405h-72v403q-80 -193 -254.5 -306t-400.5 -113q-312 0 -510 204q-201 204 -201 519q0 310 201 514q200 200 510 200q226 0 400.5 -111.5t254.5 -303.5zM811 49q282 0 463 187q182 185 182 471q0 279 -182 464t-463 185
q-283 0 -465 -182q-182 -185 -182 -467q0 -286 182 -471q181 -187 465 -187z" />
    <glyph glyph-name="Abreve.ss01" horiz-adv-x="1705" 
d="M805 1501q-118 0 -196.5 79t-78.5 198h52q0 -98 63 -163t160 -65q98 0 161.5 64.5t63.5 163.5h51q0 -119 -77.5 -198t-198.5 -79zM1456 1006v399h72v-1405h-72v403q-80 -193 -254.5 -306t-400.5 -113q-312 0 -510 204q-201 204 -201 519q0 310 201 514q200 200 510 200
q226 0 400.5 -111.5t254.5 -303.5zM811 49q282 0 463 187q182 185 182 471q0 279 -182 464t-463 185q-283 0 -465 -182q-182 -185 -182 -467q0 -286 182 -471q181 -187 465 -187z" />
    <glyph glyph-name="Acircumflex.ss01" horiz-adv-x="1705" 
d="M1059 1503l-254 277l-254 -277h-59l278 312h68h4l276 -312h-59zM1456 1006v399h72v-1405h-72v403q-80 -193 -254.5 -306t-400.5 -113q-312 0 -510 204q-201 204 -201 519q0 310 201 514q200 200 510 200q226 0 400.5 -111.5t254.5 -303.5zM811 49q282 0 463 187
q182 185 182 471q0 279 -182 464t-463 185q-283 0 -465 -182q-182 -185 -182 -467q0 -286 182 -471q181 -187 465 -187z" />
    <glyph glyph-name="Adieresis.ss01" horiz-adv-x="1705" 
d="M696 1581q-34 0 -48 26.5t0 52.5t48 26q33 0 46.5 -26t0 -52.5t-46.5 -26.5zM958 1597q-28 -27 -61 -12.5t-33 49.5q0 52 54 52q37 0 51 -32t-11 -57zM1456 1006v399h72v-1405h-72v403q-80 -193 -254.5 -306t-400.5 -113q-312 0 -510 204q-201 204 -201 519
q0 310 201 514q200 200 510 200q226 0 400.5 -111.5t254.5 -303.5zM811 49q282 0 463 187q182 185 182 471q0 279 -182 464t-463 185q-283 0 -465 -182q-182 -185 -182 -467q0 -286 182 -471q181 -187 465 -187z" />
    <glyph glyph-name="Agrave.ss01" horiz-adv-x="1705" 
d="M565 1815l277 -312h-60l-286 312h69zM1456 1006v399h72v-1405h-72v403q-80 -193 -254.5 -306t-400.5 -113q-312 0 -510 204q-201 204 -201 519q0 310 201 514q200 200 510 200q226 0 400.5 -111.5t254.5 -303.5zM811 49q282 0 463 187q182 185 182 471q0 279 -182 464
t-463 185q-283 0 -465 -182q-182 -185 -182 -467q0 -286 182 -471q181 -187 465 -187z" />
    <glyph glyph-name="Amacron.ss01" horiz-adv-x="1705" 
d="M535 1663h544v-49h-544v49zM1456 1006v399h72v-1405h-72v403q-80 -193 -254.5 -306t-400.5 -113q-312 0 -510 204q-201 204 -201 519q0 310 201 514q200 200 510 200q226 0 400.5 -111.5t254.5 -303.5zM811 49q282 0 463 187q182 185 182 471q0 279 -182 464t-463 185
q-283 0 -465 -182q-182 -185 -182 -467q0 -286 182 -471q181 -187 465 -187z" />
    <glyph glyph-name="Aogonek.ss01" horiz-adv-x="1705" 
d="M1456 1006v399h72v-1405h-15q-198 -110 -198 -248q0 -58 38 -93.5t103 -35.5q31 0 49 6v-49q-21 -6 -55 -6q-87 0 -140 46.5t-53 121.5q0 150 199 264v397q-80 -193 -254.5 -306t-400.5 -113q-312 0 -510 204q-201 204 -201 519q0 310 201 514q200 200 510 200
q226 0 400.5 -111.5t254.5 -303.5zM811 49q282 0 463 187q182 185 182 471q0 279 -182 464t-463 185q-283 0 -465 -182q-182 -185 -182 -467q0 -286 182 -471q181 -187 465 -187z" />
    <glyph glyph-name="Aring.ss01" horiz-adv-x="1705" 
d="M952 1559q-58 -58 -147 -58q-90 0 -148 58q-57 57 -57 145q0 90 58.5 147.5t146.5 57.5q91 0 148 -57t57 -148q0 -90 -58 -145zM918 1817q-32 35 -81 42.5t-92 -9.5t-71.5 -56.5t-24.5 -89.5q0 -66 44.5 -111t111.5 -45t112.5 45t45.5 111q0 68 -45 113zM1456 1006v399
h72v-1405h-72v403q-80 -193 -254.5 -306t-400.5 -113q-312 0 -510 204q-201 204 -201 519q0 310 201 514q200 200 510 200q226 0 400.5 -111.5t254.5 -303.5zM811 49q282 0 463 187q182 185 182 471q0 279 -182 464t-463 185q-283 0 -465 -182q-182 -185 -182 -467
q0 -286 182 -471q181 -187 465 -187z" />
    <glyph glyph-name="Atilde.ss01" horiz-adv-x="1705" 
d="M647 1729q-60 0 -101.5 -60.5t-41.5 -150.5h-45q0 115 54 188.5t136 73.5q44 0 80 -23t61.5 -56t50 -66t56.5 -56t70 -23q62 0 102.5 57.5t40.5 145.5h45q0 -113 -53 -184.5t-137 -71.5q-44 0 -80.5 23.5t-62.5 56.5t-50.5 66t-56.5 56.5t-68 23.5zM1456 1006v399h72
v-1405h-72v403q-80 -193 -254.5 -306t-400.5 -113q-312 0 -510 204q-201 204 -201 519q0 310 201 514q200 200 510 200q226 0 400.5 -111.5t254.5 -303.5zM811 49q282 0 463 187q182 185 182 471q0 279 -182 464t-463 185q-283 0 -465 -182q-182 -185 -182 -467
q0 -286 182 -471q181 -187 465 -187z" />
    <glyph glyph-name="AE.ss01" horiz-adv-x="2973" 
d="M2884 698v-22h-1352q9 -280 188 -453q179 -176 453 -176q231 0 401 135q166 129 217 353h76q-53 -253 -237 -400q-189 -151 -451 -151q-226 0 -398.5 112t-252.5 305v-401h-72v403q-80 -193 -254.5 -306t-400.5 -113q-312 0 -510 204q-201 204 -201 519q0 310 201 514
q200 200 510 200q226 0 400.5 -111.5t254.5 -303.5v399h72v-406q80 196 253 309t398 113q308 0 506 -204q199 -205 199 -519zM2173 1358q-272 0 -449 -174t-192 -447h1276q-9 270 -189 447q-177 174 -446 174zM811 49q282 0 463 187q182 185 182 471q0 279 -182 464
t-463 185q-283 0 -465 -182q-182 -185 -182 -467q0 -286 182 -471q181 -187 465 -187z" />
    <glyph glyph-name="AEacute.ss01" horiz-adv-x="2973" 
d="M1737 1815h69l-286 -312h-60zM2884 698v-22h-1352q9 -280 188 -453q179 -176 453 -176q231 0 401 135q166 129 217 353h76q-53 -253 -237 -400q-189 -151 -451 -151q-226 0 -398.5 112t-252.5 305v-401h-72v403q-80 -193 -254.5 -306t-400.5 -113q-312 0 -510 204
q-201 204 -201 519q0 310 201 514q200 200 510 200q226 0 400.5 -111.5t254.5 -303.5v399h72v-406q80 196 253 309t398 113q308 0 506 -204q199 -205 199 -519zM2173 1358q-272 0 -449 -174t-192 -447h1276q-9 270 -189 447q-177 174 -446 174zM811 49q282 0 463 187
q182 185 182 471q0 279 -182 464t-463 185q-283 0 -465 -182q-182 -185 -182 -467q0 -286 182 -471q181 -187 465 -187z" />
    <glyph glyph-name="E.ss01" horiz-adv-x="1603" 
d="M1516 698q0 -13 -3 -22h-1349q9 -278 188 -451q178 -178 451 -178q233 0 403 135q167 130 215 353h76q-50 -248 -240 -398q-191 -153 -454 -153q-313 0 -512 202q-201 201 -201 512q0 314 201 521q199 202 512 202q310 0 512 -202q201 -207 201 -521zM803 1358
q-273 0 -447 -174q-177 -174 -192 -447h1276q-9 268 -189 445q-182 176 -448 176z" />
    <glyph glyph-name="Eacute.ss01" horiz-adv-x="1603" 
d="M1044 1815h70l-287 -312h-59zM1516 698q0 -13 -3 -22h-1349q9 -278 188 -451q178 -178 451 -178q233 0 403 135q167 130 215 353h76q-50 -248 -240 -398q-191 -153 -454 -153q-313 0 -512 202q-201 201 -201 512q0 314 201 521q199 202 512 202q310 0 512 -202
q201 -207 201 -521zM803 1358q-273 0 -447 -174q-177 -174 -192 -447h1276q-9 268 -189 445q-182 176 -448 176z" />
    <glyph glyph-name="Ecaron.ss01" horiz-adv-x="1603" 
d="M838 1503h-72l-277 312h60l254 -277l254 277h59zM1516 698q0 -13 -3 -22h-1349q9 -278 188 -451q178 -178 451 -178q233 0 403 135q167 130 215 353h76q-50 -248 -240 -398q-191 -153 -454 -153q-313 0 -512 202q-201 201 -201 512q0 314 201 521q199 202 512 202
q310 0 512 -202q201 -207 201 -521zM803 1358q-273 0 -447 -174q-177 -174 -192 -447h1276q-9 268 -189 445q-182 176 -448 176z" />
    <glyph glyph-name="Ecircumflex.ss01" horiz-adv-x="1603" 
d="M1055 1503l-254 277l-254 -277h-60l279 312h68h4l276 -312h-59zM1516 698q0 -13 -3 -22h-1349q9 -278 188 -451q178 -178 451 -178q233 0 403 135q167 130 215 353h76q-50 -248 -240 -398q-191 -153 -454 -153q-313 0 -512 202q-201 201 -201 512q0 314 201 521
q199 202 512 202q310 0 512 -202q201 -207 201 -521zM803 1358q-273 0 -447 -174q-177 -174 -192 -447h1276q-9 268 -189 445q-182 176 -448 176z" />
    <glyph glyph-name="Edieresis.ss01" horiz-adv-x="1603" 
d="M692 1581q-34 0 -48 26.5t0 52.5t48 26q33 0 46.5 -26t0 -52.5t-46.5 -26.5zM954 1597q-28 -27 -61 -12.5t-33 49.5q0 52 53 52q37 0 51.5 -32t-10.5 -57zM1516 698q0 -13 -3 -22h-1349q9 -278 188 -451q178 -178 451 -178q233 0 403 135q167 130 215 353h76
q-50 -248 -240 -398q-191 -153 -454 -153q-313 0 -512 202q-201 201 -201 512q0 314 201 521q199 202 512 202q310 0 512 -202q201 -207 201 -521zM803 1358q-273 0 -447 -174q-177 -174 -192 -447h1276q-9 268 -189 445q-182 176 -448 176z" />
    <glyph glyph-name="Edotaccent.ss01" horiz-adv-x="1603" 
d="M803 1606q-55 0 -55 53q0 55 55 55q53 0 53 -55q0 -24 -14.5 -38.5t-38.5 -14.5zM1516 698q0 -13 -3 -22h-1349q9 -278 188 -451q178 -178 451 -178q233 0 403 135q167 130 215 353h76q-50 -248 -240 -398q-191 -153 -454 -153q-313 0 -512 202q-201 201 -201 512
q0 314 201 521q199 202 512 202q310 0 512 -202q201 -207 201 -521zM803 1358q-273 0 -447 -174q-177 -174 -192 -447h1276q-9 268 -189 445q-182 176 -448 176z" />
    <glyph glyph-name="Egrave.ss01" horiz-adv-x="1603" 
d="M561 1815l277 -312h-60l-286 312h69zM1516 698q0 -13 -3 -22h-1349q9 -278 188 -451q178 -178 451 -178q233 0 403 135q167 130 215 353h76q-50 -248 -240 -398q-191 -153 -454 -153q-313 0 -512 202q-201 201 -201 512q0 314 201 521q199 202 512 202q310 0 512 -202
q201 -207 201 -521zM803 1358q-273 0 -447 -174q-177 -174 -192 -447h1276q-9 268 -189 445q-182 176 -448 176z" />
    <glyph glyph-name="Emacron.ss01" horiz-adv-x="1603" 
d="M530 1663h545v-49h-545v49zM1516 698q0 -13 -3 -22h-1349q9 -278 188 -451q178 -178 451 -178q233 0 403 135q167 130 215 353h76q-50 -248 -240 -398q-191 -153 -454 -153q-313 0 -512 202q-201 201 -201 512q0 314 201 521q199 202 512 202q310 0 512 -202
q201 -207 201 -521zM803 1358q-273 0 -447 -174q-177 -174 -192 -447h1276q-9 268 -189 445q-182 176 -448 176z" />
    <glyph glyph-name="Eogonek.ss01" horiz-adv-x="1603" 
d="M1516 698q0 -13 -3 -22h-1349q9 -278 188 -451q178 -178 451 -178q233 0 403 135q167 130 215 353h76q-41 -204 -184.5 -348t-347.5 -187q-199 -111 -199 -248q0 -58 38 -93.5t103 -35.5q31 0 49 6v-49q-21 -6 -55 -6q-87 0 -139.5 46.5t-52.5 121.5q0 140 168 244
q-16 -2 -74 -2q-313 0 -512 202q-201 201 -201 512q0 314 201 521q199 202 512 202q310 0 512 -202q201 -207 201 -521zM803 1358q-273 0 -447 -174q-177 -174 -192 -447h1276q-9 268 -189 445q-182 176 -448 176z" />
    <glyph glyph-name="M.ss01" horiz-adv-x="2211" 
d="M1591 1421q219 0 341 -134t122 -374v-913h-72v913q0 211 -108.5 329t-304.5 118q-195 0 -306.5 -119t-111.5 -328v-913h-70v913q0 210 -109.5 328.5t-305.5 118.5q-195 0 -306.5 -119t-111.5 -328v-913h-70v1399h70v-266q101 288 440 288q178 0 290.5 -90.5t147.5 -261.5
q37 167 159 259.5t306 92.5z" />
    <glyph glyph-name="N.ss01" horiz-adv-x="1581" 
d="M1423 778l2 -778h-71v774q0 268 -148 428t-397 160q-257 0 -408 -160q-153 -159 -153 -428v-774h-70v1405h70v-387q60 191 212 297t371 106q271 0 433 -174q159 -176 159 -469z" />
    <glyph glyph-name="Nacute.ss01" horiz-adv-x="1581" 
d="M1059 1815h69l-286 -312h-60zM1423 778l2 -778h-71v774q0 268 -148 428t-397 160q-257 0 -408 -160q-153 -159 -153 -428v-774h-70v1405h70v-387q60 191 212 297t371 106q271 0 433 -174q159 -176 159 -469z" />
    <glyph glyph-name="Ncaron.ss01" horiz-adv-x="1581" 
d="M852 1503h-72l-276 312h59l254 -277l254 277h59zM1423 778l2 -778h-71v774q0 268 -148 428t-397 160q-257 0 -408 -160q-153 -159 -153 -428v-774h-70v1405h70v-387q60 191 212 297t371 106q271 0 433 -174q159 -176 159 -469z" />
    <glyph glyph-name="Ncommaaccent.ss01" horiz-adv-x="1581" 
d="M1423 778l2 -778h-71v774q0 268 -148 428t-397 160q-257 0 -408 -160q-153 -159 -153 -428v-774h-70v1405h70v-387q60 191 212 297t371 106q271 0 433 -174q159 -176 159 -469zM727 -436h-49l110 334h60z" />
    <glyph glyph-name="Eng.ss01" horiz-adv-x="1583" 
d="M1423 778l2 -784q0 -177 -108 -291q-107 -113 -279 -113v66q141 3 228 96q88 94 88 242v776q0 268 -148 428t-397 160q-257 0 -408 -160q-153 -159 -153 -428v-770h-70v1405h70v-387q60 191 212 297t371 106q271 0 433 -174q159 -176 159 -469z" />
    <glyph glyph-name="Ntilde.ss01" horiz-adv-x="1581" 
d="M657 1729q-60 0 -101.5 -60.5t-41.5 -150.5h-45q0 115 54 188.5t136 73.5q44 0 80 -23t61.5 -56t50 -66t56.5 -56t70 -23q62 0 102.5 57.5t40.5 145.5h45q0 -113 -53 -184.5t-137 -71.5q-44 0 -80.5 23.5t-62.5 56.5t-50.5 66t-56.5 56.5t-68 23.5zM1423 778l2 -778h-71
v774q0 268 -148 428t-397 160q-257 0 -408 -160q-153 -159 -153 -428v-774h-70v1405h70v-387q60 191 212 297t371 106q271 0 433 -174q159 -176 159 -469z" />
    <glyph glyph-name="OE.ss01" horiz-adv-x="2971" 
d="M2884 698q0 -16 -2 -22h-1350q9 -279 186 -453q179 -176 453 -176q233 0 403 135q167 130 215 353h76q-50 -249 -239 -398q-190 -153 -455 -153q-248 0 -428 131q-183 130 -250 346q-70 -215 -254 -346q-180 -131 -428 -131q-317 0 -518 204q-203 203 -203 519
q0 311 203 514q203 200 518 200q245 0 430 -129q184 -132 254 -348q70 216 252 348q181 129 424 129q310 0 512 -202q201 -207 201 -521zM2171 1358q-273 0 -447 -174q-177 -174 -192 -447h1276q-9 268 -189 445q-182 176 -448 176zM811 49q282 0 463 187q182 185 182 471
q0 279 -182 464t-463 185q-283 0 -465 -182q-182 -185 -182 -467q0 -286 182 -471q181 -187 465 -187z" />
    <glyph glyph-name="Y.ss01" horiz-adv-x="1423" 
d="M739 707l598 698h84l-1204 -1405h-84l563 655l-637 750h82z" />
    <glyph glyph-name="Yacute.ss01" horiz-adv-x="1388" 
d="M948 1815h70l-287 -312h-59zM705 707l598 698h83l-1204 -1405h-84l564 655l-637 750h81z" />
    <glyph glyph-name="Ycircumflex.ss01" horiz-adv-x="1388" 
d="M958 1503l-253 277l-254 -277h-60l279 312h67h4l277 -312h-60zM705 707l598 698h83l-1204 -1405h-84l564 655l-637 750h81z" />
    <glyph glyph-name="Ydieresis.ss01" horiz-adv-x="1388" 
d="M596 1581q-34 0 -48 26.5t0 52.5t48 26q33 0 46.5 -26t0 -52.5t-46.5 -26.5zM858 1597q-28 -27 -61 -12.5t-33 49.5q0 52 53 52q37 0 51.5 -32t-10.5 -57zM705 707l598 698h83l-1204 -1405h-84l564 655l-637 750h81z" />
    <glyph glyph-name="Ygrave.ss01" horiz-adv-x="1388" 
d="M465 1815l276 -312h-59l-287 312h70zM705 707l598 698h83l-1204 -1405h-84l564 655l-637 750h81z" />
    <glyph glyph-name="C.ss02" horiz-adv-x="1036" 
d="M811 1421q75 0 166 -16v-70q-85 21 -166 21q-283 0 -465 -182q-182 -185 -182 -467q0 -286 182 -471q181 -187 465 -187q79 0 166 23v-72q-91 -16 -166 -16q-317 0 -518 204q-203 203 -203 519q0 311 203 514q203 200 518 200z" />
    <glyph glyph-name="Cacute.ss02" horiz-adv-x="1036" 
d="M1020 1815h70l-287 -312h-60zM90 707q0 311 203 514q203 200 518 200q75 0 166 -16v-70q-85 21 -166 21q-283 0 -465 -182q-182 -185 -182 -467q0 -286 182 -471q181 -187 465 -187q79 0 166 23v-72q-91 -16 -166 -16q-317 0 -518 204q-203 203 -203 519z" />
    <glyph glyph-name="Ccaron.ss02" horiz-adv-x="1036" 
d="M815 1503h-72l-276 312h59l254 -277l254 277h60zM90 707q0 311 203 514q203 200 518 200q75 0 166 -16v-70q-85 21 -166 21q-283 0 -465 -182q-182 -185 -182 -467q0 -286 182 -471q181 -187 465 -187q79 0 166 23v-72q-91 -16 -166 -16q-317 0 -518 204
q-203 203 -203 519z" />
    <glyph glyph-name="Ccedilla.ss02" horiz-adv-x="1036" 
d="M811 1421q75 0 166 -16v-70q-85 21 -166 21q-283 0 -465 -182q-182 -185 -182 -467q0 -286 182 -471q181 -187 465 -187q79 0 166 23v-72q-91 -16 -166 -16q-317 0 -518 204q-203 203 -203 519q0 311 203 514q203 200 518 200zM766 -66q63 0 101 -38.5t38 -100.5
q0 -61 -38.5 -99t-100.5 -38q-27 0 -45 6v37q21 -6 43 -6q41 0 69.5 28.5t28.5 71.5q0 44 -27.5 72.5t-70.5 28.5q-18 0 -43 -7v39q18 6 45 6z" />
    <glyph glyph-name="Cdotaccent.ss02" horiz-adv-x="1036" 
d="M780 1606q-55 0 -55 53q0 55 55 55q54 0 54 -55q0 -24 -15 -38.5t-39 -14.5zM811 1421q75 0 166 -16v-70q-85 21 -166 21q-283 0 -465 -182q-182 -185 -182 -467q0 -286 182 -471q181 -187 465 -187q79 0 166 23v-72q-91 -16 -166 -16q-317 0 -518 204q-203 203 -203 519
q0 311 203 514q203 200 518 200z" />
    <glyph glyph-name="AE.ss03" horiz-adv-x="1951" 
d="M1694 1356q-275 0 -455 -174q-183 -177 -192 -445h813v-61h-813q9 -274 192 -451q182 -176 455 -176q79 0 166 23v-72q-88 -16 -166 -16q-227 0 -403.5 112.5t-258.5 306.5h-770l-166 -403h-76l584 1405h84l301 -715q-3 30 0 64q9 293 209 481q195 186 496 186
q78 0 166 -16v-70q-85 21 -166 21zM1006 465l-359 864l-358 -864h717z" />
    <glyph glyph-name="AEacute.ss03" horiz-adv-x="1951" 
d="M1325 1815h70l-287 -312h-59zM1694 1356q-275 0 -455 -174q-183 -177 -192 -445h813v-61h-813q9 -274 192 -451q182 -176 455 -176q79 0 166 23v-72q-88 -16 -166 -16q-227 0 -403.5 112.5t-258.5 306.5h-770l-166 -403h-76l584 1405h84l301 -715q-3 30 0 64
q9 293 209 481q195 186 496 186q78 0 166 -16v-70q-85 21 -166 21zM1006 465l-359 864l-358 -864h717z" />
    <glyph glyph-name="E.ss03" horiz-adv-x="1069" 
d="M811 1421q75 0 166 -16v-70q-85 21 -166 21q-275 0 -455 -174q-183 -177 -192 -445h813v-61h-813q9 -274 192 -451q182 -176 455 -176q79 0 166 23v-72q-91 -16 -166 -16q-317 0 -518 204q-203 203 -203 519q0 311 203 514q203 200 518 200z" />
    <glyph glyph-name="Eacute.ss03" horiz-adv-x="1069" 
d="M1022 1815h70l-287 -312h-60zM90 707q0 311 203 514q203 200 518 200q75 0 166 -16v-70q-85 21 -166 21q-275 0 -455 -174q-183 -177 -192 -445h813v-61h-813q9 -274 192 -451q182 -176 455 -176q79 0 166 23v-72q-91 -16 -166 -16q-317 0 -518 204q-203 203 -203 519z
" />
    <glyph glyph-name="Ecaron.ss03" horiz-adv-x="1069" 
d="M815 1503h-72l-276 312h59l254 -277l254 277h60zM90 707q0 311 203 514q203 200 518 200q75 0 166 -16v-70q-85 21 -166 21q-275 0 -455 -174q-183 -177 -192 -445h813v-61h-813q9 -274 192 -451q182 -176 455 -176q79 0 166 23v-72q-91 -16 -166 -16q-317 0 -518 204
q-203 203 -203 519z" />
    <glyph glyph-name="Ecircumflex.ss03" horiz-adv-x="1069" 
d="M811 1815h4l277 -312h-60l-254 277l-254 -277h-59l278 312h68zM90 707q0 311 203 514q203 200 518 200q75 0 166 -16v-70q-85 21 -166 21q-275 0 -455 -174q-183 -177 -192 -445h813v-61h-813q9 -274 192 -451q182 -176 455 -176q79 0 166 23v-72q-91 -16 -166 -16
q-317 0 -518 204q-203 203 -203 519z" />
    <glyph glyph-name="Edieresis.ss03" horiz-adv-x="1069" 
d="M670 1581q-34 0 -48 26.5t0 52.5t48 26q33 0 46.5 -26t0 -52.5t-46.5 -26.5zM932 1597q-28 -27 -61 -12.5t-33 49.5q0 52 53 52q37 0 51.5 -32t-10.5 -57zM811 1421q75 0 166 -16v-70q-85 21 -166 21q-275 0 -455 -174q-183 -177 -192 -445h813v-61h-813q9 -274 192 -451
q182 -176 455 -176q79 0 166 23v-72q-91 -16 -166 -16q-317 0 -518 204q-203 203 -203 519q0 311 203 514q203 200 518 200z" />
    <glyph glyph-name="Edotaccent.ss03" horiz-adv-x="1069" 
d="M782 1606q-55 0 -55 53q0 55 55 55q54 0 54 -55q0 -24 -15 -38.5t-39 -14.5zM811 1421q75 0 166 -16v-70q-85 21 -166 21q-275 0 -455 -174q-183 -177 -192 -445h813v-61h-813q9 -274 192 -451q182 -176 455 -176q79 0 166 23v-72q-91 -16 -166 -16q-317 0 -518 204
q-203 203 -203 519q0 311 203 514q203 200 518 200z" />
    <glyph glyph-name="Egrave.ss03" horiz-adv-x="1069" 
d="M539 1815l276 -312h-59l-287 312h70zM811 1421q75 0 166 -16v-70q-85 21 -166 21q-275 0 -455 -174q-183 -177 -192 -445h813v-61h-813q9 -274 192 -451q182 -176 455 -176q79 0 166 23v-72q-91 -16 -166 -16q-317 0 -518 204q-203 203 -203 519q0 311 203 514
q203 200 518 200z" />
    <glyph glyph-name="Emacron.ss03" horiz-adv-x="1069" 
d="M498 1614v49h544v-49h-544zM90 707q0 311 203 514q203 200 518 200q75 0 166 -16v-70q-85 21 -166 21q-275 0 -455 -174q-183 -177 -192 -445h813v-61h-813q9 -274 192 -451q182 -176 455 -176q79 0 166 23v-72q-91 -16 -166 -16q-317 0 -518 204q-203 203 -203 519z" />
    <glyph glyph-name="Eogonek.ss03" horiz-adv-x="1069" 
d="M778 -248q0 -58 38.5 -93.5t103.5 -35.5q31 0 49 6v-49q-21 -6 -56 -6q-87 0 -139.5 46.5t-52.5 121.5q0 139 168 246q-32 -4 -78 -4q-317 0 -518 204q-203 203 -203 519q0 311 203 514q203 200 518 200q75 0 166 -16v-70q-85 21 -166 21q-275 0 -455 -174
q-183 -177 -192 -445h813v-61h-813q9 -274 192 -451q182 -176 455 -176q79 0 166 23v-72q-199 -111 -199 -248z" />
    <glyph glyph-name="I.ss04" horiz-adv-x="970" 
d="M907 1405v-66h-387v-1273h387v-66h-844v66h386v1273h-386v66h844z" />
    <glyph glyph-name="IJ.ss04" horiz-adv-x="2134" 
d="M1346 1339v66h649v-913q0 -230 -131 -367q-132 -141 -351 -141q-216 0 -348 141q-133 139 -133 367v30h70v-30q0 -204 112 -322q114 -123 299 -123q186 0 298 122t112 323v847h-577zM449 1339h-386v66h844v-66h-387v-1273h387v-66h-844v66h386v1273z" />
    <glyph glyph-name="Iacute.ss04" horiz-adv-x="970" 
d="M727 1815h70l-287 -312h-59zM907 1405v-66h-387v-1273h387v-66h-844v66h386v1273h-386v66h844z" />
    <glyph glyph-name="Icircumflex.ss04" horiz-adv-x="970" 
d="M737 1503l-254 277l-254 -277h-59l279 312h67h4l277 -312h-60zM907 1405v-66h-387v-1273h387v-66h-844v66h386v1273h-386v66h844z" />
    <glyph glyph-name="Idieresis.ss04" horiz-adv-x="970" 
d="M375 1581q-34 0 -48 26.5t0 52.5t48 26q33 0 46.5 -26t0 -52.5t-46.5 -26.5zM637 1597q-28 -27 -61 -12.5t-33 49.5q0 52 53 52q37 0 51.5 -32t-10.5 -57zM907 1405v-66h-387v-1273h387v-66h-844v66h386v1273h-386v66h844z" />
    <glyph glyph-name="Idotaccent.ss04" horiz-adv-x="970" 
d="M485 1606q-55 0 -55 53q0 55 55 55q54 0 54 -55q0 -24 -15 -38.5t-39 -14.5zM907 1405v-66h-387v-1273h387v-66h-844v66h386v1273h-386v66h844z" />
    <glyph glyph-name="Igrave.ss04" horiz-adv-x="970" 
d="M244 1815l276 -312h-59l-287 312h70zM907 1405v-66h-387v-1273h387v-66h-844v66h386v1273h-386v66h844z" />
    <glyph glyph-name="Imacron.ss04" horiz-adv-x="970" 
d="M213 1663h545v-49h-545v49zM907 1405v-66h-387v-1273h387v-66h-844v66h386v1273h-386v66h844z" />
    <glyph glyph-name="Iogonek.ss04" horiz-adv-x="970" 
d="M907 1405v-66h-387v-1273h387v-66h-2q-198 -110 -198 -248q0 -58 38 -93.5t103 -35.5q31 0 49 6v-49q-21 -6 -55 -6q-87 0 -140 46.5t-53 121.5q0 149 189 258h-775v66h386v1273h-386v66h844z" />
    <glyph glyph-name="M.ss05" horiz-adv-x="1677" 
d="M840 725l567 680h94v-1405h-71v1329l-562 -678h-57l-563 678v-1329h-70v1405h94z" />
    <glyph glyph-name="M.ss06" horiz-adv-x="1646" 
d="M823 791l576 614h69v-1405h-69v1307l-576 -615l-575 613v-1305h-70v1405h70z" />
    <glyph glyph-name="Q.ss07" horiz-adv-x="1622" 
d="M1364 227l203 -227h-78l-166 184q-200 -200 -512 -200q-317 0 -518 204q-203 203 -203 519q0 311 203 514q203 200 518 200q312 0 518 -200q203 -203 203 -514q0 -282 -168 -480zM346 236q181 -187 465 -187q282 0 465 189l-191 213h78l152 -170q141 176 141 426
q0 279 -182 464t-463 185q-283 0 -465 -182q-182 -185 -182 -467q0 -286 182 -471z" />
    <glyph glyph-name="R.ss08" horiz-adv-x="1253" 
d="M877 664q123 -26 194.5 -119.5t71.5 -229.5v-315h-72v317q0 142 -82 227t-221 85h-520v-629h-70v1405h567q183 0 291.5 -102.5t108.5 -274.5q0 -136 -71.5 -232.5t-196.5 -131.5zM248 690h493q152 0 241 88t89 240q0 148 -89 234.5t-241 86.5h-493v-649z" />
    <glyph glyph-name="Racute.ss08" horiz-adv-x="1253" 
d="M881 1815h69l-286 -312h-60zM877 664q123 -26 194.5 -119.5t71.5 -229.5v-315h-72v317q0 142 -82 227t-221 85h-520v-629h-70v1405h567q183 0 291.5 -102.5t108.5 -274.5q0 -136 -71.5 -232.5t-196.5 -131.5zM248 690h493q152 0 241 88t89 240q0 148 -89 234.5t-241 86.5
h-493v-649z" />
    <glyph glyph-name="Rcaron.ss08" horiz-adv-x="1253" 
d="M674 1503h-72l-276 312h59l254 -277l254 277h59zM877 664q123 -26 194.5 -119.5t71.5 -229.5v-315h-72v317q0 142 -82 227t-221 85h-520v-629h-70v1405h567q183 0 291.5 -102.5t108.5 -274.5q0 -136 -71.5 -232.5t-196.5 -131.5zM248 690h493q152 0 241 88t89 240
q0 148 -89 234.5t-241 86.5h-493v-649z" />
    <glyph glyph-name="Rcommaaccent.ss08" horiz-adv-x="1253" 
d="M877 664q123 -26 194.5 -119.5t71.5 -229.5v-315h-72v317q0 142 -82 227t-221 85h-520v-629h-70v1405h567q183 0 291.5 -102.5t108.5 -274.5q0 -136 -71.5 -232.5t-196.5 -131.5zM248 690h493q152 0 241 88t89 240q0 148 -89 234.5t-241 86.5h-493v-649zM567 -436h-49
l111 334h59z" />
    <glyph glyph-name="R.ss09" horiz-adv-x="1241" 
d="M1151 0h-80l-430 627h-393v-627h-70v1405h549q181 0 290 -105.5t109 -281.5q0 -179 -108 -285t-291 -106h-8zM723 1339h-475v-649h475q152 0 241 89t89 239q0 148 -89 234.5t-241 86.5z" />
    <glyph glyph-name="Racute.ss09" horiz-adv-x="1241" 
d="M879 1815h69l-286 -312h-60zM1151 0h-80l-430 627h-393v-627h-70v1405h549q181 0 290 -105.5t109 -281.5q0 -179 -108 -285t-291 -106h-8zM723 1339h-475v-649h475q152 0 241 89t89 239q0 148 -89 234.5t-241 86.5z" />
    <glyph glyph-name="Rcaron.ss09" horiz-adv-x="1241" 
d="M674 1503h-72l-276 312h59l254 -277l254 277h59zM1151 0h-80l-430 627h-393v-627h-70v1405h549q181 0 290 -105.5t109 -281.5q0 -179 -108 -285t-291 -106h-8zM723 1339h-475v-649h475q152 0 241 89t89 239q0 148 -89 234.5t-241 86.5z" />
    <glyph glyph-name="Rcommaaccent.ss09" horiz-adv-x="1241" 
d="M727 627h-8l432 -627h-80l-430 627h-393v-627h-70v1405h549q181 0 290 -105.5t109 -281.5q0 -179 -108 -285t-291 -106zM723 1339h-475v-649h475q152 0 241 89t89 239q0 148 -89 234.5t-241 86.5zM555 -436h-49l110 334h60z" />
    <glyph glyph-name="R.ss10" horiz-adv-x="1204" 
d="M690 627h-61l485 -627h-80l-530 686l-4 4h80h106q149 0 239.5 89.5t90.5 238.5q0 148 -89 234.5t-241 86.5h-438v-1339h-70v1405h512q181 0 290.5 -105.5t109.5 -281.5q0 -179 -108.5 -285t-291.5 -106z" />
    <glyph glyph-name="Racute.ss10" horiz-adv-x="1204" 
d="M854 1815h70l-287 -312h-59zM690 627h-61l485 -627h-80l-530 686l-4 4h80h106q149 0 239.5 89.5t90.5 238.5q0 148 -89 234.5t-241 86.5h-438v-1339h-70v1405h512q181 0 290.5 -105.5t109.5 -281.5q0 -179 -108.5 -285t-291.5 -106z" />
    <glyph glyph-name="Rcaron.ss10" horiz-adv-x="1204" 
d="M647 1503h-72l-276 312h59l254 -277l254 277h60zM690 627h-61l485 -627h-80l-530 686l-4 4h80h106q149 0 239.5 89.5t90.5 238.5q0 148 -89 234.5t-241 86.5h-438v-1339h-70v1405h512q181 0 290.5 -105.5t109.5 -281.5q0 -179 -108.5 -285t-291.5 -106z" />
    <glyph glyph-name="Rcommaaccent.ss10" horiz-adv-x="1204" 
d="M690 627h-61l485 -627h-80l-530 686l-4 4h80h106q149 0 239.5 89.5t90.5 238.5q0 148 -89 234.5t-241 86.5h-438v-1339h-70v1405h512q181 0 290.5 -105.5t109.5 -281.5q0 -179 -108.5 -285t-291.5 -106zM528 -436h-49l111 334h59z" />
    <glyph glyph-name="U.ss13" horiz-adv-x="1359" 
d="M1112 522v883h72v-1405h-72v307q-49 -154 -172.5 -238.5t-296.5 -84.5q-231 0 -367 145q-137 143 -137 389v887h72v-883q0 -220 122 -349.5t329 -129.5q205 0 327 131q123 129 123 348z" />
    <glyph glyph-name="Uacute.ss13" horiz-adv-x="1359" 
d="M903 1815h70l-287 -312h-59zM1112 522v883h72v-1405h-72v307q-49 -154 -172.5 -238.5t-296.5 -84.5q-231 0 -367 145q-137 143 -137 389v887h72v-883q0 -220 122 -349.5t329 -129.5q205 0 327 131q123 129 123 348z" />
    <glyph glyph-name="Ucircumflex.ss13" horiz-adv-x="1359" 
d="M913 1503l-254 277l-253 -277h-60l279 312h67h4l277 -312h-60zM1112 522v883h72v-1405h-72v307q-49 -154 -172.5 -238.5t-296.5 -84.5q-231 0 -367 145q-137 143 -137 389v887h72v-883q0 -220 122 -349.5t329 -129.5q205 0 327 131q123 129 123 348z" />
    <glyph glyph-name="Udieresis.ss13" horiz-adv-x="1359" 
d="M551 1581q-34 0 -48 26.5t0 52.5t48 26q33 0 46.5 -26t0 -52.5t-46.5 -26.5zM813 1597q-28 -27 -61 -12.5t-33 49.5q0 52 53 52q37 0 51.5 -32t-10.5 -57zM1112 522v883h72v-1405h-72v307q-49 -154 -172.5 -238.5t-296.5 -84.5q-231 0 -367 145q-137 143 -137 389v887h72
v-883q0 -220 122 -349.5t329 -129.5q205 0 327 131q123 129 123 348z" />
    <glyph glyph-name="Ugrave.ss13" horiz-adv-x="1359" 
d="M420 1815l276 -312h-59l-287 312h70zM1112 522v883h72v-1405h-72v307q-49 -154 -172.5 -238.5t-296.5 -84.5q-231 0 -367 145q-137 143 -137 389v887h72v-883q0 -220 122 -349.5t329 -129.5q205 0 327 131q123 129 123 348z" />
    <glyph glyph-name="Uhungarumlaut.ss13" horiz-adv-x="1359" 
d="M776 1815h66l-277 -312h-53zM1094 1815l-289 -312h-55l278 312h66zM1112 522v883h72v-1405h-72v307q-49 -154 -172.5 -238.5t-296.5 -84.5q-231 0 -367 145q-137 143 -137 389v887h72v-883q0 -220 122 -349.5t329 -129.5q205 0 327 131q123 129 123 348z" />
    <glyph glyph-name="Umacron.ss13" horiz-adv-x="1359" 
d="M389 1663h545v-49h-545v49zM1112 522v883h72v-1405h-72v307q-49 -154 -172.5 -238.5t-296.5 -84.5q-231 0 -367 145q-137 143 -137 389v887h72v-883q0 -220 122 -349.5t329 -129.5q205 0 327 131q123 129 123 348z" />
    <glyph glyph-name="Uogonek.ss13" horiz-adv-x="1359" 
d="M1112 522v883h72v-1405h-17q-198 -110 -198 -248q0 -58 38 -93.5t103 -35.5q31 0 49 6v-49q-21 -6 -55 -6q-87 0 -140 46.5t-53 121.5q0 152 201 264v301q-49 -154 -172.5 -238.5t-296.5 -84.5q-231 0 -367 145q-137 143 -137 389v887h72v-883q0 -220 122 -349.5
t329 -129.5q205 0 327 131q123 129 123 348z" />
    <glyph glyph-name="Uring.ss13" horiz-adv-x="1359" 
d="M809 1559q-58 -58 -147 -58q-90 0 -148 58q-57 57 -57 145q0 90 58.5 147.5t146.5 57.5q91 0 147.5 -57t56.5 -148t-57 -145zM774 1817q-32 35 -81 42.5t-91.5 -9.5t-71 -56.5t-24.5 -89.5q0 -66 44.5 -111t111.5 -45t112 45t45 111q0 68 -45 113zM1112 522v883h72v-1405
h-72v307q-49 -154 -172.5 -238.5t-296.5 -84.5q-231 0 -367 145q-137 143 -137 389v887h72v-883q0 -220 122 -349.5t329 -129.5q205 0 327 131q123 129 123 348z" />
    <glyph glyph-name="i.loclTRK" horiz-adv-x="346" 
d="M129 1292q28 28 65 11.5t37 -54.5q0 -59 -59 -59q-38 0 -54.5 37t11.5 65zM207 0h-66v995h66v-995z" />
    <glyph glyph-name="v.calt01" horiz-adv-x="1126" 
d="M911 57v938h68v-995h-100l-877 995h84z" />
    <glyph glyph-name="w.calt01" horiz-adv-x="2037" 
d="M1823 57v938h67v-995h-96l-821 926v-926h-94l-877 995h84l825 -938v938h86z" />
    <glyph glyph-name="wacute.calt01" horiz-adv-x="2037" 
d="M1194 1405h70l-287 -311h-59zM1823 57v938h67v-995h-96l-821 926v-926h-94l-877 995h84l825 -938v938h86z" />
    <glyph glyph-name="wcircumflex.calt01" horiz-adv-x="2037" 
d="M1206 1094l-254 276l-254 -276h-59l279 311h67h4l277 -311h-60zM1823 57v938h67v-995h-96l-821 926v-926h-94l-877 995h84l825 -938v938h86z" />
    <glyph glyph-name="wdieresis.calt01" horiz-adv-x="2037" 
d="M844 1171q-34 0 -48 26.5t0 52.5t48 26q33 0 46.5 -26t0 -52.5t-46.5 -26.5zM1106 1188q-28 -27 -61 -12.5t-33 49.5q0 51 53 51q37 0 51.5 -31.5t-10.5 -56.5zM1823 57v938h67v-995h-96l-821 926v-926h-94l-877 995h84l825 -938v938h86z" />
    <glyph glyph-name="wgrave.calt01" horiz-adv-x="2037" 
d="M713 1405l276 -311h-59l-287 311h70zM1823 57v938h67v-995h-96l-821 926v-926h-94l-877 995h84l825 -938v938h86z" />
    <glyph glyph-name="v.calt02" horiz-adv-x="1126" 
d="M215 57l825 938h84l-876 -995h-98v995h65v-938z" />
    <glyph glyph-name="w.calt02" horiz-adv-x="2037" 
d="M1126 57l826 938h84l-877 -995h-94v926l-821 -926h-94v995h65v-938l825 938h86v-938z" />
    <glyph glyph-name="wacute.calt02" horiz-adv-x="2037" 
d="M1331 1405h70l-287 -311h-59zM1126 57l826 938h84l-877 -995h-94v926l-821 -926h-94v995h65v-938l825 938h86v-938z" />
    <glyph glyph-name="wcircumflex.calt02" horiz-adv-x="2037" 
d="M1343 1094l-253 276l-254 -276h-60l279 311h67h4l277 -311h-60zM1126 57l826 938h84l-877 -995h-94v926l-821 -926h-94v995h65v-938l825 938h86v-938z" />
    <glyph glyph-name="wdieresis.calt02" horiz-adv-x="2037" 
d="M979 1171q-34 0 -48 26.5t0 52.5t48 26q33 0 46.5 -26t0 -52.5t-46.5 -26.5zM1241 1188q-28 -27 -61 -12.5t-33 49.5q0 51 53 51q37 0 51.5 -31.5t-10.5 -56.5zM1126 57l826 938h84l-877 -995h-94v926l-821 -926h-94v995h65v-938l825 938h86v-938z" />
    <glyph glyph-name="wgrave.calt02" horiz-adv-x="2037" 
d="M850 1405l276 -311h-59l-287 311h70zM1126 57l826 938h84l-877 -995h-94v926l-821 -926h-94v995h65v-938l825 938h86v-938z" />
    <glyph glyph-name="germandbls.case" horiz-adv-x="1273" 
d="M1069 1343l-348 -440q212 -18 344 -147q131 -128 131 -320q0 -195 -131 -323q-132 -129 -334 -129q-67 0 -133 14v68q73 -17 127 -17q172 0 285 113q112 109 112 276q0 180 -131 293q-133 115 -336 115v63l338 430h-745v-1339h-70v1405h70h821v-62z" />
    <glyph glyph-name="c.ss02" horiz-adv-x="817" 
d="M735 995v-65q-71 22 -137 22q-195 0 -322 -127q-126 -129 -126 -327q0 -200 126 -326q126 -129 322 -129q70 0 137 20v-63q-75 -16 -139 -16q-226 0 -371 145t-145 369t147 368q146 146 369 146q59 0 139 -17z" />
    <glyph glyph-name="cacute.ss02" horiz-adv-x="817" 
d="M539 1094l276 311h70l-287 -311h-59zM735 995v-65q-71 22 -137 22q-195 0 -322 -127q-126 -129 -126 -327q0 -200 126 -326q126 -129 322 -129q70 0 137 20v-63q-75 -16 -139 -16q-226 0 -371 145t-145 369t147 368q146 146 369 146q59 0 139 -17z" />
    <glyph glyph-name="ccaron.ss02" horiz-adv-x="817" 
d="M610 1094h-71l-277 311h60l253 -277l254 277h60zM225 129q-145 145 -145 369t147 368q146 146 369 146q59 0 139 -17v-65q-71 22 -137 22q-195 0 -322 -127q-126 -129 -126 -327q0 -200 126 -326q126 -129 322 -129q70 0 137 20v-63q-75 -16 -139 -16q-226 0 -371 145z
" />
    <glyph glyph-name="ccedilla.ss02" horiz-adv-x="817" 
d="M735 995v-65q-71 22 -137 22q-195 0 -322 -127q-126 -129 -126 -327q0 -200 126 -326q126 -129 322 -129q70 0 137 20v-63q-75 -16 -139 -16q-226 0 -371 145t-145 369t147 368q146 146 369 146q59 0 139 -17zM563 -66q63 0 101 -38.5t38 -100.5t-38 -99.5t-101 -37.5
q-27 0 -45 6v37q21 -6 43 -6q41 0 69.5 28.5t28.5 71.5q0 44 -28 72.5t-70 28.5q-19 0 -43 -7v39q18 6 45 6z" />
    <glyph glyph-name="cdotaccent.ss02" horiz-adv-x="817" 
d="M629 1249q0 -24 -15 -38.5t-39 -14.5q-55 0 -55 53q0 56 55 56q54 0 54 -56zM735 995v-65q-71 22 -137 22q-195 0 -322 -127q-126 -129 -126 -327q0 -200 126 -326q126 -129 322 -129q70 0 137 20v-63q-75 -16 -139 -16q-226 0 -371 145t-145 369t147 368
q146 146 369 146q59 0 139 -17z" />
    <glyph glyph-name="t.ss11" horiz-adv-x="544" 
d="M473 995v-59h-201v-741q0 -63 38.5 -102.5t99.5 -39.5q22 0 63 13v-66q-27 -8 -67 -8q-91 0 -146 54t-55 144v746h-185v59h185v250h67v-250h201z" />
    <glyph glyph-name="tbar.ss11" horiz-adv-x="544" 
d="M473 995v-59h-201v-215h195v-51h-195v-475q0 -63 38.5 -102.5t99.5 -39.5q22 0 63 13v-66q-27 -8 -67 -8q-91 0 -146 54t-55 144v480h-178v51h178v215h-185v59h185v250h67v-250h201z" />
    <glyph glyph-name="tcaron.ss11" horiz-adv-x="528" 
d="M455 1405h59l-121 -334h-47zM205 1245h67v-250h201v-59h-201v-741q0 -63 38.5 -102.5t99.5 -39.5q22 0 63 13v-66q-27 -8 -67 -8q-91 0 -146 54t-55 144v746h-185v59h185v250z" />
    <glyph glyph-name="uni0163.ss11" horiz-adv-x="544" 
d="M473 995v-59h-201v-741q0 -63 38.5 -102.5t99.5 -39.5q22 0 63 13v-66q-27 -8 -67 -8q-91 0 -146 54t-55 144v746h-185v59h185v250h67v-250h201zM328 -66q63 0 101 -38.5t38 -100.5q0 -61 -38.5 -99t-100.5 -38q-27 0 -45 6v37q21 -6 43 -6q41 0 69.5 28.5t28.5 71.5
q0 44 -27.5 72.5t-70.5 28.5q-18 0 -43 -7v39q18 6 45 6z" />
    <glyph glyph-name="uni021B.ss11" horiz-adv-x="544" 
d="M473 995v-59h-201v-741q0 -63 38.5 -102.5t99.5 -39.5q22 0 63 13v-66q-27 -8 -67 -8q-91 0 -146 54t-55 144v746h-185v59h185v250h67v-250h201zM252 -438h-49l110 334h60z" />
    <glyph glyph-name="t.ss12" horiz-adv-x="913" 
d="M795 995v-59h-590v-619q0 -127 70 -200.5t192 -73.5q119 0 189.5 73.5t70.5 200.5v181h68v-181q0 -152 -89.5 -242.5t-238.5 -90.5t-238.5 90.5t-89.5 242.5v928h66v-250h590z" />
    <glyph glyph-name="tbar.ss12" horiz-adv-x="913" 
d="M795 995v-59h-590v-215h358v-49h-358v-355q0 -127 70 -200.5t192 -73.5q119 0 189.5 73.5t70.5 200.5v181h68v-181q0 -152 -89.5 -242.5t-238.5 -90.5t-238.5 90.5t-89.5 242.5v355h-121v49h121v524h66v-250h590z" />
    <glyph glyph-name="tcaron.ss12" horiz-adv-x="921" 
d="M844 1405h59l-121 -334h-47zM139 1245h66v-250h590v-59h-590v-619q0 -127 70 -200.5t192 -73.5q119 0 189.5 73.5t70.5 200.5v181h68v-181q0 -152 -89.5 -242.5t-238.5 -90.5t-238.5 90.5t-89.5 242.5v928z" />
    <glyph glyph-name="uni0163.ss12" horiz-adv-x="913" 
d="M795 995v-59h-590v-619q0 -127 70 -200.5t192 -73.5q119 0 189.5 73.5t70.5 200.5v181h68v-181q0 -152 -89.5 -242.5t-238.5 -90.5t-238.5 90.5t-89.5 242.5v928h66v-250h590zM453 -66q63 0 101 -38.5t38 -100.5t-38 -99.5t-101 -37.5q-27 0 -45 6v37q21 -6 43 -6
q41 0 69.5 28.5t28.5 71.5q0 44 -28 72.5t-70 28.5q-19 0 -43 -7v39q18 6 45 6z" />
    <glyph glyph-name="uni021B.ss12" horiz-adv-x="913" 
d="M795 995v-59h-590v-619q0 -127 70 -200.5t192 -73.5q119 0 189.5 73.5t70.5 200.5v181h68v-181q0 -152 -89.5 -242.5t-238.5 -90.5t-238.5 90.5t-89.5 242.5v928h66v-250h590zM377 -438h-49l110 334h60z" />
    <glyph glyph-name="u.ss13" horiz-adv-x="1128" 
d="M913 418v577h68v-995h-68v227q-43 -115 -141 -179t-233 -64q-185 0 -294.5 117t-109.5 313v581h68v-577q0 -173 95.5 -276t256.5 -103q164 0 261 103t97 276z" />
    <glyph glyph-name="uacute.ss13" horiz-adv-x="1128" 
d="M799 1407h69l-286 -311h-60zM913 418v577h68v-995h-68v227q-43 -115 -141 -179t-233 -64q-185 0 -294.5 117t-109.5 313v581h68v-577q0 -173 95.5 -276t256.5 -103q164 0 261 103t97 276z" />
    <glyph glyph-name="ucircumflex.ss13" horiz-adv-x="1128" 
d="M811 1096l-254 276l-254 -276h-59l278 311h68h4l276 -311h-59zM913 418v577h68v-995h-68v227q-43 -115 -141 -179t-233 -64q-185 0 -294.5 117t-109.5 313v581h68v-577q0 -173 95.5 -276t256.5 -103q164 0 261 103t97 276z" />
    <glyph glyph-name="udieresis.ss13" horiz-adv-x="1128" 
d="M449 1174q-34 0 -48 26t0 52t48 26q33 0 46.5 -26t0 -52t-46.5 -26zM711 1190q-28 -27 -61.5 -12.5t-33.5 49.5q0 51 54 51q37 0 51.5 -31.5t-10.5 -56.5zM913 418v577h68v-995h-68v227q-43 -115 -141 -179t-233 -64q-185 0 -294.5 117t-109.5 313v581h68v-577
q0 -173 95.5 -276t256.5 -103q164 0 261 103t97 276z" />
    <glyph glyph-name="ugrave.ss13" horiz-adv-x="1128" 
d="M317 1407l277 -311h-59l-287 311h69zM913 418v577h68v-995h-68v227q-43 -115 -141 -179t-233 -64q-185 0 -294.5 117t-109.5 313v581h68v-577q0 -173 95.5 -276t256.5 -103q164 0 261 103t97 276z" />
    <glyph glyph-name="uhungarumlaut.ss13" horiz-adv-x="1128" 
d="M674 1407h65l-276 -311h-53zM991 1407l-289 -311h-55l279 311h65zM913 418v577h68v-995h-68v227q-43 -115 -141 -179t-233 -64q-185 0 -294.5 117t-109.5 313v581h68v-577q0 -173 95.5 -276t256.5 -103q164 0 261 103t97 276z" />
    <glyph glyph-name="umacron.ss13" horiz-adv-x="1128" 
d="M287 1255h544v-49h-544v49zM913 418v577h68v-995h-68v227q-43 -115 -141 -179t-233 -64q-185 0 -294.5 117t-109.5 313v581h68v-577q0 -173 95.5 -276t256.5 -103q164 0 261 103t97 276z" />
    <glyph glyph-name="uogonek.ss13" horiz-adv-x="1128" 
d="M913 418v577h68v-995h-68v227q-58 -157 -217 -217l11 -10q-199 -111 -199 -248q0 -58 38 -93.5t103 -35.5q31 0 49 6v-49q-21 -6 -55 -6q-87 0 -139.5 46.5t-52.5 121.5q0 143 174 250q-31 -8 -86 -8q-185 0 -294.5 117t-109.5 313v581h68v-577q0 -173 95.5 -276
t256.5 -103q164 0 261 103t97 276z" />
    <glyph glyph-name="uring.ss13" horiz-adv-x="1128" 
d="M705 1151q-57 -57 -148 -57q-90 0 -147 57q-58 58 -58 145q0 90 58 148q57 57 147 57q91 0 148 -57t57 -148t-57 -145zM670 1409q-32 35 -81 42.5t-92 -9.5t-71.5 -56.5t-24.5 -89.5q0 -66 44.5 -110.5t111.5 -44.5t112.5 44.5t45.5 110.5q0 68 -45 113zM913 418v577h68
v-995h-68v227q-43 -115 -141 -179t-233 -64q-185 0 -294.5 117t-109.5 313v581h68v-577q0 -173 95.5 -276t256.5 -103q164 0 261 103t97 276z" />
    <glyph glyph-name="C_O" horiz-adv-x="1599" 
d="M1442 553h74q-47 -256 -240 -412q-195 -157 -465 -157q-317 0 -518 204q-203 203 -203 519q0 311 203 514q203 200 518 200q273 0 465 -155q193 -156 240 -406h-74q-50 221 -219 359q-171 137 -412 137q-283 0 -465 -182q-182 -185 -182 -467q0 -286 182 -471
q181 -187 465 -187q240 0 414 139q170 139 217 365zM813 1102q174 0 287 -113q110 -113 110 -287q0 -173 -110 -286q-113 -113 -287 -113q-172 0 -285 113q-112 112 -112 286q0 175 112 287q113 113 285 113zM813 1040q-144 0 -238 -94t-94 -244q0 -147 94 -241
q96 -96 238 -96q146 0 242 96q94 94 94 241q0 150 -94 244t-242 94z" />
    <glyph glyph-name="C_T" horiz-adv-x="2285" 
d="M811 1405h1436v-66h-480v-1339h-71v1339h-885q-285 0 -465 -180q-182 -182 -182 -461q0 -283 182 -465q181 -184 465 -184q240 0 414 139q170 139 217 365h74q-47 -256 -240 -412q-195 -157 -465 -157q-316 0 -518 202q-203 200 -203 512q0 308 203 508q202 199 518 199z
" />
    <glyph glyph-name="E_A" horiz-adv-x="2347" 
d="M2329 0h-76l-168 403h-766l-168 -403h-78h-895v1405h920v-66h-850v-594h772v-63h-772v-616h852l559 1339h84zM1702 1329l-359 -864h717z" />
    <glyph glyph-name="E_S" horiz-adv-x="2283" 
d="M1323 1051q0 -47 13.5 -86t34 -66t56.5 -49.5t68 -36.5t83.5 -27.5t88 -21t95 -18.5t93.5 -19q61 -14 107.5 -30t93.5 -43.5t77.5 -62.5t49.5 -87.5t19 -118.5q0 -177 -135 -281t-359 -104h-1530v1405h920v-66h-850v-594h772v-63h-772v-616h1466q190 0 302 86t112 233
q0 74 -30 127t-81 83.5t-117 51.5t-139 35t-145.5 29t-138.5 39.5t-117 59.5t-81 96t-30 143q0 171 125.5 271.5t335.5 100.5q208 0 332 -104.5t131 -292.5h-72q-7 160 -111 248t-282 88q-174 0 -279.5 -83.5t-105.5 -225.5z" />
    <glyph glyph-name="H_T" horiz-adv-x="2052" 
d="M629 1405h540l-2 -4v-1401h-69v659h-850v-659h-70v1405h70v-680h850v614h-469v66zM1475 1405h538v-66h-469v-1339h-69v1405z" />
    <glyph glyph-name="H_U" horiz-adv-x="2281" 
d="M2071 528v877h71v-879q0 -248 -141 -395q-144 -147 -381 -147q-238 0 -379 147q-143 146 -143 395v133h-850v-659h-70v1405h70v-680h850v680h71v-877q0 -220 122 -349.5t329 -129.5q206 0 328 131q123 129 123 348z" />
    <glyph glyph-name="L_A" horiz-adv-x="1482" 
d="M178 1405h70v-1339h1159v-66h-1190h-39v1405zM1245 655h-567l-125 -303h-72l441 1053h82l440 -1053h-72zM1223 711l-260 624l-261 -624h521z" />
    <glyph glyph-name="L_E" horiz-adv-x="1343" 
d="M178 1405h70v-1339h995v-66h-1065v1405zM1243 1405v-64h-641v-426h563v-61h-563v-438h641v-64h-708v1053h708z" />
    <glyph glyph-name="L_I" horiz-adv-x="792" 
d="M178 1405h70v-1339h387v-66h-422h-35v1405zM563 352v1053h72v-1053h-72z" />
    <glyph glyph-name="L_L" horiz-adv-x="1304" 
d="M248 1405v-1339h938v-66h-996h-12v1405h70zM1186 352h-651v1053h69v-989h582v-64z" />
    <glyph glyph-name="L_O" horiz-adv-x="1679" 
d="M1047 336q-237 0 -390 153q-153 150 -153 388q0 235 153 391q153 153 390 153q235 0 391 -153q153 -153 153 -391t-153 -388q-153 -153 -391 -153zM178 1405h70v-1339h1327v-66h-1364h-33v1405zM1389 1223q-135 135 -342 135q-208 0 -340 -135q-136 -139 -136 -346
q0 -209 136 -345q132 -135 340 -135q207 0 342 135t135 345q0 208 -135 346z" />
    <glyph glyph-name="L_U" horiz-adv-x="1443" 
d="M248 1405v-1339h1069v-66h-1094h-45v1405h70zM1210 446q-106 -112 -290 -112q-185 0 -291 112q-109 112 -109 299v660h68v-657q0 -161 90 -257t242 -96t240.5 95.5t88.5 257.5v657h68v-660q0 -189 -107 -299z" />
    <glyph glyph-name="M_U" horiz-adv-x="2693" 
d="M2482 528v877h72v-879q0 -248 -141 -395q-144 -147 -381 -147q-238 0 -379 147q-144 147 -144 395v799l-596 -1325h-69l-596 1325v-1325h-70v1405h105l596 -1327l596 1327h106v-877q0 -220 122 -349.5t329 -129.5q205 0 327 131q123 129 123 348z" />
    <glyph glyph-name="N_N" horiz-adv-x="2363" 
d="M2116 78v1327h69v-1405h-96l-872 1325v-1325h-97l-872 1325v-1325h-70v1405h96l873 -1327v1327h96z" />
    <glyph glyph-name="N_T" horiz-adv-x="2101" 
d="M686 1339v66h531v-1405h-97l-872 1321v-1321h-70v1405h96l873 -1323v1257h-461zM1522 1405h540v-66h-469v-1339h-71v1405z" />
    <glyph glyph-name="O_O" horiz-adv-x="2990" 
d="M2181 1421q312 0 518 -200q203 -203 203 -514q0 -316 -203 -519q-204 -204 -518 -204q-246 0 -432 133q-183 131 -254 352q-67 -220 -252 -352q-186 -133 -432 -133q-317 0 -518 204q-203 203 -203 519q0 311 203 514q203 200 518 200q249 0 432 -131q185 -132 252 -348
q70 216 254 348q183 131 432 131zM1718 236q181 -187 463 -187q281 0 465 187q182 188 182 471q0 279 -182 464q-185 185 -465 185q-281 0 -463 -185q-184 -184 -184 -464q0 -284 184 -471zM811 49q282 0 463 187q182 185 182 471q0 279 -182 464t-463 185q-283 0 -465 -182
q-182 -185 -182 -467q0 -286 182 -471q181 -187 465 -187z" />
    <glyph glyph-name="S_T" horiz-adv-x="2023" 
d="M580 1405h1405v-66h-482v-1339h-69v1339h-856q-177 0 -281 -82t-104 -223q0 -72 30 -123.5t81 -81t116.5 -49t138.5 -33t146 -28.5t138.5 -39.5t116.5 -60t81 -98t30 -146.5q0 -177 -135 -285q-132 -106 -358 -106q-231 0 -365.5 117.5t-140.5 314.5h69
q5 -168 121.5 -269.5t317.5 -101.5q190 0 303.5 89t113.5 241q0 104 -62.5 170.5t-164.5 91.5q-31 7 -101 23t-110 24q-10 2 -49 10.5t-50.5 11t-45 10.5t-46.5 13t-40.5 14t-42 18t-35 21t-36.5 26t-30 30q-65 74 -65 194q0 171 125.5 272t335.5 101z" />
    <glyph glyph-name="T_H" horiz-adv-x="2052" 
d="M1804 725v680h70v-1405h-70v659h-850v-659h-71v1405h71h469v-66h-469v-614h850zM508 1339h-469v66h539v-1405h-70v1339z" />
    <glyph glyph-name="T_T" horiz-adv-x="2011" 
d="M942 1405h1030v-66h-479v-1339h-72v1339h-479h-352v-1339h-72v1339h-479v66h903z" />
    <glyph glyph-name="T_U" horiz-adv-x="2070" 
d="M1860 528v877h71v-879q0 -248 -141 -395q-144 -147 -381 -147q-238 0 -379 147q-143 146 -143 395v879h71h467v-66h-467v-811q0 -220 122 -349.5t329 -129.5t329 129.5t122 349.5zM510 1339h-467v66h539v-1405h-72v1339z" />
    <glyph glyph-name="T_Y" horiz-adv-x="2193" 
d="M2091 1405h80l-549 -770v-635h-72v635l-501 704h-459v-1339h-72v1339h-479v66h962h82l504 -711z" />
    <glyph glyph-name="T_Z" horiz-adv-x="2111" 
d="M985 1405h1034v-62l-954 -1280h954v-63h-1036v59l952 1280h-950h-395v-1339h-72v1339h-479v66h946z" />
    <glyph glyph-name="U_H" horiz-adv-x="2281" 
d="M2034 725v680h69v-1405h-69v659h-850v-133q0 -247 -142 -395q-144 -147 -380 -147q-238 0 -379 147q-144 147 -144 395v879h72v-877q0 -219 123 -348q122 -131 328 -131q207 0 328.5 129.5t121.5 349.5v877h72v-680h850z" />
    <glyph glyph-name="U_M" horiz-adv-x="2693" 
d="M1815 78l593 1327h107v-1405h-72v1325l-594 -1325h-71l-594 1325v-799q0 -247 -142 -395q-144 -147 -380 -147q-238 0 -379 147q-144 147 -144 395v879h72v-877q0 -220 122 -349.5t329 -129.5q205 0 327 131q123 129 123 348v877h107z" />
    <glyph glyph-name="U_N" horiz-adv-x="2328" 
d="M2081 78v1327h71v-1405h-98l-870 1325v-799q0 -247 -142 -395q-144 -147 -380 -147q-238 0 -379 147q-144 147 -144 395v879h72v-877q0 -220 122 -349.5t329 -129.5q205 0 327 131q123 129 123 348v877h96z" />
    <glyph glyph-name="U_T" horiz-adv-x="2070" 
d="M645 1339v66h539v-879q0 -247 -142 -395q-144 -147 -380 -147q-238 0 -379 147q-144 147 -144 395v879h72v-877q0 -220 122 -349.5t329 -129.5t328.5 129.5t121.5 349.5v811h-467zM1489 1405h541v-66h-469v-1339h-72v1405z" />
    <glyph glyph-name="Z_A" horiz-adv-x="2406" 
d="M2388 0h-76l-168 403h-766l-168 -403h-77h-1043v61l954 1278h-950v66h1034v-62l-954 -1277h985l559 1339h84zM1761 1329l-358 -864h717z" />
    <glyph glyph-name="f_f_t" horiz-adv-x="1314" 
d="M1055 995h229v-59h-229v-936h-68v936h-186h-144v-936h-67v936h-152h-176v-936h-65v936h-154v59h154v224q0 91 55.5 146.5t146.5 55.5q37 0 64 -8v-65q-35 12 -64 12q-61 0 -99 -39t-38 -102v-224h176h152v224q0 90 57 146t148 56q36 0 63 -8v-65q-35 12 -63 12
q-62 0 -100 -39t-38 -102v-224h201h129v250h68v-250z" />
    <glyph glyph-name="f_iacute" horiz-adv-x="815" 
d="M262 995h395v-995h-67v936h-328v-936h-65v936h-154v59h154v224q0 91 55.5 146.5t146.5 55.5q37 0 64 -8v-65q-35 12 -64 12q-61 0 -99 -39t-38 -102v-224zM864 1405h70l-287 -311h-59z" />
    <glyph glyph-name="f_j" horiz-adv-x="794" 
d="M262 995h395v-1405h-67v1346h-328v-936h-65v936h-154v59h154v224q0 91 55.5 146.5t146.5 55.5q37 0 64 -8v-65q-35 12 -64 12q-61 0 -99 -39t-38 -102v-224zM580 1292q17 17 43 17t43 -17t17 -43t-17 -43t-43 -17t-43 17t-17 43t17 43z" />
    <glyph glyph-name="f_t" horiz-adv-x="921" 
d="M659 995h230v-59h-230v-936h-67v936h-184h-146v-936h-65v936h-154v59h154v224q0 91 55.5 146.5t146.5 55.5q37 0 64 -8v-65q-35 12 -64 12q-61 0 -99 -39t-38 -102v-224h146h184v250h67v-250z" />
    <glyph glyph-name="t_t" horiz-adv-x="946" 
d="M684 995h231v-59h-231v-936h-68v936h-184h-143v-936h-66v936h-186v59h186v250h66v-250h143h184v250h68v-250z" />
    <glyph glyph-name="C_A.calt01" horiz-adv-x="2564" 
d="M1300 264l990 1141h98v-1405h-72v328h-868l-86 -101q-206 -243 -551 -243q-317 0 -518 204q-203 203 -203 519q0 311 203 514q203 200 518 200q273 0 465 -155q193 -156 240 -406h-74q-50 221 -219 359q-171 137 -412 137q-283 0 -465 -182q-182 -185 -182 -467
q0 -286 182 -471q181 -187 465 -187q307 0 489 215zM2316 1337l-815 -948h815v948z" />
    <glyph glyph-name="E_A.calt01" horiz-adv-x="2222" 
d="M795 66l1151 1339h98v-1405h-72v328h-866l-281 -328h-86h-561v1405h920v-66h-850v-594h772v-63h-772v-616h547zM1972 1343l-815 -954h815v954z" />
    <glyph glyph-name="E_M.calt01" horiz-adv-x="3444" 
d="M2032 88l1144 1317h89v-1405h-70v1333l-1151 -1333h-76v1333l-1151 -1333h-82h-557v1405h920v-66h-850v-594h772v-63h-772v-616h543l1148 1339h93v-1317z" />
    <glyph glyph-name="E_V.calt01" horiz-adv-x="2217" 
d="M1968 61v1344h72v-1405h-96l-1156 1343v-4h-540v-594h772v-63h-772v-616h850v-66h-920v1405h557h86z" />
    <glyph glyph-name="E_W.calt01" horiz-adv-x="3444" 
d="M3195 74v1331h72v-1405h-91l-1144 1319v-1319h-90l-1151 1339h-543v-594h772v-63h-772v-616h850v-66h-920v1405h557h84l1149 -1331v1331h78z" />
    <glyph glyph-name="K_A.calt01" horiz-adv-x="1988" 
d="M723 252l991 1153h98v-1405h-71v328h-867l-280 -328h-86l172 201l-432 499v-700h-70v1405h70v-682l583 682h84l-591 -692zM1741 1343l-815 -954h815v954z" />
    <glyph glyph-name="M_U.ss05" horiz-adv-x="2613" 
d="M2402 528v877h72v-879q0 -248 -141 -395q-144 -147 -381 -147q-238 0 -379 147q-143 146 -143 395v803l-562 -678h-57l-563 678v-1329h-70v1405h94l568 -680l567 680h94v-877q0 -220 122 -349.5t329 -129.5q205 0 327 131q123 129 123 348z" />
    <glyph glyph-name="U_M.ss05" horiz-adv-x="2613" 
d="M1774 725l567 680h94v-1405h-70v1327l-563 -676h-57l-561 678v-803q0 -247 -142 -395q-144 -147 -380 -147q-238 0 -379 147q-144 147 -144 395v879h72v-877q0 -219 123 -348q122 -131 328 -131q207 0 328.5 129.5t121.5 349.5v877h94z" />
    <glyph glyph-name="M_U.ss06" horiz-adv-x="2580" 
d="M2372 528v877h71v-879q0 -248 -141 -395q-144 -147 -381 -147q-238 0 -379 147q-143 146 -143 395v781l-576 -615l-575 613v-1305h-70v1405h70l575 -614l576 614h69v-877q0 -220 123 -349.5t330 -129.5q206 0 328 131q123 129 123 348z" />
    <glyph glyph-name="U_M.ss06" horiz-adv-x="2582" 
d="M1757 791l576 614h71v-1405h-71v1307l-576 -615l-573 613v-779q0 -247 -142 -395q-144 -147 -380 -147q-238 0 -379 147q-144 147 -144 395v879h72v-877q0 -220 122 -349.5t329 -129.5q205 0 327 131q123 129 123 348v877h70z" />
    <glyph glyph-name="f_f_t.ss11" horiz-adv-x="1323" 
d="M1251 995v-59h-198v-741q0 -63 38 -102.5t99 -39.5q24 0 61 13v-66q-24 -8 -67 -8q-91 0 -145 53.5t-54 144.5v746h-184h-144v-936h-67v936h-152h-176v-936h-65v936h-154v59h154v224q0 91 55.5 146.5t146.5 55.5q37 0 64 -8v-65q-35 12 -64 12q-61 0 -99 -39t-38 -102
v-224h176h152v224q0 90 57 146t148 56q36 0 63 -8v-65q-35 12 -63 12q-62 0 -100 -39t-38 -102v-224h201h127v250h68v-250h198z" />
    <glyph glyph-name="f_t.ss11" horiz-adv-x="903" 
d="M858 995v-59h-199v-741q0 -63 38.5 -102.5t99.5 -39.5q24 0 61 13v-66q-24 -8 -67 -8q-91 0 -145 53.5t-54 144.5v746h-184h-146v-936h-65v936h-154v59h154v224q0 91 55.5 146.5t146.5 55.5q37 0 64 -8v-65q-35 12 -64 12q-61 0 -99 -39t-38 -102v-224h146h184v250h67
v-250h199z" />
    <glyph glyph-name="t_t.ss11" horiz-adv-x="940" 
d="M868 995v-59h-200v-741q0 -63 38 -102.5t99 -39.5q22 0 63 13v-66q-27 -8 -67 -8q-91 0 -146 54t-55 144v746h-184h-144v-741q0 -63 38.5 -102.5t99.5 -39.5q22 0 63 13v-66q-27 -8 -67 -8q-91 0 -146 54t-55 144v746h-185v59h185v250h67v-250h144h184v250h68v-250h200z
" />
    <glyph glyph-name="f_f_t.ss12" horiz-adv-x="1761" 
d="M1642 995v-59h-589v-619q0 -127 70 -200.5t192 -73.5q119 0 189.5 73.5t70.5 200.5v181h67v-181q0 -152 -89 -242.5t-238 -90.5q-150 0 -240 90.5t-90 242.5v619h-328v-936h-67v936h-328v-936h-65v936h-154v59h154v224q0 91 55.5 146.5t146.5 55.5q37 0 64 -8v-65
q-35 12 -64 12q-61 0 -99 -39t-38 -102v-224h328v224q0 90 57 146t148 56q36 0 63 -8v-65q-35 12 -63 12q-62 0 -100 -39t-38 -102v-224h328v250h68v-250h589z" />
    <glyph glyph-name="f_t.ss12" horiz-adv-x="1366" 
d="M1247 995v-59h-588v-619q0 -127 71 -200.5t190 -73.5q121 0 191.5 74.5t70.5 199.5v181h65v-181q0 -152 -89 -242.5t-238 -90.5t-238.5 90.5t-89.5 242.5v619h-330v-936h-65v936h-154v59h154v224q0 91 55.5 146.5t146.5 55.5q37 0 64 -8v-65q-35 12 -64 12q-61 0 -99 -39
t-38 -102v-224h330v250h67v-250h588z" />
    <glyph glyph-name="zero.lf" horiz-adv-x="1333" 
d="M254 1227q153 194 414 194q260 0 413 -194q154 -195 154 -525q0 -329 -154 -524q-153 -194 -413 -194q-263 0 -416 194q-154 195 -154 524q0 332 156 525zM1032 1184q-135 176 -364 176q-230 0 -365 -176q-135 -178 -135 -482t135 -479q135 -178 365 -178q229 0 364 178
q133 177 133 479t-133 482z" />
    <glyph glyph-name="one.lf" horiz-adv-x="745" 
d="M453 1405h59v-1405h-68v1247q-43 -73 -129.5 -115t-195.5 -42v61q146 0 240 72t94 182z" />
    <glyph glyph-name="two.lf" horiz-adv-x="1114" 
d="M166 59h870v-59h-946v14q7 89 21.5 144t52.5 108q8 11 24.5 34t23.5 31.5t23 25t39 34.5q12 10 27 21.5t24 18.5t13 11q4 3 14 10t28 19t34 23q60 39 69 43q21 11 76 45q114 69 148 94q56 38 118 94q119 107 119 262q0 147 -104 238q-109 92 -271 92q-160 0 -265 -90.5
t-118 -247.5h-67q13 183 136 290t314 107q194 0 318 -106q125 -107 125 -281t-131 -293q-54 -52 -123 -102q-50 -37 -154 -98q-225 -132 -297 -201q-138 -126 -141 -281z" />
    <glyph glyph-name="three.lf" horiz-adv-x="1144" 
d="M688 739q172 -31 273.5 -131t101.5 -239q0 -168 -139 -277q-138 -108 -357 -108q-220 0 -360 116q-143 119 -146 316h70q4 -171 124 -273t312 -102q186 0 305 94q121 95 121 240q0 149 -125 243q-127 95 -329 95h-68v51h66q183 0 294 83.5t111 217.5q0 133 -104 215
q-110 84 -271 84q-169 0 -275 -91.5t-110 -248.5h-65q3 183 129 291q124 106 321 106q193 0 318 -98t125 -248q0 -124 -87 -214.5t-235 -121.5z" />
    <glyph glyph-name="four.lf" horiz-adv-x="1222" 
d="M911 414h275v-58h-275v-356h-67v356h-781v54l766 995h82v-991zM844 414v913l-707 -913h707z" />
    <glyph glyph-name="five.lf" horiz-adv-x="1220" 
d="M610 954q220 0 361 -135q139 -139 139 -348q0 -213 -143 -350t-367 -137q-201 0 -344 116q-147 120 -162 314h70q15 -172 141 -271q121 -100 295 -100q189 0 315 123q125 119 125 307t-122 307q-127 121 -318 121q-112 0 -217 -57q-108 -58 -162 -150h-67l104 711h61h717
v-59h-725l-82 -564q62 78 165.5 125t215.5 47z" />
    <glyph glyph-name="six.lf" horiz-adv-x="1210" 
d="M618 954q216 0 357 -135q141 -138 141 -348q0 -213 -143 -350t-367 -137q-223 0 -366 137q-146 140 -146 350q0 158 92 291l449 643h80l-375 -531q121 80 278 80zM291 164q127 -121 315 -121q190 0 316 123q125 119 125 305q0 188 -125 307q-127 121 -316 121
q-190 0 -317 -121q-125 -119 -125 -307q0 -186 127 -307z" />
    <glyph glyph-name="seven.lf" horiz-adv-x="1140" 
d="M90 1343v62h969v-55l-686 -1350h-72l682 1343h-893z" />
    <glyph glyph-name="eight.lf" horiz-adv-x="1236" 
d="M778 741q172 -36 274.5 -135.5t102.5 -234.5q0 -172 -149 -279q-150 -108 -388 -108q-235 0 -385 108q-151 109 -151 279q0 136 102 235.5t275 134.5q-147 36 -232.5 123.5t-85.5 208.5q0 151 135 250q131 98 342 98t345 -98q133 -100 133 -250q0 -121 -85.5 -208.5
t-232.5 -123.5zM324 1282q-117 -86 -117 -217q0 -133 117 -215q115 -86 294 -86t297 86q115 83 115 215q0 131 -115 217q-119 84 -297 84t-294 -84zM283 135q134 -96 335 -96q202 0 336 96q131 94 131 240q0 149 -131 243q-135 97 -336 97q-200 0 -335 -97
q-131 -94 -131 -243q0 -146 131 -240z" />
    <glyph glyph-name="nine.lf" horiz-adv-x="1210" 
d="M604 1421q226 0 369 -137t143 -350q0 -158 -92 -291l-449 -643h-79l372 528q-115 -77 -276 -77q-216 0 -356 137q-142 139 -142 346q0 210 146 350q143 137 364 137zM604 506q191 0 318 121q125 119 125 307t-125 307q-127 121 -318 121q-188 0 -315 -121
q-125 -122 -125 -307q0 -188 125 -307q127 -121 315 -121z" />
    <glyph glyph-name="zero.osf" horiz-adv-x="1267" 
d="M633 1174q248 0 391 -162q145 -165 145 -434q0 -273 -145 -433q-142 -161 -391 -161q-247 0 -389 161q-146 161 -146 433q0 268 146 434q143 162 389 162zM973 969q-125 143 -340 143q-213 0 -338 -143q-127 -145 -127 -391q0 -245 127 -390t338 -145q213 0 340 145
t127 390q0 246 -127 391z" />
    <glyph glyph-name="one.osf" horiz-adv-x="724" 
d="M432 1147h60v-1147h-68v993q-41 -72 -123.5 -114.5t-181.5 -42.5v61q130 0 223 72q90 72 90 178z" />
    <glyph glyph-name="two.osf" horiz-adv-x="1128" 
d="M168 55h883v-55h-961v14q0 142 94 248q39 42 107 84q75 43 117 62q28 13 133 55q33 14 121 49q31 12 104 53q67 39 96 68q80 84 80 190q0 129 -101.5 208t-258.5 79q-159 0 -262 -82.5t-115 -214.5h-68q11 160 131.5 257t313.5 97q188 0 309 -92q119 -91 119 -250
q0 -161 -133 -254q-65 -47 -123 -75t-162 -68q-222 -87 -289 -137q-129 -94 -135 -236z" />
    <glyph glyph-name="three.osf" horiz-adv-x="1144" 
d="M700 487q172 -29 273.5 -129.5t101.5 -240.5q0 -168 -139 -277q-138 -108 -356 -108q-221 0 -361 116q-142 118 -145 316h69q4 -171 124.5 -273t312.5 -102q186 0 305 94q121 95 121 240q0 150 -125 244t-330 94h-68v51h66q183 0 294 83.5t111 217.5q0 133 -104 215
q-110 84 -270 84q-169 0 -275 -91.5t-110 -248.5h-66q3 183 129 291q124 106 322 106q192 0 317 -98t125 -248q0 -124 -87 -214.5t-235 -121.5z" />
    <glyph glyph-name="four.osf" horiz-adv-x="1222" 
d="M911 158h275v-58h-275v-356h-67v356h-781v54l766 995h82v-991zM844 158v913l-707 -913h707z" />
    <glyph glyph-name="five.osf" horiz-adv-x="1220" 
d="M610 698q220 0 361 -135q139 -139 139 -348q0 -213 -143 -350t-367 -137q-201 0 -344 116q-147 120 -162 314h70q15 -171 141 -273q122 -98 295 -98q188 0 315 121q125 122 125 309q0 188 -122 307q-127 121 -318 121q-112 0 -217 -57q-108 -58 -162 -150h-67l104 711h61
h717v-59h-725l-80 -562q62 78 164.5 124t214.5 46z" />
    <glyph glyph-name="six.osf" horiz-adv-x="1210" 
d="M618 954q216 0 357 -135q141 -138 141 -348q0 -213 -143 -350t-367 -137q-223 0 -366 137q-146 140 -146 350q0 158 92 291l449 643h80l-375 -531q121 80 278 80zM291 164q127 -121 315 -121q190 0 316 123q125 119 125 305q0 188 -125 307q-127 121 -316 121
q-190 0 -317 -121q-125 -119 -125 -307q0 -186 127 -307z" />
    <glyph glyph-name="seven.osf" horiz-adv-x="1140" 
d="M90 1087v62h969v-55l-686 -1350h-72l682 1343h-893z" />
    <glyph glyph-name="eight.osf" horiz-adv-x="1236" 
d="M778 741q172 -36 274.5 -135.5t102.5 -234.5q0 -172 -149 -279q-150 -108 -388 -108q-235 0 -385 108q-151 109 -151 279q0 136 102 235.5t275 134.5q-147 36 -232.5 123.5t-85.5 208.5q0 151 135 250q131 98 342 98t345 -98q133 -100 133 -250q0 -121 -85.5 -208.5
t-232.5 -123.5zM324 1282q-117 -86 -117 -217q0 -133 117 -215q115 -86 294 -86t297 86q115 83 115 215q0 131 -115 217q-119 84 -297 84t-294 -84zM283 135q134 -96 335 -96q202 0 336 96q131 94 131 240q0 149 -131 243q-135 97 -336 97q-200 0 -335 -97
q-131 -94 -131 -243q0 -146 131 -240z" />
    <glyph glyph-name="nine.osf" horiz-adv-x="1210" 
d="M604 1169q226 0 369 -137t143 -350q0 -158 -92 -291l-449 -643h-79l372 528q-115 -77 -276 -77q-216 0 -356 137q-142 139 -142 346q0 210 146 350q143 137 364 137zM604 254q191 0 318 121q125 119 125 307t-125 307q-127 121 -318 121q-188 0 -315 -121
q-125 -122 -125 -307q0 -188 125 -307q127 -121 315 -121z" />
    <glyph glyph-name="zero.tf" 
d="M225 1227q153 194 414 194q260 0 416 -194q153 -193 153 -525q0 -330 -153 -524t-416 -194q-261 0 -414 194t-153 524q0 332 153 525zM1004 1184q-135 176 -365 176q-231 0 -363 -176q-135 -178 -135 -482q0 -303 135 -481q132 -178 363 -178q230 0 365 178t135 481
q0 304 -135 482z" />
    <glyph glyph-name="one.tf" 
d="M717 1405v-1346h334v-59h-402h-352v59h352v1188q-43 -73 -129.5 -115t-195.5 -42v61q146 0 239.5 71.5t93.5 182.5h60z" />
    <glyph glyph-name="two.tf" 
d="M252 57h868v-57h-944v14q7 89 21.5 144t52.5 108q8 11 20 28t18.5 25.5t17 21t23 24.5t29.5 26q26 19 64 51q17 14 76 52q15 9 31 19.5t25 15.5t13 8q3 2 14 8.5t27.5 16t34.5 20.5q114 69 148 94q56 38 118 94q119 107 119 262q0 147 -104 238q-109 92 -271 92
q-160 0 -265 -90.5t-118 -247.5h-65q13 183 135.5 290t314.5 107q194 0 318 -106q123 -108 123 -281q0 -174 -131 -293q-54 -52 -123 -102q-50 -37 -154 -98q-219 -131 -295 -201q-141 -126 -141 -283z" />
    <glyph glyph-name="three.tf" 
d="M745 739q172 -29 273.5 -129.5t101.5 -240.5q0 -168 -139 -277q-138 -108 -356 -108q-221 0 -361 116q-142 118 -145 316h69q4 -171 124.5 -273t312.5 -102q188 0 307 94t119 240q0 149 -125 243q-127 95 -330 95h-68v51h68q182 0 292.5 83.5t110.5 217.5q0 133 -104 215
q-110 84 -270 84q-169 0 -275 -91.5t-110 -248.5h-66q3 181 131 291q124 106 322 106q190 0 315 -98t125 -248q0 -124 -87 -214.5t-235 -121.5z" />
    <glyph glyph-name="four.tf" 
d="M950 414h275v-58h-275v-356h-65v356h-781v54l764 995h82v-991zM885 414v915l-709 -915h709z" />
    <glyph glyph-name="five.tf" 
d="M641 954q219 0 360 -135q140 -140 140 -348q0 -212 -144 -350q-143 -137 -366 -137q-201 0 -344 116q-147 120 -162 314h68q15 -172 141 -271q124 -100 297 -100q189 0 315 123q125 119 125 307t-125 307q-127 121 -315 121q-112 0 -218.5 -58t-160.5 -149h-68l105 711
h59h717v-59h-725l-80 -566q60 80 163 127t218 47z" />
    <glyph glyph-name="six.tf" 
d="M653 954q216 0 357 -135q141 -138 141 -348q0 -213 -143 -350t-369 -137q-224 0 -367 137t-143 350q0 158 92 291l449 643h80l-377 -531q121 80 280 80zM324 166q126 -123 315 -123q190 0 317 121q125 119 125 307t-125 307q-127 121 -317 121q-188 0 -315 -121
q-125 -119 -125 -307q0 -186 125 -305z" />
    <glyph glyph-name="seven.tf" 
d="M164 1343v62h966v-55l-684 -1350h-71l682 1343h-893z" />
    <glyph glyph-name="eight.tf" 
d="M795 741q174 -32 277.5 -131.5t103.5 -238.5q0 -171 -150 -279t-387 -108q-236 0 -385 110q-152 109 -152 277q0 138 104 237.5t277 132.5q-147 32 -234 121.5t-87 210.5q0 151 135 250q134 98 342 98q210 0 344 -98q133 -100 133 -250q0 -121 -86.5 -210.5
t-234.5 -121.5zM344 1282q-117 -86 -117 -217q0 -133 117 -215q115 -86 295 -86q179 0 297 86q117 82 117 215q0 131 -117 217q-119 84 -297 84q-179 0 -295 -84zM639 39q202 0 336 96q131 94 131 240q0 149 -131 243q-135 97 -336 97q-199 0 -334 -97q-133 -95 -133 -243
q0 -145 133 -240q134 -96 334 -96z" />
    <glyph glyph-name="nine.tf" 
d="M639 1421q226 0 369 -137t143 -350q0 -158 -92 -291l-449 -643h-80l373 528q-115 -77 -276 -77q-217 0 -357 137q-141 138 -141 346q0 211 145 350q143 137 365 137zM639 506q190 0 317 121q125 119 125 307t-125 307q-127 121 -317 121q-188 0 -315 -121
q-125 -122 -125 -307q0 -188 125 -307q127 -121 315 -121z" />
    <glyph glyph-name="zero.tosf" 
d="M639 1174q248 0 391 -162q146 -166 146 -434q0 -272 -146 -433q-142 -161 -391 -161q-247 0 -389 161q-146 161 -146 433q0 268 146 434q143 162 389 162zM979 969q-125 143 -340 143q-213 0 -338 -143q-127 -145 -127 -391q0 -245 127 -390t338 -145q213 0 340 145
t127 390q0 246 -127 391z" />
    <glyph glyph-name="one.tosf" 
d="M721 1147v-1092h330v-55h-398h-354v55h354v938q-41 -72 -123.5 -114.5t-181.5 -42.5v61q130 0 223 72q91 72 91 178h59z" />
    <glyph glyph-name="two.tosf" 
d="M246 55h884v-55h-960v14q0 141 94 250q34 40 107 82q95 54 116 64q17 8 64 26t70 27q38 15 120 51q52 22 103 51q68 37 98 68q80 84 80 190q0 129 -101.5 208t-261.5 79q-158 0 -260 -82.5t-114 -214.5h-68q11 159 131 256.5t311 97.5q189 0 310 -92t121 -250
q0 -160 -134 -254q-66 -47 -123.5 -75.5t-160.5 -67.5q-215 -85 -287 -135q-133 -92 -139 -238z" />
    <glyph glyph-name="three.tosf" 
d="M745 487q172 -29 273.5 -129.5t101.5 -240.5q0 -168 -139 -277q-138 -108 -356 -108q-221 0 -361 116q-142 118 -145 316h69q4 -171 124.5 -273t312.5 -102q186 0 305 94q121 95 121 240q0 150 -125 244t-330 94h-68v51h66q183 0 294 83.5t111 217.5q0 133 -104 215
q-110 84 -270 84q-169 0 -275 -91.5t-110 -248.5h-66q3 183 129 291q124 106 322 106q192 0 317 -98t125 -248q0 -124 -87 -214.5t-235 -121.5z" />
    <glyph glyph-name="four.tosf" 
d="M950 158h275v-58h-275v-356h-67v356h-781v54l766 995h82v-991zM883 158v913l-707 -913h707z" />
    <glyph glyph-name="five.tosf" 
d="M641 698q219 0 360 -135q140 -140 140 -348q0 -212 -144 -350q-143 -137 -366 -137q-201 0 -344 116q-147 120 -162 314h70q15 -171 141 -273q122 -98 295 -98q188 0 315 121q125 122 125 309t-123 307q-127 121 -317 121q-112 0 -217 -57q-108 -58 -162 -150h-68
l105 711h61h717v-59h-725l-80 -562q62 78 164.5 124t214.5 46z" />
    <glyph glyph-name="six.tosf" 
d="M653 954q216 0 357 -135q141 -138 141 -348q0 -213 -143 -350t-369 -137q-224 0 -367 137t-143 350q0 158 92 291l449 643h80l-377 -531q121 80 280 80zM324 166q126 -123 315 -123q190 0 317 121q125 119 125 307t-125 307q-127 121 -317 121q-188 0 -315 -121
q-125 -119 -125 -307q0 -186 125 -305z" />
    <glyph glyph-name="seven.tosf" 
d="M164 1087v62h969v-55l-687 -1350h-71l682 1343h-893z" />
    <glyph glyph-name="eight.tosf" 
d="M795 741q174 -32 277.5 -131.5t103.5 -238.5q0 -171 -150 -279t-387 -108q-236 0 -385 110q-152 109 -152 277q0 138 104 237.5t277 132.5q-147 32 -234 121.5t-87 210.5q0 151 135 250q134 98 342 98q210 0 344 -98q133 -100 133 -250q0 -121 -86.5 -210.5
t-234.5 -121.5zM344 1282q-117 -86 -117 -217q0 -133 117 -215q115 -86 295 -86q179 0 297 86q117 82 117 215q0 131 -117 217q-119 84 -297 84q-179 0 -295 -84zM639 39q202 0 336 96q131 94 131 240q0 149 -131 243q-135 97 -336 97q-199 0 -334 -97q-133 -95 -133 -243
q0 -145 133 -240q134 -96 334 -96z" />
    <glyph glyph-name="nine.tosf" 
d="M639 1169q226 0 369 -137t143 -350q0 -158 -92 -291l-449 -643h-80l373 528q-115 -77 -276 -77q-217 0 -357 137q-141 138 -141 346q0 211 145 350q143 137 365 137zM639 254q190 0 317 121q125 119 125 307t-125 307q-127 121 -317 121q-188 0 -315 -121
q-125 -122 -125 -307q0 -188 125 -307q127 -121 315 -121z" />
    <glyph glyph-name="zero.zero" horiz-adv-x="1333" 
d="M254 1227q153 194 414 194q260 0 413 -194q154 -195 154 -525q0 -329 -154 -524q-153 -194 -413 -194q-263 0 -416 194q-154 195 -154 524q0 332 156 525zM668 1360q-230 0 -365 -176q-135 -178 -135 -482q0 -260 102 -430l758 914q-131 174 -360 174zM1065 1133
l-760 -914q131 -174 363 -174q229 0 364 178q133 177 133 479q0 265 -100 431z" />
    <glyph glyph-name="zero.osf.zero" horiz-adv-x="1267" 
d="M633 1174q248 0 391 -162q145 -165 145 -434q0 -273 -145 -433q-142 -161 -391 -161q-247 0 -389 161q-146 161 -146 433q0 268 146 434q143 162 389 162zM633 1112q-213 0 -338 -143q-127 -145 -127 -391q0 -189 76 -320l737 698q-123 156 -348 156zM633 43
q213 0 340 145t127 390q0 192 -84 329l-740 -698q126 -166 357 -166z" />
    <glyph glyph-name="zero.tf.zero" 
d="M225 1227q153 194 414 194q260 0 416 -194q153 -193 153 -525q0 -330 -153 -524t-416 -194q-261 0 -414 194t-153 524q0 332 153 525zM639 1360q-231 0 -363 -176q-135 -178 -135 -482q0 -262 101 -430l759 912q-135 176 -362 176zM639 43q230 0 365 178t135 481
q0 257 -101 431l-762 -914q138 -176 363 -176z" />
    <glyph glyph-name="zero.tosf.zero" 
d="M639 1174q248 0 391 -162q146 -166 146 -434q0 -272 -146 -433q-142 -161 -391 -161q-247 0 -389 161q-146 161 -146 433q0 268 146 434q143 162 389 162zM639 1112q-213 0 -338 -143q-127 -145 -127 -391q0 -189 76 -320l737 700q-127 154 -348 154zM639 43
q213 0 340 145t127 390q0 197 -84 331l-739 -700q126 -166 356 -166z" />
    <glyph glyph-name="zero.dnom" horiz-adv-x="937" 
d="M176 815q108 129 293 129t293 -129t108 -348t-108 -348t-293 -129t-293 129t-108 348t108 348zM717 776q-92 115 -248 115q-157 0 -246 -115q-92 -115 -92 -309t92 -309q89 -115 246 -115q156 0 248 115t92 309t-92 309z" />
    <glyph glyph-name="one.dnom" horiz-adv-x="534" 
d="M307 934h51v-934h-59v807q-66 -96 -229 -96v55q103 0 170 47.5t67 120.5z" />
    <glyph glyph-name="two.dnom" horiz-adv-x="808" 
d="M145 51h603v-51h-672v10q0 110 67 197q22 32 80 74q59 43 84 57q76 42 94 53q142 75 206.5 139.5t64.5 151.5q0 92 -72.5 151.5t-183.5 59.5q-107 0 -178.5 -58t-81.5 -159h-60q10 124 98 196t224 72q137 0 225 -71.5t88 -186.5q0 -102 -69 -176t-218 -156
q-167 -93 -221 -141q-75 -72 -78 -162z" />
    <glyph glyph-name="three.dnom" horiz-adv-x="864" 
d="M522 492q119 -20 189.5 -87t70.5 -159q0 -113 -98 -183q-101 -73 -254 -73q-156 0 -256.5 79.5t-101.5 209.5h63q1 -108 83 -173t212 -65q124 0 206.5 60t82.5 151q0 95 -85.5 155t-223.5 60h-50v45h50q123 0 198.5 53.5t75.5 139.5q0 82 -72 136t-182 54
q-116 0 -188.5 -60t-73.5 -159h-57q1 123 89 195.5t230 72.5q136 0 224.5 -65.5t88.5 -165.5q0 -81 -60.5 -141t-160.5 -80z" />
    <glyph glyph-name="four.dnom" horiz-adv-x="845" 
d="M645 285h191v-54h-191v-231h-61v231h-543v50l530 653h74v-649zM584 285v581l-478 -581h478z" />
    <glyph glyph-name="five.dnom" horiz-adv-x="870" 
d="M440 633q155 0 253 -90t98 -230q0 -143 -101 -231q-103 -92 -260 -92q-145 0 -245.5 77.5t-112.5 206.5h63q10 -104 93 -167.5t202 -63.5q129 0 213 77.5t84 196.5q0 117 -84 193t-213 76q-75 0 -149 -37t-109 -94h-59l73 479h54h497v-53h-506l-53 -355q43 49 113.5 78
t148.5 29z" />
    <glyph glyph-name="six.dnom" horiz-adv-x="860" 
d="M444 635q146 0 250 -90q99 -89 99 -230t-103 -233t-260 -92t-260 92q-102 92 -102 233q0 107 65 193l313 426h74l-262 -346q77 47 186 47zM215 119q86 -80 215 -80t215 80q86 77 86 196t-84 197q-87 78 -217 78q-131 0 -215 -78q-86 -77 -86 -197q0 -119 86 -196z" />
    <glyph glyph-name="seven.dnom" horiz-adv-x="757" 
d="M41 881v53h684v-49l-475 -885h-66l473 881h-616z" />
    <glyph glyph-name="eight.dnom" horiz-adv-x="888" 
d="M573 494q116 -25 184 -90.5t68 -155.5q0 -113 -107 -185.5t-274 -72.5t-274 72.5t-107 185.5q0 90 68 155.5t184 90.5q-97 25 -153 82.5t-56 134.5q0 103 94.5 168t243.5 65t243.5 -65t94.5 -168q0 -77 -56 -134.5t-153 -82.5zM166 705q0 -85 78 -139t200 -54
q123 0 201 54t78 139q0 86 -77.5 139t-201.5 53q-123 0 -200.5 -53t-77.5 -139zM219 100q88 -61 225 -61q140 0 228 61q90 59 90 152q0 94 -90.5 155.5t-227.5 61.5q-136 0 -225.5 -61.5t-89.5 -155.5q0 -93 90 -152z" />
    <glyph glyph-name="nine.dnom" horiz-adv-x="860" 
d="M170 852q103 92 260 92t260 -92t103 -234q0 -101 -66 -192l-313 -426h-74l264 348q-77 -47 -188 -47q-147 0 -248 90q-100 87 -100 227q0 142 102 234zM215 424q84 -78 215 -78q130 0 217 78q84 78 84 194q0 119 -86 199q-87 78 -215 78t-215 -78q-86 -80 -86 -199
q0 -117 86 -194z" />
    <glyph glyph-name="zero.numr" horiz-adv-x="937" 
d="M176 1286q108 129 293 129t293 -129t108 -348t-108 -348t-293 -129t-293 129t-108 348t108 348zM717 1247q-92 115 -248 115q-157 0 -246 -115q-92 -115 -92 -309t92 -309q89 -115 246 -115q156 0 248 115t92 309t-92 309z" />
    <glyph glyph-name="one.numr" horiz-adv-x="534" 
d="M307 1405h51v-934h-59v809q-64 -98 -229 -98v55q103 0 170 47.5t67 120.5z" />
    <glyph glyph-name="two.numr" horiz-adv-x="808" 
d="M145 522h603v-51h-672v10q0 110 67 197q22 32 80 74q59 43 84 57q77 43 94 53q142 75 206.5 139.5t64.5 151.5q0 92 -72.5 151.5t-183.5 59.5q-107 0 -178.5 -58t-81.5 -159h-60q10 124 98 196t224 72q137 0 225 -71.5t88 -186.5q0 -102 -69 -176t-218 -156
q-169 -91 -227 -149q-69 -69 -72 -154z" />
    <glyph glyph-name="three.numr" horiz-adv-x="864" 
d="M522 963q118 -20 189 -87.5t71 -158.5q0 -112 -98 -182q-103 -74 -254 -74q-156 0 -256.5 79.5t-101.5 209.5h63q1 -108 83 -173t212 -65q124 0 206.5 60t82.5 151q0 95 -85.5 155t-223.5 60h-50v45h50q123 0 198.5 53.5t75.5 139.5q0 82 -72 136t-182 54
q-116 0 -188.5 -60t-73.5 -159h-57q1 123 89 195.5t230 72.5q136 0 224.5 -65.5t88.5 -165.5q0 -81 -60.5 -141t-160.5 -80z" />
    <glyph glyph-name="four.numr" horiz-adv-x="845" 
d="M645 756h191v-54h-191v-231h-61v231h-543v50l530 653h74v-649zM584 756v581l-478 -581h478z" />
    <glyph glyph-name="five.numr" horiz-adv-x="870" 
d="M440 1104q155 0 253 -90t98 -230q0 -143 -101 -231q-103 -92 -260 -92q-145 0 -245.5 77.5t-112.5 206.5h63q10 -104 93 -167.5t202 -63.5q129 0 213 77.5t84 196.5q0 117 -84 193t-213 76q-75 0 -149 -37t-109 -94h-59l73 479h54h497v-53h-506l-53 -355q94 107 262 107z
" />
    <glyph glyph-name="six.numr" horiz-adv-x="860" 
d="M444 1106q146 0 250 -90q99 -89 99 -230t-103 -233t-260 -92t-260 92q-102 91 -102 233q0 107 65 193l313 426h74l-262 -346q77 47 186 47zM215 590q86 -80 215 -80t215 80q86 77 86 196t-84 197q-87 78 -217 78q-131 0 -215 -78q-86 -77 -86 -197q0 -119 86 -196z" />
    <glyph glyph-name="seven.numr" horiz-adv-x="757" 
d="M41 1352v53h684v-49l-475 -885h-66l475 881h-618z" />
    <glyph glyph-name="eight.numr" horiz-adv-x="888" 
d="M575 965q116 -25 183 -90.5t67 -155.5q0 -113 -107 -185.5t-274 -72.5t-274 72.5t-107 185.5q0 90 67 155.5t183 90.5q-95 23 -151 81.5t-56 135.5q0 103 94.5 168t243.5 65t243.5 -65t94.5 -168q0 -77 -56 -135.5t-151 -81.5zM166 1176q0 -85 78 -139t200 -54
q123 0 201 54t78 139q0 86 -77.5 139t-201.5 53q-123 0 -200.5 -53t-77.5 -139zM219 571q88 -61 225 -61q140 0 228 61q90 59 90 152q0 94 -90.5 155.5t-227.5 61.5q-136 0 -225.5 -61.5t-89.5 -155.5q0 -93 90 -152z" />
    <glyph glyph-name="nine.numr" horiz-adv-x="860" 
d="M170 1323q103 92 260 92t260 -92t103 -233q0 -102 -66 -193l-313 -426h-74l266 350q-76 -49 -190 -49q-147 0 -248 90q-100 87 -100 228q0 142 102 233zM215 895q84 -78 215 -78q130 0 217 78q84 78 84 195q0 118 -86 198q-87 78 -215 78t-215 -78q-86 -80 -86 -198
t86 -195z" />
    <glyph glyph-name="exclamdown.case" horiz-adv-x="421" 
d="M258 1309q-19 -19 -47 -19t-45 19q-17 17 -17 45t19 47q28 28 67 11t39 -58q0 -29 -16 -45zM242 1182l8 -1182h-78l6 1182h64z" />
    <glyph glyph-name="questiondown.case" horiz-adv-x="1054" 
d="M571 1309q-29 -30 -68.5 -13.5t-39.5 58.5q0 41 39.5 58t68.5 -11q17 -19 17 -47t-17 -45zM907 408h68q0 -183 -127 -304q-126 -120 -322 -120q-193 0 -319 120q-127 121 -127 302q0 173 117 290q118 118 299 127l2 359h61l2 -410h-10q-178 0 -289 -102
q-112 -100 -112 -262q0 -161 106 -261q107 -104 270 -104q166 0 273 104q105 99 108 261z" />
    <glyph glyph-name="braceleft.case" horiz-adv-x="499" 
d="M242 1432v-633q0 -68 -58 -92q58 -27 58 -93v-639q0 -99 62.5 -163t158.5 -64v-47q-128 0 -205.5 76t-77.5 198v639q0 66 -61 66v53q61 0 61 66v633q0 122 77.5 197t205.5 75v-47q-96 0 -158.5 -64t-62.5 -161z" />
    <glyph glyph-name="braceright.case" horiz-adv-x="536" 
d="M319 1430v-633q0 -64 62 -64v-53q-62 0 -62 -66v-641q0 -120 -78 -196t-204 -76v47q96 0 157.5 63t61.5 162v641q0 66 59 93q-59 24 -59 90v633q0 99 -61.5 162t-157.5 63v49q127 0 204.5 -76t77.5 -198z" />
    <glyph glyph-name="bracketleft.case" horiz-adv-x="518" 
d="M487 1690v-54h-264v-1865h264v-54h-327v1973h327z" />
    <glyph glyph-name="bracketright.case" horiz-adv-x="518" 
d="M33 1636v54h325v-1973h-325v54h264v1865h-264z" />
    <glyph glyph-name="parenleft.case" horiz-adv-x="483" 
d="M387 1690h51q-250 -398 -250 -985q0 -590 250 -988h-51q-266 380 -266 988t266 985z" />
    <glyph glyph-name="parenright.case" horiz-adv-x="481" 
d="M43 1690h51q266 -383 266 -985q0 -605 -266 -988h-51q250 398 250 988q0 587 -250 985z" />
    </font>
</defs>
</svg>
